<?xml version="1.0" standalone="no"?>
<!DOCTYPE svg PUBLIC "-//W3C//DTD SVG 1.1//EN" "http://www.w3.org/Graphics/SVG/1.1/DTD/svg11.dtd" >
<svg xmlns="http://www.w3.org/2000/svg" xmlns:xlink="http://www.w3.org/1999/xlink" version="1.1">
<metadata>
Created by FontForge 20150318 at Thu Oct 15 22:59:45 2015
 By uniteet7
Copyright (URW)++, copyright 1999 by (URW)++ Design &#38; Development; Cyrillic glyphs added by Valek Filippov, copyright 2001-2002; Vietnamese characters were added by Han The Thanh; copyright 2006, 2008 for TeX Gyre extensions by B. Jackowski and J.M. Nowacki (on behalf of TeX users groups). This work is released under the GUST Font License --  see http://tug.org/fonts/licenses/GUST-FONT-LICENSE.txt for details.
</metadata>
<defs>
<font id="TeXGyreHerosCondensed-Italic" horiz-adv-x="456" >
  <font-face 
    font-family="TeXGyreHerosCondensed"
    font-weight="400"
    font-style="italic"
    font-stretch="condensed"
    units-per-em="1000"
    panose-1="0 0 5 6 0 0 0 0 0 0"
    ascent="793"
    descent="-207"
    x-height="523"
    cap-height="718"
    bbox="-441 -286 1122 1089"
    underline-thickness="50"
    underline-position="-25"
    slope="-9.89999"
    stemh="86"
    stemv="75"
    unicode-range="U+0020-FB04"
  />
<missing-glyph horiz-adv-x="280" 
 />
    <glyph glyph-name="f_f" unicode="ff" horiz-adv-x="438" 
d="M478 523l-13 -73h-72l-78 -450h-72l78 450h-140l-78 -450h-72l78 450h-59l13 73h59l15 90c12 75 58 115 130 115c8 0 12 0 34 -2l-14 -79c-13 1 -23 2 -29 2c-30 0 -46 -18 -53 -61l-11 -65h140l15 90c12 75 58 115 130 115c8 0 12 0 34 -2l-14 -79c-13 1 -23 2 -29 2
c-30 0 -46 -18 -53 -61l-11 -65h72z" />
    <glyph glyph-name="f_i" unicode="fi" horiz-adv-x="410" 
d="M266 523l-13 -73h-72l-78 -450h-72l78 450h-59l13 73h59l15 90c12 75 58 115 130 115c8 0 12 0 34 -2l-14 -79c-13 1 -23 2 -29 2c-30 0 -46 -18 -53 -61l-11 -65h72zM315 0h-72l91 523h72zM428 607h-86l17 96h86z" />
    <glyph glyph-name="f_l" unicode="fl" horiz-adv-x="410" 
d="M266 523l-13 -73h-72l-78 -450h-72l78 450h-59l13 73h59l15 90c12 75 58 115 130 115c8 0 12 0 34 -2l-14 -79c-13 1 -23 2 -29 2c-30 0 -46 -18 -53 -61l-11 -65h72zM315 0h-72l125 718h72z" />
    <glyph glyph-name="f_f_i" unicode="ffi" horiz-adv-x="622" 
d="M478 523l-13 -73h-72l-78 -450h-72l78 450h-140l-78 -450h-72l78 450h-59l13 73h59l15 90c12 75 58 115 130 115c8 0 12 0 34 -2l-14 -79c-13 1 -23 2 -29 2c-30 0 -46 -18 -53 -61l-11 -65h140l15 90c12 75 58 115 130 115c8 0 12 0 34 -2l-14 -79c-13 1 -23 2 -29 2
c-30 0 -46 -18 -53 -61l-11 -65h72zM527 0h-72l91 523h72zM640 607h-86l17 96h86z" />
    <glyph glyph-name="f_f_l" unicode="ffl" horiz-adv-x="622" 
d="M478 523l-13 -73h-72l-78 -450h-72l78 450h-140l-78 -450h-72l78 450h-59l13 73h59l15 90c12 75 58 115 130 115c8 0 12 0 34 -2l-14 -79c-13 1 -23 2 -29 2c-30 0 -46 -18 -53 -61l-11 -65h140l15 90c12 75 58 115 130 115c8 0 12 0 34 -2l-14 -79c-13 1 -23 2 -29 2
c-30 0 -46 -18 -53 -61l-11 -65h72zM527 0h-72l125 718h72z" />
    <glyph glyph-name="I_J" unicode="IJ" horiz-adv-x="595" 
d="M94 0h-79l125 718h79zM534 194c-24 -136 -99 -213 -207 -213c-89 0 -139 50 -139 139c0 13 1 27 3 40l13 71h74l-8 -50c-2 -14 -5 -27 -4 -42c0 -50 24 -75 72 -75c63 0 100 40 115 124l93 530h79z" />
    <glyph glyph-name="i_j" unicode="ij" horiz-adv-x="364" 
d="M87 0h-72l91 523h72zM200 607h-86l17 96h86zM256 -77c-16 -91 -57 -133 -131 -133c-11 0 -21 1 -32 3l13 76h15c46 0 54 9 64 64l103 590h72zM382 607h-86l17 96h86z" />
    <glyph glyph-name="f_k" unicode="fk" horiz-adv-x="638" 
d="M266 523l-13 -73h-72l-78 -450h-72l78 450h-59l13 73h59l15 90c12 75 58 115 130 115c8 0 12 0 34 -2l-14 -79c-13 1 -23 2 -29 2c-30 0 -46 -18 -53 -61l-11 -65h72zM599 0h-93l-87 264l-72 -66l-34 -198h-70l125 718h70l-73 -416l223 221h92l-198 -195z" />
    <glyph glyph-name=".notdef" horiz-adv-x="280" 
 />
    <glyph glyph-name="acute.dup" horiz-adv-x="273" 
d="M358 725l-132 -141h-55l88 141h99z" />
    <glyph glyph-name="AE.dup" horiz-adv-x="820" 
d="M740 0h-405l36 209h-217l-101 -209h-86l364 718h528l-15 -86h-320l-38 -220h292l-15 -86h-292l-42 -240h326zM445 632h-79l-168 -337h188z" />
    <glyph glyph-name="ae.dup" horiz-adv-x="729" 
d="M695 233h-313c-4 -25 -6 -47 -6 -62c0 -68 37 -110 97 -110c59 0 114 43 132 103h72c-38 -113 -119 -179 -220 -179c-78 0 -119 31 -142 109c-60 -78 -114 -109 -188 -109c-73 0 -117 43 -117 116c0 105 65 185 162 199l122 18c32 5 50 35 50 82c0 42 -30 65 -86 65
c-63 0 -95 -28 -118 -101h-66c28 123 95 174 208 174c63 0 92 -17 126 -74c56 56 93 74 153 74c104 0 145 -86 145 -184c0 -31 -4 -72 -11 -121zM633 303c1 18 2 34 2 47c0 67 -35 109 -91 109c-69 0 -130 -63 -150 -156h239zM306 181l15 86c-17 -15 -39 -19 -125 -33
c-76 -12 -109 -48 -109 -112c0 -42 22 -64 63 -64c73 0 144 56 156 123z" />
    <glyph glyph-name="cedilla.dup" horiz-adv-x="273" 
d="M151 -121c0 -61 -50 -109 -114 -109c-25 0 -46 6 -75 22l21 40c21 -11 33 -15 49 -15c33 0 55 20 55 50c0 18 -14 33 -33 33c-7 0 -16 1 -33 -5l-11 19l68 88h48l-39 -60h8c35 0 56 -27 56 -63z" />
    <glyph glyph-name="circumflex.dup" horiz-adv-x="273" 
d="M318 585h-65l-38 93l-70 -93h-65l106 141h76z" />
    <glyph glyph-name="dieresis.dup" horiz-adv-x="273" 
d="M166 607h-88l17 96h88zM327 607h-88l17 96h88z" />
    <glyph glyph-name="l.script.dup" horiz-adv-x="402" 
d="M345 72c-31 -53 -87 -87 -144 -87c-64 0 -107 48 -107 111c0 8 1 16 2 24l10 56l-40 -39l-45 43l102 94l53 300c13 76 74 144 146 144c61 0 97 -51 97 -114c0 -138 -120 -253 -227 -350l-24 -134c-1 -3 -1 -8 -1 -8c0 -30 26 -50 58 -50c26 0 52 11 72 30zM340 574
c1 6 2 12 2 18c0 27 -12 49 -36 49c-30 0 -52 -33 -58 -67l-39 -219c64 65 116 135 131 219z" />
    <glyph glyph-name="Gcedilla" horiz-adv-x="638" 
d="M538 0h-52l-3 93c-65 -77 -133 -112 -218 -112c-145 0 -214 127 -214 265c0 259 161 491 354 491c125 0 210 -86 210 -213v-24h-77c-8 107 -61 151 -146 151c-144 0 -257 -175 -257 -399c0 -124 53 -188 156 -188s193 70 224 237h-183l14 83h258zM290 -154
c-14 -80 -51 -128 -100 -132l7 39c28 3 46 32 54 86h-40l18 101h77z" />
    <glyph glyph-name="gcedilla" 
d="M344 671l-18 -101h-77l16 94c14 80 51 128 100 132l-7 -39c-28 -3 -46 -32 -54 -86h40zM460 523l-84 -480c-31 -184 -112 -263 -243 -263c-91 0 -139 42 -139 146v10h72c3 -58 27 -83 82 -83c83 0 131 42 155 184l4 21c-38 -51 -77 -73 -131 -73c-91 0 -144 73 -144 199
c0 197 103 354 231 354c58 0 88 -24 115 -92l14 77h68zM351 334c0 83 -30 125 -89 125c-105 0 -156 -138 -156 -274c0 -78 32 -124 86 -124c89 0 159 107 159 273z" />
    <glyph glyph-name="germandbls.dup" horiz-adv-x="501" 
d="M472 270c0 -138 -99 -285 -253 -285c-15 0 -24 1 -40 6l-3 1l14 75c12 -2 24 -3 36 -3c105 0 169 79 169 190c0 67 -39 100 -120 100c-12 0 -22 -1 -32 -4l14 79c5 -1 16 -2 22 -2c87 0 145 55 145 136c0 57 -39 89 -108 89c-80 0 -123 -43 -140 -142l-89 -510h-72
l93 532c21 121 106 196 223 196c105 0 168 -54 168 -144c0 -77 -33 -140 -96 -184c45 -20 69 -68 69 -130z" />
    <glyph glyph-name="hyphen.dup" horiz-adv-x="273" 
d="M253 322l-16 -90h-200l16 90h200z" />
    <glyph glyph-name="Kcedilla" horiz-adv-x="547" 
d="M503 0h-103l-143 360l-112 -108l-43 -252h-80l125 718h80l-61 -348l346 348h110l-296 -290zM237 -154c-14 -80 -51 -128 -100 -132l7 39c28 3 46 32 54 86h-40l18 101h77z" />
    <glyph glyph-name="kcedilla" horiz-adv-x="410" 
d="M371 0h-93l-87 264l-72 -66l-34 -198h-70l125 718h70l-73 -416l223 221h92l-198 -195zM179 -154c-14 -80 -51 -128 -100 -132l7 39c28 3 46 32 54 86h-40l18 101h77z" />
    <glyph glyph-name="Lcedilla" 
d="M400 0h-378l125 718h80l-110 -632h298zM225 -154c-14 -80 -51 -128 -100 -132l7 39c28 3 46 32 54 86h-40l18 101h77z" />
    <glyph glyph-name="lcedilla" horiz-adv-x="182" 
d="M87 0h-72l125 718h72zM65 -154c-14 -80 -51 -128 -100 -132l7 39c28 3 46 32 54 86h-40l18 101h77z" />
    <glyph glyph-name="macron.dup" horiz-adv-x="273" 
d="M344 684l-10 -57h-257l10 57h257z" />
    <glyph glyph-name="Ncedilla" horiz-adv-x="592" 
d="M490 0h-90l-199 583l-102 -583h-77l125 718h95l194 -583l102 583h77zM270 -154c-14 -80 -51 -128 -100 -132l7 39c28 3 46 32 54 86h-40l18 101h77z" />
    <glyph glyph-name="ncedilla" 
d="M363 0h-72l56 322c3 20 5 40 5 60c0 51 -23 77 -69 77c-73 0 -129 -66 -148 -174l-50 -285h-72l91 523h68l-13 -77c50 65 94 92 153 92c74 0 118 -48 118 -128c0 -17 -2 -35 -5 -54zM202 -154c-14 -80 -51 -128 -100 -132l7 39c28 3 46 32 54 86h-40l18 101h77z" />
    <glyph glyph-name="OE.dup" horiz-adv-x="820" 
d="M751 0h-363l13 78c-58 -73 -101 -97 -172 -97c-120 0 -189 92 -189 254c0 253 138 502 328 502c70 0 109 -28 133 -95l13 76h361l-15 -86h-286l-39 -220h274l-15 -86h-274l-42 -240h288zM424 230l45 262c2 13 4 27 4 39c0 76 -45 123 -117 123c-68 0 -126 -42 -166 -121
c-39 -77 -69 -203 -69 -291c0 -118 45 -178 133 -178c84 0 153 66 170 166z" />
    <glyph glyph-name="oe.dup" horiz-adv-x="774" 
d="M740 233h-314c-4 -24 -6 -46 -6 -60c0 -69 38 -112 98 -112c59 0 114 43 132 103h72c-38 -114 -119 -179 -220 -179c-72 0 -112 28 -145 101c-45 -69 -98 -100 -169 -100c-101 0 -160 75 -160 202c0 177 111 350 253 350c69 0 115 -32 143 -106c58 77 108 106 181 106
c106 0 146 -86 146 -184c0 -31 -4 -72 -11 -121zM678 303c1 18 2 35 2 47c0 67 -35 109 -91 109c-70 0 -130 -62 -151 -156h240zM364 325c0 88 -34 137 -96 137c-95 0 -165 -135 -165 -264c0 -88 34 -136 96 -136c95 0 165 134 165 263z" />
    <glyph glyph-name="Oslash.dup" horiz-adv-x="638" 
d="M690 707l-84 -91c24 -60 31 -98 31 -161c0 -238 -152 -474 -362 -474c-79 0 -132 25 -178 87l-81 -87l-21 28l84 90c-25 60 -33 100 -33 164c0 238 152 474 363 474c80 0 133 -26 179 -89l82 89zM554 443c0 38 -4 62 -16 100l-376 -405c33 -50 71 -71 128 -71
c148 0 264 179 264 376zM523 578c-33 51 -72 73 -130 73c-148 0 -264 -178 -264 -375c0 -39 4 -65 16 -105z" />
    <glyph glyph-name="oslash.dup" horiz-adv-x="501" 
d="M491 519l-70 -78c14 -40 19 -65 19 -106c0 -177 -111 -349 -255 -349c-52 0 -88 18 -119 60l-61 -68l-21 26l65 72c-16 42 -21 69 -21 113c0 176 111 349 255 349c54 0 90 -19 122 -65l65 72zM349 410c-19 37 -43 52 -80 52c-88 0 -165 -119 -165 -265c0 -19 1 -30 5 -54
zM365 326c0 15 -1 25 -5 47l-238 -265c17 -32 41 -46 77 -46c87 0 166 118 166 264z" />
    <glyph glyph-name="quoteleft.dup" horiz-adv-x="182" 
d="M217 678c-33 -7 -51 -37 -62 -102h44l-19 -106h-85l17 98c16 91 51 139 113 157z" />
    <glyph glyph-name="quoteright.dup" horiz-adv-x="182" 
d="M197 620c-16 -91 -51 -140 -113 -157l8 47c33 7 51 37 62 102h-44l19 106h85z" />
    <glyph glyph-name="Rcedilla" horiz-adv-x="592" 
d="M524 16l-3 -16h-98v17c0 31 7 98 18 163c3 20 5 37 5 50c0 51 -31 78 -88 78h-193l-53 -308h-80l125 718h273c107 0 164 -50 164 -143c0 -97 -35 -167 -116 -222c39 -22 50 -41 50 -90c0 -12 -1 -30 -3 -45l-18 -130c-2 -14 -3 -25 -3 -34c0 -16 5 -25 20 -38zM509 552
c0 56 -28 83 -88 83h-199l-42 -244h184c98 0 145 65 145 161zM254 -154c-14 -80 -51 -128 -100 -132l7 39c28 3 46 32 54 86h-40l18 101h77z" />
    <glyph glyph-name="rcedilla" horiz-adv-x="273" 
d="M325 535l-16 -91h-27c-63 0 -120 -59 -134 -140l-53 -304h-72l91 523h68l-16 -90c52 76 90 105 141 105c7 0 12 -1 18 -3zM73 -154c-14 -80 -51 -128 -100 -132l7 39c28 3 46 32 54 86h-40l18 101h77z" />
    <glyph glyph-name="tilde.dup" horiz-adv-x="273" 
d="M360 713c-22 -71 -57 -109 -102 -109c-12 0 -25 4 -45 13l-20 9c-23 10 -37 15 -47 15c-20 0 -33 -12 -47 -44h-39c23 74 55 107 104 107c16 0 34 -5 53 -15l17 -9c15 -8 29 -13 38 -13c22 0 35 13 47 46h41z" />
    <glyph glyph-name="space" unicode=" " horiz-adv-x="228" 
 />
    <glyph glyph-name="exclam" unicode="!" horiz-adv-x="228" 
d="M131 102l-18 -102h-79l18 102h79zM197 481l-74 -310h-40l35 310l41 237h79z" />
    <glyph glyph-name="quotedbl" unicode="&#x22;" horiz-adv-x="291" 
d="M158 463h-60l44 255h60zM275 463h-60l44 255h60z" />
    <glyph glyph-name="numbersign" unicode="#" 
d="M477 478l-18 -63h-85l-41 -142h85l-19 -63h-84l-60 -210h-55l61 210h-103l-60 -210h-54l60 210h-84l18 63h85l40 142h-84l18 63h84l61 210h55l-61 -210h102l60 210h55l-60 -210h84zM319 415h-101l-41 -142h102z" />
    <glyph glyph-name="dollar" unicode="$" 
d="M426 248c0 -145 -86 -256 -223 -267l-16 -96h-39l17 96c-109 13 -148 64 -148 152c0 21 3 48 7 80h72c-2 -24 -4 -48 -4 -64c0 -56 22 -80 86 -95l46 265c-105 32 -140 70 -140 152c0 122 85 232 208 240l11 64h39l-11 -64c96 -15 135 -61 135 -141c0 -14 -1 -31 -2 -49
h-70c1 9 1 18 1 23c0 53 -21 78 -77 94l-42 -239c121 -46 150 -69 150 -151zM240 409l39 229c-73 -4 -120 -70 -120 -140c0 -47 25 -75 81 -89zM348 206c0 39 -18 73 -46 85l-42 17l-44 -254c82 4 132 75 132 152z" />
    <glyph glyph-name="percent" unicode="%" horiz-adv-x="729" 
d="M340 572c0 -129 -62 -251 -163 -251c-63 0 -97 43 -97 123c0 125 60 251 162 251c64 0 98 -43 98 -123zM283 571c0 45 -18 71 -49 71c-60 0 -97 -98 -97 -197c0 -46 18 -71 49 -71c62 0 97 102 97 197zM631 703l-450 -722h-45l450 722h45zM689 244
c0 -127 -62 -251 -162 -251c-64 0 -98 43 -98 123c0 125 60 251 162 251c64 0 98 -43 98 -123zM632 243c0 46 -18 71 -49 71c-61 0 -97 -100 -97 -197c0 -46 18 -71 50 -71c61 0 96 102 96 197z" />
    <glyph glyph-name="ampersand" unicode="&#x26;" horiz-adv-x="547" 
d="M488 0h-93l-41 82c-66 -72 -115 -97 -187 -97c-92 0 -144 53 -144 148c0 58 17 116 47 158c26 37 55 61 128 108c-31 63 -38 86 -38 122c0 107 78 197 172 197c67 0 108 -44 108 -115c0 -82 -33 -142 -142 -221l81 -156c21 44 26 57 43 112h68c-15 -61 -41 -121 -79 -183
zM326 141l-98 198c-123 -85 -131 -124 -131 -184c0 -54 38 -94 90 -94c50 0 93 25 139 80zM368 585c0 36 -20 57 -53 57c-46 0 -82 -42 -82 -96c0 -32 12 -65 38 -107c66 49 97 89 97 146z" />
    <glyph glyph-name="quotesingle" unicode="'" horiz-adv-x="157" 
d="M149 463h-60l44 255h60z" />
    <glyph glyph-name="parenleft" unicode="(" horiz-adv-x="273" 
d="M169 -207h-48c-56 153 -72 228 -72 330c0 195 54 364 233 610h50c-93 -152 -125 -217 -155 -315c-35 -111 -55 -230 -55 -322c0 -82 11 -152 47 -303z" />
    <glyph glyph-name="parenright" unicode=")" horiz-adv-x="273" 
d="M236 403c0 -195 -55 -364 -233 -610h-50c93 152 125 217 155 315c35 112 55 230 55 322c0 83 -11 151 -47 303h48c56 -153 72 -228 72 -330z" />
    <glyph glyph-name="asterisk" unicode="*" horiz-adv-x="319" 
d="M349 591l-94 -34l38 -92l-46 -34l-36 94l-70 -94l-34 34l71 92l-83 34l26 55l79 -38l20 110h49l-19 -110l92 38z" />
    <glyph glyph-name="plus" unicode="+" horiz-adv-x="479" 
d="M430 221h-155v-155h-58v155h-156v58h156v156h58v-156h155v-58z" />
    <glyph glyph-name="comma" unicode="," horiz-adv-x="228" 
d="M118 8c-16 -90 -55 -144 -112 -155l8 46c29 4 49 37 61 101h-43l18 106h85z" />
    <glyph glyph-name="hyphen" unicode="-" horiz-adv-x="273" 
d="M253 322l-16 -90h-200l16 90h200z" />
    <glyph glyph-name="period" unicode="." horiz-adv-x="228" 
d="M135 106l-19 -106h-85l19 106h85z" />
    <glyph glyph-name="slash" unicode="/" horiz-adv-x="228" 
d="M330 737l-332 -756h-55l333 756h54z" />
    <glyph glyph-name="zero" unicode="0" 
d="M459 483c0 -118 -34 -263 -82 -359c-48 -94 -114 -143 -192 -143c-96 0 -148 76 -148 217c0 239 103 505 274 505c97 0 148 -75 148 -220zM382 484c0 90 -31 140 -85 140c-112 0 -183 -230 -183 -425c0 -89 31 -139 85 -139c115 0 183 237 183 424z" />
    <glyph glyph-name="one" unicode="1" 
d="M255 0h-78l87 499h-134l12 70c109 8 138 30 178 134h57z" />
    <glyph glyph-name="two" unicode="2" 
d="M376 0h-395c27 130 81 215 184 279l86 54c68 43 89 61 108 91c18 29 28 67 28 101c0 62 -35 99 -94 99c-75 0 -119 -52 -146 -173h-73c36 173 119 252 240 252c93 0 152 -62 152 -160c0 -60 -19 -121 -51 -166c-30 -42 -65 -68 -149 -119l-66 -40
c-65 -39 -110 -86 -123 -135h313z" />
    <glyph glyph-name="three" unicode="3" 
d="M429 253c0 -143 -104 -272 -249 -272c-100 0 -159 60 -159 164c0 18 1 42 4 70h75c-3 -22 -4 -40 -4 -55c0 -64 36 -100 99 -100c87 0 154 74 154 169c0 67 -46 96 -106 96h-11c-14 -1 -18 -1 -32 -1l13 76c22 -2 30 -2 38 -2c78 0 132 57 132 139c0 55 -33 87 -90 87
c-72 0 -112 -44 -138 -151h-71c32 155 108 230 224 230c95 0 152 -54 152 -145c0 -86 -40 -158 -105 -186c55 -27 74 -62 74 -119z" />
    <glyph glyph-name="four" unicode="4" 
d="M419 171h-85l-30 -171h-72l30 171h-252l15 86l342 446h60l-80 -456h85zM275 247l56 322l-241 -322h185z" />
    <glyph glyph-name="five" unicode="5" 
d="M425 280c0 -154 -105 -299 -254 -299c-99 0 -156 58 -156 158c0 9 0 22 1 36h75c-1 -7 -1 -15 -1 -20c0 -60 38 -98 98 -98c86 0 157 91 157 201c0 71 -40 116 -103 116c-43 0 -78 -20 -119 -67l-62 4l109 377h299l-15 -86h-245l-58 -193c41 31 76 44 119 44
c91 0 155 -71 155 -173z" />
    <glyph glyph-name="six" unicode="6" 
d="M428 282c0 -158 -111 -301 -240 -301c-98 0 -154 76 -154 209c0 97 27 228 66 319c54 126 133 194 225 194c82 0 139 -59 139 -144c0 -12 -1 -26 -2 -43h-71c0 75 -24 108 -78 108c-84 0 -149 -93 -185 -266c42 62 90 90 151 90c89 0 149 -67 149 -166zM351 259
c0 70 -34 110 -94 110c-82 0 -148 -86 -148 -193c0 -71 37 -116 96 -116c79 0 146 91 146 199z" />
    <glyph glyph-name="seven" unicode="7" 
d="M496 611c-151 -165 -265 -368 -344 -611h-80c60 200 182 415 341 602h-318l15 86h399z" />
    <glyph glyph-name="eight" unicode="8" 
d="M423 246c0 -136 -100 -265 -235 -265c-101 0 -168 64 -168 160c0 111 44 186 133 232c-41 25 -57 55 -57 102c0 115 91 228 211 228c93 0 150 -55 150 -145c0 -76 -30 -143 -103 -184c49 -32 69 -69 69 -128zM344 229c0 63 -37 101 -98 101c-83 0 -146 -71 -146 -165
c0 -68 36 -105 102 -105c85 0 142 68 142 169zM381 541c0 52 -34 83 -89 83c-69 0 -120 -57 -120 -133c0 -50 35 -85 84 -85c68 0 125 62 125 135z" />
    <glyph glyph-name="nine" unicode="9" 
d="M459 504c0 -112 -36 -263 -88 -366s-122 -157 -204 -157c-85 0 -140 57 -140 145c0 10 1 25 3 43h72c-1 -12 -1 -21 -1 -29c0 -53 30 -86 79 -86c70 0 123 47 186 271c-36 -59 -88 -90 -151 -90c-89 0 -145 65 -145 167c0 156 101 301 234 301c100 0 155 -70 155 -199z
M383 518c0 67 -34 106 -92 106c-81 0 -145 -92 -145 -209c0 -66 32 -101 91 -101c88 0 146 94 146 204z" />
    <glyph glyph-name="colon" unicode=":" horiz-adv-x="228" 
d="M117 0h-86l19 106h85zM207 516l-19 -106h-85l18 106h86z" />
    <glyph glyph-name="semicolon" unicode=";" horiz-adv-x="228" 
d="M136 106l-18 -98c-16 -90 -55 -144 -112 -155l8 46c30 4 49 37 61 101h-43l18 106h86zM189 410h-86l19 106h85z" />
    <glyph glyph-name="less" unicode="&#x3c;" horiz-adv-x="479" 
d="M375 -65l-280 295v40l280 295v-84l-219 -231l219 -231v-84z" />
    <glyph glyph-name="equal" unicode="=" horiz-adv-x="479" 
d="M430 311h-369v58h369v-58zM430 131h-369v58h369v-58z" />
    <glyph glyph-name="greater" unicode="&#x3e;" horiz-adv-x="479" 
d="M375 230l-280 -295v84l219 231l-219 231v84l280 -295v-40z" />
    <glyph glyph-name="question" unicode="?" 
d="M460 576c0 -83 -18 -121 -110 -210c-75 -73 -88 -95 -103 -183h-72c19 104 34 133 115 215c47 48 61 65 71 82c13 22 21 54 21 83c0 56 -30 88 -82 88c-72 0 -115 -50 -136 -158h-72c19 88 34 125 72 165c42 44 98 69 152 69c88 0 144 -59 144 -151zM239 102l-18 -102
h-80l18 102h80z" />
    <glyph glyph-name="at" unicode="@" horiz-adv-x="832" 
d="M751 487c0 -166 -138 -351 -253 -351c-24 0 -41 19 -41 47c0 5 0 10 1 17c-44 -45 -78 -64 -114 -64c-54 0 -93 51 -93 121c0 137 121 315 241 315c43 0 66 -22 80 -78l27 62h56l-67 -164c-56 -136 -66 -158 -65 -175c0 -11 4 -16 13 -16c71 0 160 151 160 273
c0 119 -76 201 -187 201c-165 0 -313 -185 -313 -389c0 -143 84 -243 206 -243c78 0 148 37 220 114h55c-89 -123 -185 -176 -288 -176c-148 0 -253 124 -253 299c0 237 185 457 384 457c134 0 231 -105 231 -250zM533 429c0 41 -21 69 -53 71c-67 0 -160 -122 -160 -222
c0 -42 21 -70 53 -70c61 0 160 122 160 221z" />
    <glyph glyph-name="A" unicode="A" horiz-adv-x="547" 
d="M496 0h-87l-22 209h-236l-98 -209h-82l347 718h90zM374 295l-33 319l-150 -319h183z" />
    <glyph glyph-name="B" unicode="B" horiz-adv-x="547" 
d="M515 258c0 -144 -106 -258 -241 -258h-253l125 718h259c86 0 138 -53 138 -141c0 -79 -35 -147 -108 -190c59 -32 80 -66 80 -129zM461 558c0 52 -35 77 -106 77h-144l-39 -221h144c97 0 145 57 145 144zM434 244c0 61 -40 91 -119 91h-156l-44 -252h169
c89 0 150 66 150 161z" />
    <glyph glyph-name="C" unicode="C" horiz-adv-x="592" 
d="M564 264c-41 -115 -71 -165 -124 -211c-54 -47 -118 -72 -183 -72c-131 0 -209 98 -209 261c0 271 150 495 351 495c123 0 201 -81 201 -209c0 -7 0 -15 -1 -26h-77c-4 106 -55 149 -137 149c-145 0 -254 -174 -254 -396c0 -121 52 -188 148 -188c88 0 155 54 208 197h77
z" />
    <glyph glyph-name="D" unicode="D" horiz-adv-x="592" 
d="M586 472c0 -238 -134 -472 -324 -472h-236l125 718h239c123 0 196 -92 196 -246zM503 461c0 112 -49 174 -138 174h-149l-96 -552h154c133 0 229 177 229 378z" />
    <glyph glyph-name="E" unicode="E" horiz-adv-x="547" 
d="M466 0h-435l125 718h429l-15 -86h-349l-39 -220h323l-15 -86h-323l-41 -240h355z" />
    <glyph glyph-name="F" unicode="F" horiz-adv-x="501" 
d="M548 632h-328l-38 -220h288l-15 -86h-288l-57 -326h-79l125 718h407z" />
    <glyph glyph-name="G" unicode="G" horiz-adv-x="638" 
d="M538 0h-52l-3 93c-65 -77 -133 -112 -218 -112c-145 0 -214 127 -214 265c0 259 161 491 354 491c125 0 210 -86 210 -213v-24h-77c-8 107 -61 151 -146 151c-144 0 -257 -175 -257 -399c0 -124 53 -188 156 -188s193 70 224 237h-183l14 83h258z" />
    <glyph glyph-name="H" unicode="H" horiz-adv-x="592" 
d="M490 0h-80l59 335h-308l-58 -335h-80l125 718h80l-52 -297h308l51 297h80z" />
    <glyph glyph-name="I" unicode="I" horiz-adv-x="228" 
d="M114 0h-79l125 718h79z" />
    <glyph glyph-name="J" unicode="J" horiz-adv-x="410" 
d="M345 194c-24 -136 -99 -213 -207 -213c-89 0 -139 50 -139 139c0 13 1 27 3 40l13 71h74l-8 -50c-2 -14 -5 -27 -4 -42c0 -50 24 -75 72 -75c63 0 100 40 115 124l93 530h79z" />
    <glyph glyph-name="K" unicode="K" horiz-adv-x="547" 
d="M503 0h-103l-143 360l-112 -108l-43 -252h-80l125 718h80l-61 -348l346 348h110l-296 -290z" />
    <glyph glyph-name="L" unicode="L" 
d="M400 0h-378l125 718h80l-110 -632h298z" />
    <glyph glyph-name="M" unicode="M" horiz-adv-x="683" 
d="M584 0h-77l74 424l34 185l-274 -609h-78l-62 608l-23 -138c-4 -22 -6 -38 -7 -46l-74 -424h-77l125 718h114l63 -610l274 610h113z" />
    <glyph glyph-name="N" unicode="N" horiz-adv-x="592" 
d="M490 0h-90l-199 583l-102 -583h-77l125 718h95l194 -583l102 583h77z" />
    <glyph glyph-name="O" unicode="O" horiz-adv-x="638" 
d="M637 456c0 -240 -153 -475 -361 -475c-148 0 -230 104 -230 280c0 245 154 476 361 476c146 0 230 -103 230 -281zM554 445c0 128 -61 206 -162 206c-145 0 -263 -169 -263 -377c0 -129 61 -207 161 -207c147 0 264 174 264 378z" />
    <glyph glyph-name="P" unicode="P" horiz-adv-x="547" 
d="M564 565c0 -137 -91 -262 -216 -262h-185l-53 -303h-79l125 718h265c88 0 143 -59 143 -153zM481 549c0 57 -34 86 -99 86h-161l-43 -249h158c96 0 145 69 145 163z" />
    <glyph glyph-name="Q" unicode="Q" horiz-adv-x="638" 
d="M561 2l-50 -58l-75 85c-54 -34 -101 -48 -160 -48c-150 0 -230 107 -230 280c0 243 153 476 361 476c149 0 230 -106 230 -281c0 -133 -44 -266 -143 -378zM554 443c0 130 -61 208 -161 208c-146 0 -264 -169 -264 -377c0 -129 61 -207 162 -207c32 0 59 7 91 23l-52 58
l51 60l62 -71c76 84 111 195 111 306z" />
    <glyph glyph-name="R" unicode="R" horiz-adv-x="592" 
d="M524 16l-3 -16h-98v17c0 31 7 98 18 163c3 20 5 37 5 50c0 51 -31 78 -88 78h-193l-53 -308h-80l125 718h273c107 0 164 -50 164 -143c0 -97 -35 -167 -116 -222c39 -22 50 -41 50 -90c0 -12 -1 -30 -3 -45l-18 -130c-2 -14 -3 -25 -3 -34c0 -16 5 -25 20 -38zM509 552
c0 56 -28 83 -88 83h-199l-42 -244h184c98 0 145 65 145 161z" />
    <glyph glyph-name="S" unicode="S" horiz-adv-x="547" 
d="M507 246c0 -157 -112 -265 -275 -265c-127 0 -198 75 -198 176c0 19 2 45 7 75h75c-3 -18 -4 -35 -4 -46c0 -76 53 -122 139 -122c108 0 176 59 176 153c0 48 -26 71 -107 95l-114 34c-66 20 -100 64 -100 129c0 138 103 262 252 262c117 0 186 -63 186 -168
c0 -15 -1 -37 -4 -61h-75c1 13 2 24 2 33c0 70 -47 113 -123 113c-92 0 -157 -61 -157 -148c0 -36 18 -58 56 -69l159 -47c69 -20 105 -70 105 -144z" />
    <glyph glyph-name="T" unicode="T" horiz-adv-x="501" 
d="M560 632h-199l-110 -632h-80l110 632h-199l15 86h478z" />
    <glyph glyph-name="U" unicode="U" horiz-adv-x="592" 
d="M532 252c-29 -165 -139 -271 -283 -271c-120 0 -188 71 -188 195c0 21 1 42 5 63l84 479h79l-78 -452c-4 -21 -6 -43 -6 -64c0 -87 43 -135 122 -135c98 0 165 72 187 197l80 454h79z" />
    <glyph glyph-name="V" unicode="V" horiz-adv-x="547" 
d="M616 718l-340 -718h-84l-90 718h89l61 -615l275 615h89z" />
    <glyph glyph-name="W" unicode="W" horiz-adv-x="774" 
d="M846 718l-280 -718h-115v599l-241 -599h-112v718h94v-588l236 588h117v-588l213 588h88z" />
    <glyph glyph-name="X" unicode="X" horiz-adv-x="547" 
d="M491 0h-98l-107 295l-214 -295h-96l274 368l-136 350h100l101 -275l197 275h95l-258 -350z" />
    <glyph glyph-name="Y" unicode="Y" horiz-adv-x="547" 
d="M621 718l-297 -429l-50 -289h-80l50 289l-147 429h93l108 -345l230 345h93z" />
    <glyph glyph-name="Z" unicode="Z" horiz-adv-x="501" 
d="M442 0h-463l14 81l457 551h-334l15 86h436l-15 -84l-457 -548h362z" />
    <glyph glyph-name="bracketleft" unicode="[" horiz-adv-x="228" 
d="M279 651h-89l-136 -776h89l-12 -71h-154l160 918h154z" />
    <glyph glyph-name="backslash" unicode="\" horiz-adv-x="228" 
d="M199 -19h-55l-69 756h54z" />
    <glyph glyph-name="bracketright" unicode="]" horiz-adv-x="228" 
d="M102 -196h-153l12 71h89l135 776h-89l13 71h153z" />
    <glyph glyph-name="asciicircum" unicode="^" horiz-adv-x="385" 
d="M402 264h-63l-80 344l-200 -344h-64l248 424h59z" />
    <glyph glyph-name="underscore" unicode="_" 
d="M403 -75l-9 -50h-456l9 50h456z" />
    <glyph glyph-name="grave" unicode="`" horiz-adv-x="273" 
d="M226 584h-55l-83 141h99z" />
    <glyph glyph-name="a" unicode="a" 
d="M406 64l-12 -64l-9 -3c-16 -6 -23 -7 -34 -7c-40 0 -62 20 -62 56c0 5 1 15 2 24c-57 -60 -106 -85 -167 -85c-71 0 -114 44 -114 116c0 105 65 185 162 199l122 18c32 5 50 35 50 82c0 42 -30 65 -86 65c-63 0 -95 -27 -118 -101h-66c27 119 93 174 202 174
c89 0 142 -43 142 -115c0 -10 -1 -21 -3 -31l-54 -312c0 -11 6 -20 19 -20c6 0 13 1 26 4zM306 181l15 86c-17 -14 -39 -19 -125 -33c-76 -13 -109 -47 -109 -113c0 -41 22 -63 63 -63c73 0 144 56 156 123z" />
    <glyph glyph-name="b" unicode="b" 
d="M439 355c0 -179 -101 -370 -245 -370c-55 0 -85 23 -106 83l-12 -68h-68l125 718h72l-46 -263c48 59 89 83 142 83c85 0 138 -70 138 -183zM364 348c0 71 -33 111 -91 111c-103 0 -160 -156 -160 -280c0 -72 36 -118 92 -118c95 0 159 143 159 287z" />
    <glyph glyph-name="c" unicode="c" horiz-adv-x="410" 
d="M384 185c-41 -133 -111 -200 -210 -200c-95 0 -153 70 -153 187c0 190 108 366 262 366c81 0 131 -56 131 -148c0 -11 -1 -26 -2 -43h-70c-2 81 -24 112 -82 112c-97 0 -161 -136 -161 -279c0 -77 31 -119 88 -119c55 0 97 41 127 124h70z" />
    <glyph glyph-name="d" unicode="d" 
d="M369 0h-68l13 75c-43 -65 -82 -90 -140 -90c-93 0 -145 72 -145 200c0 196 102 353 231 353c58 0 92 -27 114 -94l48 274h72zM347 334c0 83 -29 125 -88 125c-106 0 -156 -140 -156 -273c0 -79 31 -125 85 -125c89 0 159 108 159 273z" />
    <glyph glyph-name="e" unicode="e" 
d="M423 233h-313c-4 -25 -6 -46 -6 -62c0 -68 37 -110 98 -110c58 0 113 43 131 103h72c-38 -113 -119 -179 -219 -179s-157 68 -157 187c0 190 108 366 260 366c105 0 145 -86 145 -184c0 -31 -4 -72 -11 -121zM361 303c1 18 2 34 2 47c0 67 -35 109 -91 109
c-69 0 -129 -63 -150 -156h239z" />
    <glyph glyph-name="f" unicode="f" horiz-adv-x="228" 
d="M266 523l-13 -73h-72l-78 -450h-72l78 450h-59l13 73h59l15 90c12 75 58 115 130 115c8 0 12 0 34 -2l-14 -79c-13 1 -23 2 -29 2c-30 0 -46 -18 -53 -61l-11 -65h72z" />
    <glyph glyph-name="g" unicode="g" 
d="M460 523l-84 -480c-31 -184 -112 -263 -243 -263c-91 0 -139 42 -139 146v10h72c3 -58 27 -83 82 -83c83 0 131 42 155 184l4 21c-38 -51 -77 -73 -131 -73c-91 0 -144 73 -144 199c0 197 103 354 231 354c58 0 88 -24 115 -92l14 77h68zM351 334c0 83 -30 125 -89 125
c-105 0 -156 -138 -156 -274c0 -78 32 -124 86 -124c89 0 159 107 159 273z" />
    <glyph glyph-name="h" unicode="h" 
d="M363 0h-72l59 342c3 16 5 36 5 48c0 47 -22 69 -68 69c-77 0 -133 -63 -152 -174l-50 -285h-72l125 718h73l-47 -267c53 65 90 87 147 87c75 0 119 -47 119 -128c0 -17 -2 -35 -5 -54z" />
    <glyph glyph-name="i" unicode="i" horiz-adv-x="182" 
d="M87 0h-72l91 523h72zM200 607h-86l17 96h86z" />
    <glyph glyph-name="j" unicode="j" horiz-adv-x="182" 
d="M74 -77c-16 -91 -57 -133 -131 -133c-11 0 -21 1 -32 3l13 76h15c46 0 54 9 64 64l103 590h72zM200 607h-86l17 96h86z" />
    <glyph glyph-name="k" unicode="k" horiz-adv-x="410" 
d="M371 0h-93l-87 264l-72 -66l-34 -198h-70l125 718h70l-73 -416l223 221h92l-198 -195z" />
    <glyph glyph-name="l" unicode="l" horiz-adv-x="182" 
d="M87 0h-72l125 718h72z" />
    <glyph glyph-name="m" unicode="m" horiz-adv-x="683" 
d="M591 0h-72l59 338c3 16 4 31 4 49c0 47 -21 72 -61 72c-58 0 -113 -61 -127 -140l-56 -319h-72l63 362c2 10 3 22 3 31c0 43 -19 66 -52 66c-71 0 -127 -68 -145 -174l-50 -285h-72l91 523h69l-14 -77c49 65 92 92 149 92c53 0 82 -25 98 -85c62 67 92 85 144 85
c68 0 109 -47 109 -124c0 -17 -2 -35 -5 -52z" />
    <glyph glyph-name="n" unicode="n" 
d="M363 0h-72l56 322c3 20 5 40 5 60c0 51 -23 77 -69 77c-73 0 -129 -66 -148 -174l-50 -285h-72l91 523h68l-13 -77c50 65 94 92 153 92c74 0 118 -48 118 -128c0 -17 -2 -35 -5 -54z" />
    <glyph glyph-name="o" unicode="o" 
d="M439 336c0 -177 -110 -350 -254 -350c-98 0 -157 76 -157 203c0 177 111 349 254 349c98 0 157 -76 157 -202zM364 325c0 88 -34 137 -96 137c-95 0 -165 -132 -165 -264c0 -88 34 -136 96 -136c95 0 165 133 165 263z" />
    <glyph glyph-name="p" unicode="p" 
d="M439 355c0 -179 -101 -370 -245 -370c-53 0 -85 22 -104 73l-47 -265h-72l127 730h69l-14 -77c52 69 89 92 148 92c85 0 138 -70 138 -183zM364 348c0 71 -32 111 -91 111c-107 0 -160 -164 -160 -281c0 -71 36 -117 92 -117c91 0 159 137 159 287z" />
    <glyph glyph-name="q" unicode="q" 
d="M329 -207h-72l46 265c-38 -51 -77 -73 -130 -73c-92 0 -144 73 -144 200c0 196 102 353 231 353c57 0 87 -24 115 -92l13 77h68zM347 335c0 82 -30 124 -88 124c-102 0 -156 -129 -156 -273c0 -79 31 -125 85 -125c93 0 159 113 159 274z" />
    <glyph glyph-name="r" unicode="r" horiz-adv-x="273" 
d="M325 535l-16 -91h-27c-63 0 -120 -59 -134 -140l-53 -304h-72l91 523h68l-16 -90c52 76 90 105 141 105c7 0 12 -1 18 -3z" />
    <glyph glyph-name="s" unicode="s" horiz-adv-x="410" 
d="M371 189c0 -113 -92 -204 -207 -204c-97 0 -152 48 -152 131c0 12 1 31 4 52h70c-1 -11 -2 -21 -2 -29c0 -50 34 -78 94 -78c68 0 117 40 117 97c0 28 -19 44 -74 61l-79 25c-53 17 -79 49 -79 98c0 110 86 196 195 196c84 0 136 -49 136 -130c0 -8 -1 -20 -2 -34h-70
c1 9 2 17 2 22c0 42 -31 66 -83 66c-62 0 -104 -37 -104 -90c0 -26 14 -38 66 -54l69 -22c70 -23 99 -55 99 -107z" />
    <glyph glyph-name="t" unicode="t" horiz-adv-x="228" 
d="M171 0c-32 -4 -52 -7 -60 -7c-43 0 -67 25 -67 70c0 13 1 28 4 42l60 345h-58l13 73h58l25 146h73l-26 -146h69l-13 -73h-69l-59 -340c-1 -4 -1 -7 -1 -12c0 -21 11 -29 37 -29h26z" />
    <glyph glyph-name="u" unicode="u" 
d="M361 0h-68l14 81c-51 -72 -89 -96 -152 -96c-75 0 -118 43 -118 118c0 15 1 29 4 44l65 376h73l-61 -347c-2 -13 -3 -23 -3 -40c0 -49 23 -75 67 -75c72 0 129 67 148 174l50 288h72z" />
    <glyph glyph-name="v" unicode="v" horiz-adv-x="410" 
d="M455 523l-254 -523h-78l-65 523h84l37 -429l197 429h79z" />
    <glyph glyph-name="w" unicode="w" horiz-adv-x="592" 
d="M633 523l-216 -523h-91v409l-156 -409h-74l-33 523h89v-415l156 415h93v-415l160 415h72z" />
    <glyph glyph-name="x" unicode="x" horiz-adv-x="410" 
d="M362 0h-92l-72 197l-138 -197h-91l198 269l-100 254h93l67 -184l132 184h88l-189 -254z" />
    <glyph glyph-name="y" unicode="y" horiz-adv-x="410" 
d="M452 523l-244 -513c-100 -205 -117 -224 -201 -224c-12 0 -16 1 -29 6l-6 2l14 80c14 -6 27 -9 42 -9c31 0 43 14 70 67l27 54l-65 537h82l40 -429l190 429h80z" />
    <glyph glyph-name="z" unicode="z" horiz-adv-x="410" 
d="M357 73l-13 -73h-359l12 69l325 381h-239l13 73h332l-13 -72l-321 -378h263z" />
    <glyph glyph-name="braceleft" unicode="{" horiz-adv-x="274" 
d="M314 657h-36c-26 0 -43 -28 -52 -82l-30 -170c-11 -61 -57 -128 -99 -141c34 -18 52 -55 52 -109c0 -14 -1 -24 -3 -35l-29 -169c-3 -15 -4 -28 -4 -39c0 -28 10 -43 27 -43h36l-11 -65h-55c-38 0 -64 38 -64 93c0 14 1 24 3 36l30 171c2 14 3 25 3 45
c0 50 -15 80 -47 85l10 60c39 1 76 53 89 127l30 172c13 74 58 129 106 129h55z" />
    <glyph glyph-name="bar" unicode="|" horiz-adv-x="213" 
d="M142 -196h-58v918h58v-918z" />
    <glyph glyph-name="braceright" unicode="}" horiz-adv-x="274" 
d="M241 234c-39 -1 -75 -54 -90 -130l-30 -171c-13 -73 -57 -129 -106 -129h-55l11 65h37c23 0 43 29 52 82l29 169c11 65 55 128 100 144c-33 15 -53 56 -53 109c0 10 1 21 3 32l30 170c3 16 3 31 4 40c0 27 -10 42 -28 42h-36l11 65h55c39 0 65 -38 65 -93
c0 -11 -1 -24 -3 -36l-30 -172c-3 -14 -5 -28 -4 -43c0 -50 15 -79 48 -84z" />
    <glyph glyph-name="asciitilde" unicode="~" horiz-adv-x="479" 
d="M436 267c-45 -62 -78 -86 -119 -86c-24 0 -44 9 -77 33c-34 25 -58 35 -86 35c-26 0 -45 -13 -70 -49l-33 36c38 60 73 86 117 86c27 0 45 -8 107 -45c24 -15 46 -23 58 -23c21 0 39 14 68 51z" />
    <glyph glyph-name="uni00A0" unicode="&#xa0;" horiz-adv-x="228" 
 />
    <glyph glyph-name="exclamdown" unicode="&#xa1;" horiz-adv-x="228" 
d="M205 523l-18 -102h-79l18 102h79zM80 -195h-79l41 237l74 310h40l-35 -310z" />
    <glyph glyph-name="cent" unicode="&#xa2;" 
d="M413 183c-42 -131 -119 -202 -219 -202c-12 0 -20 1 -50 7l-43 -103h-34l48 114c-55 42 -77 93 -77 170c0 196 107 369 259 369c16 0 26 -2 35 -6l37 91h32l-38 -100c50 -24 76 -73 76 -144c0 -9 0 -20 -1 -34h-67c-2 60 -12 87 -38 102l-158 -386c9 -3 14 -4 27 -4
c67 0 104 33 141 126h70zM303 459c-6 2 -11 3 -19 3c-101 0 -172 -137 -172 -272c0 -51 11 -87 35 -112z" />
    <glyph glyph-name="sterling" unicode="&#xa3;" 
d="M408 32c-45 -35 -76 -48 -111 -48c-29 0 -134 45 -165 45c-29 0 -60 -12 -104 -40l-28 69c91 69 135 148 135 211c0 13 -1 25 -5 48h-88l11 63h57c-12 51 -15 72 -15 97c0 133 106 241 236 241c96 0 149 -58 149 -163c0 -17 -1 -34 -4 -50l-3 -15h-72l1 9c2 12 3 20 3 36
c0 66 -35 107 -92 107c-75 0 -139 -70 -139 -152c0 -28 5 -54 19 -110h138l-11 -63h-114c1 -7 1 -14 1 -17c0 -94 -42 -161 -142 -239c49 29 83 41 120 41c27 0 113 -35 132 -35c21 0 46 11 69 31z" />
    <glyph glyph-name="currency" unicode="&#xa4;" 
d="M398 141l-41 -41l-32 31c-25 -17 -56 -27 -89 -27c-34 0 -64 10 -90 27l-31 -31l-41 41l31 31c-17 26 -27 56 -27 90c0 33 10 63 27 89l-31 31l41 41l31 -31c26 17 56 28 90 28c33 0 64 -11 89 -28l32 31l41 -41l-32 -31c17 -26 28 -56 28 -89c0 -34 -11 -64 -28 -90z
M336 262c0 55 -45 100 -100 100c-56 0 -100 -45 -100 -100c0 -56 44 -100 100 -100c55 0 100 44 100 100z" />
    <glyph glyph-name="yen" unicode="&#xa5;" 
d="M533 688l-211 -304h127l-10 -57h-158l-15 -85h158l-10 -57h-158l-32 -185h-72l32 185h-157l10 57h157l15 85h-157l10 57h126l-105 304h81l92 -295l195 295h82z" />
    <glyph glyph-name="brokenbar" unicode="&#xa6;" horiz-adv-x="213" 
d="M142 355h-58v367h58v-367zM142 -196h-58v367h58v-367z" />
    <glyph glyph-name="section" unicode="&#xa7;" 
d="M426 281c0 -78 -32 -139 -116 -197c20 -34 26 -54 26 -83c0 -103 -86 -192 -185 -192c-78 0 -128 51 -128 130c0 14 2 35 5 58h72c-3 -16 -4 -30 -4 -40c0 -46 24 -72 65 -72c58 0 101 42 101 98c0 23 -10 42 -33 64l-147 140c-22 21 -35 54 -35 92c0 74 30 132 112 188
c-18 32 -24 49 -24 73c0 96 80 197 180 197c76 0 124 -48 124 -125c0 -14 -2 -35 -5 -58h-70c2 15 3 28 3 38c0 43 -24 69 -63 69c-51 0 -93 -43 -93 -95c0 -27 14 -51 45 -76l105 -86c46 -38 65 -74 65 -123zM353 245c0 29 -12 55 -36 76l-124 107
c-51 -31 -74 -69 -74 -121c0 -26 8 -46 25 -61l133 -122c55 39 76 73 76 121z" />
    <glyph glyph-name="dieresis" unicode="&#xa8;" horiz-adv-x="273" 
d="M166 607h-88l17 96h88zM327 607h-88l17 96h88z" />
    <glyph glyph-name="copyright" unicode="&#xa9;" horiz-adv-x="604" 
d="M590 329c0 -181 -113 -348 -282 -348s-282 167 -282 348s113 348 282 348s282 -167 282 -348zM550 329c0 159 -95 308 -242 308s-242 -149 -242 -308s95 -308 242 -308s242 149 242 308zM472 420c0 -5 0 -10 -1 -18h-52c-2 56 -31 79 -78 79c-83 0 -143 -91 -141 -206
c1 -62 31 -97 85 -97c51 0 88 29 117 105h53c-24 -66 -42 -93 -74 -119c-32 -25 -70 -39 -109 -39c-78 0 -126 53 -128 142c-2 146 86 267 205 267c74 0 122 -44 123 -114z" />
    <glyph glyph-name="ordfeminine" unicode="&#xaa;" horiz-adv-x="303" 
d="M323 454l-8 -44l-6 -2c-10 -2 -15 -3 -22 -3c-26 0 -40 12 -40 34c0 6 0 11 1 17c-37 -36 -69 -51 -108 -51c-46 0 -75 28 -75 72c0 65 43 112 111 121l74 10c15 2 26 21 26 44c0 21 -20 33 -54 33c-41 0 -63 -15 -74 -53h-44c17 72 58 105 130 105c59 0 94 -26 94 -71
c0 -5 -1 -11 -2 -17l-31 -178v-7c0 -8 4 -12 12 -12c3 0 8 1 16 2zM263 570c-8 -7 -24 -12 -79 -20c-48 -7 -65 -23 -65 -58c0 -23 14 -35 40 -35c48 0 89 32 97 74zM293 352l-9 -48h-242l8 48h243z" />
    <glyph glyph-name="guillemotleft" unicode="&#xab;" 
d="M203 196l-16 -88l-107 123l16 92l150 123l-15 -88l-100 -81zM399 358l-100 -81l71 -81l-15 -88l-107 123l16 92l150 123z" />
    <glyph glyph-name="logicalnot" unicode="&#xac;" horiz-adv-x="479" 
d="M430 369v-209h-58v151h-311v58h369z" />
    <glyph glyph-name="uni00AD" unicode="&#xad;" horiz-adv-x="273" 
d="M253 322l-16 -90h-200l16 90h200z" />
    <glyph glyph-name="registered" unicode="&#xae;" horiz-adv-x="604" 
d="M590 329c0 -181 -113 -348 -282 -348s-282 167 -282 348s113 348 282 348s282 -167 282 -348zM550 329c0 159 -95 308 -242 308s-242 -149 -242 -308s95 -308 242 -308s242 149 242 308zM473 445c1 -51 -18 -89 -62 -118c20 -11 26 -22 27 -48c0 -6 -1 -16 -2 -24l-9 -69
c-1 -8 -1 -13 -1 -18c0 -8 3 -12 12 -19l-2 -10c0 -2 -2 -4 -4 -4h-61v12c0 17 3 52 9 87c2 11 3 19 3 26c-1 25 -18 39 -49 39h-109l-29 -164h-54l68 389h163c65 0 99 -28 100 -79zM416 431c0 28 -16 41 -49 41h-112l-21 -122h104c54 0 79 33 78 81z" />
    <glyph glyph-name="macron" unicode="&#xaf;" horiz-adv-x="273" 
d="M344 684l-10 -57h-257l10 57h257z" />
    <glyph glyph-name="degree" unicode="&#xb0;" horiz-adv-x="328" 
d="M344 589c0 -94 -70 -178 -148 -178c-58 0 -98 46 -98 114c0 94 70 178 149 178c57 0 97 -46 97 -114zM303 577c0 46 -28 83 -64 83c-49 0 -100 -63 -100 -123c0 -47 28 -83 64 -83c49 0 100 63 100 123z" />
    <glyph glyph-name="plusminus" unicode="&#xb1;" horiz-adv-x="479" 
d="M430 279h-155v-155h-58v155h-156v58h156v156h58v-156h155v-58zM430 0h-369v58h369v-58z" />
    <glyph glyph-name="two.superior" unicode="&#xb2;" horiz-adv-x="273" 
d="M285 342l-11 -61h-262c17 78 52 129 115 167l55 33c50 30 61 38 72 56c10 15 17 43 17 63c0 34 -23 56 -59 56c-47 0 -75 -32 -91 -104h-49c21 113 78 162 156 162c61 0 100 -43 100 -109c0 -69 -24 -114 -125 -170l-41 -23c-36 -21 -59 -42 -78 -70h201z" />
    <glyph glyph-name="three.superior" unicode="&#xb3;" horiz-adv-x="273" 
d="M300 442c0 -96 -71 -172 -162 -172c-66 0 -104 42 -104 113c0 9 1 23 2 38h56c-1 -11 -2 -21 -2 -28c0 -43 20 -65 59 -65c56 0 92 40 92 101c0 38 -21 53 -74 53h-19l9 51h22c49 0 80 31 80 79c0 28 -20 44 -56 44c-43 0 -67 -23 -81 -80h-50c20 92 69 138 146 138
c62 0 100 -34 100 -89c0 -52 -26 -93 -68 -110c37 -15 50 -34 50 -73z" />
    <glyph glyph-name="acute" unicode="&#xb4;" horiz-adv-x="273" 
d="M358 725l-132 -141h-55l88 141h99z" />
    <glyph glyph-name="mu" unicode="&#xb5;" 
d="M361 0h-68l14 81c-50 -71 -89 -96 -151 -96c-33 0 -50 10 -64 36l-40 -228h-72l127 730h72l-60 -347c-2 -13 -5 -28 -4 -40c0 -50 23 -75 67 -75c71 0 129 68 148 174l50 288h72z" />
    <glyph glyph-name="paragraph" unicode="&#xb6;" horiz-adv-x="440" 
d="M493 718l-156 -891h-60l145 831h-97l-146 -831h-59l90 517c-100 5 -147 62 -147 146c0 130 86 228 226 228h204z" />
    <glyph glyph-name="periodcentered" unicode="&#xb7;" horiz-adv-x="228" 
d="M163 250c0 -24 -19 -43 -43 -43s-43 19 -43 43s19 43 43 43s43 -19 43 -43z" />
    <glyph glyph-name="cedilla" unicode="&#xb8;" horiz-adv-x="273" 
d="M151 -121c0 -61 -50 -109 -114 -109c-25 0 -46 6 -75 22l21 40c21 -11 33 -15 49 -15c33 0 55 20 55 50c0 18 -14 33 -33 33c-7 0 -16 1 -33 -5l-11 19l68 88h48l-39 -60h8c35 0 56 -27 56 -63z" />
    <glyph glyph-name="one.superior" unicode="&#xb9;" horiz-adv-x="273" 
d="M265 703l-74 -422h-58l52 296h-89l8 46c71 5 90 18 115 80h46z" />
    <glyph glyph-name="ordmasculine" unicode="&#xba;" horiz-adv-x="299" 
d="M344 621c0 -123 -66 -216 -163 -216c-67 0 -105 42 -105 115c0 127 68 217 163 217c67 0 105 -42 105 -116zM288 609c0 50 -21 76 -58 76c-60 0 -98 -76 -98 -152c0 -50 20 -76 58 -76c61 0 98 78 98 152zM285 304h-243l8 48h243z" />
    <glyph glyph-name="guillemotright" unicode="&#xbb;" 
d="M225 323l-17 -92l-150 -123l15 88l101 81l-72 81l15 88zM377 231l-151 -123l16 88l100 81l-72 81l15 88l108 -123z" />
    <glyph glyph-name="onequarter" unicode="&#xbc;" horiz-adv-x="684" 
d="M596 94h-55l-16 -94h-52l16 94h-169l10 60l216 268h53l-48 -270h55zM618 703l-489 -728h-47l489 728h47zM287 703l-74 -422h-56l53 299h-89l7 43c71 5 90 18 115 80h44zM499 152l33 190l-151 -190h118z" />
    <glyph glyph-name="onehalf" unicode="&#xbd;" horiz-adv-x="684" 
d="M589 703l-490 -728h-47l490 728h47zM191 281h-59l52 296h-89l8 46c72 5 90 18 115 80h46zM605 61l-11 -61h-262c17 78 52 129 115 167l55 33c50 30 61 39 72 56c10 15 17 43 17 63c0 34 -23 56 -59 56c-47 0 -75 -32 -91 -104h-49c23 116 79 162 156 162
c61 0 100 -43 100 -109c0 -68 -24 -114 -125 -170l-41 -23c-36 -20 -59 -42 -78 -70h201z" />
    <glyph glyph-name="threequarters" unicode="&#xbe;" horiz-adv-x="684" 
d="M640 94h-55l-16 -94h-53l17 94h-169l10 60l216 268h52l-47 -270h55zM666 703l-489 -728h-47l489 728h47zM332 443c0 -97 -71 -173 -162 -173c-66 0 -104 42 -104 113c0 9 1 23 2 38h56c-1 -11 -2 -21 -2 -28c0 -43 20 -65 59 -65c56 0 92 40 92 101c0 38 -21 53 -74 53
h-19l9 51h22c49 0 80 31 80 79c0 28 -20 44 -56 44c-43 0 -67 -23 -81 -80h-50c20 92 69 138 146 138c62 0 100 -33 100 -89c0 -52 -25 -93 -68 -110c37 -15 50 -35 50 -72zM543 152l33 190l-151 -190h118z" />
    <glyph glyph-name="questiondown" unicode="&#xbf;" 
d="M375 30c-19 -88 -34 -125 -72 -165c-42 -44 -98 -69 -152 -69c-88 0 -144 59 -144 151c0 83 18 121 110 210c75 73 88 95 103 183h72c-19 -104 -34 -133 -115 -215c-47 -48 -61 -65 -71 -82c-13 -22 -21 -54 -21 -83c0 -56 30 -88 82 -88c72 0 115 50 136 158h72z
M326 523l-18 -102h-80l18 102h80z" />
    <glyph glyph-name="Agrave" unicode="&#xc0;" horiz-adv-x="547" 
d="M496 0h-87l-22 209h-236l-98 -209h-82l347 718h90zM374 295l-33 319l-150 -319h183zM402 779h-55l-86 121h99z" />
    <glyph glyph-name="Aacute" unicode="&#xc1;" horiz-adv-x="547" 
d="M496 0h-87l-22 209h-236l-98 -209h-82l347 718h90zM374 295l-33 319l-150 -319h183zM529 900l-128 -121h-55l84 121h99z" />
    <glyph glyph-name="Acircumflex" unicode="&#xc2;" horiz-adv-x="547" 
d="M496 0h-87l-22 209h-236l-98 -209h-82l347 718h90zM374 295l-33 319l-150 -319h183zM508 780h-66l-56 73l-82 -73h-65l117 121h77z" />
    <glyph glyph-name="Atilde" unicode="&#xc3;" horiz-adv-x="547" 
d="M496 0h-87l-22 209h-236l-98 -209h-82l347 718h90zM374 295l-33 319l-150 -319h183zM535 898c-22 -71 -57 -109 -102 -109c-12 0 -25 4 -45 13l-20 9c-23 10 -37 15 -47 15c-20 0 -33 -12 -47 -44h-39c23 74 55 107 104 107c16 0 34 -5 53 -15l17 -9c15 -8 29 -13 38 -13
c22 0 35 13 47 46h41z" />
    <glyph glyph-name="Adieresis" unicode="&#xc4;" horiz-adv-x="547" 
d="M496 0h-87l-22 209h-236l-98 -209h-82l347 718h90zM374 295l-33 319l-150 -319h183zM340 792h-88l17 96h88zM501 792h-88l17 96h88z" />
    <glyph glyph-name="Aring" unicode="&#xc5;" horiz-adv-x="547" 
d="M496 0h-87l-22 209h-236l-98 -209h-82l347 718h90zM374 295l-33 319l-150 -319h183zM489 858c-8 -47 -57 -82 -115 -82s-95 35 -87 84c9 47 59 82 116 82c58 0 95 -35 86 -84zM445 858c5 27 -17 48 -48 48s-61 -21 -66 -46c-4 -27 17 -48 49 -48s61 21 65 46z" />
    <glyph glyph-name="AE" unicode="&#xc6;" horiz-adv-x="820" 
d="M740 0h-405l36 209h-217l-101 -209h-86l364 718h528l-15 -86h-320l-38 -220h292l-15 -86h-292l-42 -240h326zM445 632h-79l-168 -337h188z" />
    <glyph glyph-name="Ccedilla" unicode="&#xc7;" horiz-adv-x="592" 
d="M564 264c-41 -115 -71 -165 -124 -211c-44 -38 -94 -62 -146 -69l-27 -42h8c35 0 56 -27 56 -63c0 -61 -50 -109 -114 -109c-25 0 -46 6 -75 22l21 40c21 -11 33 -15 49 -15c33 0 55 20 55 50c0 18 -14 33 -33 33c-7 0 -16 1 -33 -5l-11 19l52 67
c-122 8 -194 104 -194 261c0 271 150 495 351 495c123 0 201 -81 201 -209c0 -7 0 -15 -1 -26h-77c-4 106 -55 149 -137 149c-145 0 -254 -174 -254 -396c0 -121 52 -188 148 -188c88 0 155 54 208 197h77z" />
    <glyph glyph-name="Egrave" unicode="&#xc8;" horiz-adv-x="547" 
d="M466 0h-435l125 718h429l-15 -86h-349l-39 -220h323l-15 -86h-323l-41 -240h355zM409 779h-55l-86 121h99z" />
    <glyph glyph-name="Eacute" unicode="&#xc9;" horiz-adv-x="547" 
d="M466 0h-435l125 718h429l-15 -86h-349l-39 -220h323l-15 -86h-323l-41 -240h355zM536 900l-128 -121h-55l84 121h99z" />
    <glyph glyph-name="Ecircumflex" unicode="&#xca;" horiz-adv-x="547" 
d="M466 0h-435l125 718h429l-15 -86h-349l-39 -220h323l-15 -86h-323l-41 -240h355zM515 780h-66l-56 73l-82 -73h-65l117 121h77z" />
    <glyph glyph-name="Edieresis" unicode="&#xcb;" horiz-adv-x="547" 
d="M466 0h-435l125 718h429l-15 -86h-349l-39 -220h323l-15 -86h-323l-41 -240h355zM347 792h-88l17 96h88zM508 792h-88l17 96h88z" />
    <glyph glyph-name="Igrave" unicode="&#xcc;" horiz-adv-x="228" 
d="M114 0h-79l125 718h79zM250 779h-55l-86 121h99z" />
    <glyph glyph-name="Iacute" unicode="&#xcd;" horiz-adv-x="228" 
d="M114 0h-79l125 718h79zM354 900l-128 -121h-55l84 121h99z" />
    <glyph glyph-name="Icircumflex" unicode="&#xce;" horiz-adv-x="228" 
d="M114 0h-79l125 718h79zM344 780h-66l-56 73l-82 -73h-65l117 121h77z" />
    <glyph glyph-name="Idieresis" unicode="&#xcf;" horiz-adv-x="228" 
d="M114 0h-79l125 718h79zM176 792h-88l17 96h88zM337 792h-88l17 96h88z" />
    <glyph glyph-name="Eth" unicode="&#xd0;" horiz-adv-x="592" 
d="M586 470c0 -95 -28 -203 -73 -292c-60 -117 -146 -178 -251 -178h-235l56 326h-66l15 86h66l54 306h238c123 0 196 -93 196 -248zM502 461c0 112 -48 174 -137 174h-148l-39 -223h157l-15 -86h-157l-42 -243h154c131 0 227 177 227 378z" />
    <glyph glyph-name="Ntilde" unicode="&#xd1;" horiz-adv-x="592" 
d="M490 0h-90l-199 583l-102 -583h-77l125 718h95l194 -583l102 583h77zM553 898c-22 -71 -57 -109 -102 -109c-12 0 -25 4 -45 13l-20 9c-23 10 -37 15 -47 15c-20 0 -33 -12 -47 -44h-39c23 74 55 107 104 107c16 0 34 -5 53 -15l17 -9c15 -8 29 -13 38 -13
c22 0 35 13 47 46h41z" />
    <glyph glyph-name="Ograve" unicode="&#xd2;" horiz-adv-x="638" 
d="M637 456c0 -240 -153 -475 -361 -475c-148 0 -230 104 -230 280c0 245 154 476 361 476c146 0 230 -103 230 -281zM554 445c0 128 -61 206 -162 206c-145 0 -263 -169 -263 -377c0 -129 61 -207 161 -207c147 0 264 174 264 378zM442 779h-55l-86 121h99z" />
    <glyph glyph-name="Oacute" unicode="&#xd3;" horiz-adv-x="638" 
d="M637 456c0 -240 -153 -475 -361 -475c-148 0 -230 104 -230 280c0 245 154 476 361 476c146 0 230 -103 230 -281zM554 445c0 128 -61 206 -162 206c-145 0 -263 -169 -263 -377c0 -129 61 -207 161 -207c147 0 264 174 264 378zM569 900l-128 -121h-55l84 121h99z" />
    <glyph glyph-name="Ocircumflex" unicode="&#xd4;" horiz-adv-x="638" 
d="M637 456c0 -240 -153 -475 -361 -475c-148 0 -230 104 -230 280c0 245 154 476 361 476c146 0 230 -103 230 -281zM554 445c0 128 -61 206 -162 206c-145 0 -263 -169 -263 -377c0 -129 61 -207 161 -207c147 0 264 174 264 378zM548 780h-66l-56 73l-82 -73h-65l117 121
h77z" />
    <glyph glyph-name="Otilde" unicode="&#xd5;" horiz-adv-x="638" 
d="M637 456c0 -240 -153 -475 -361 -475c-148 0 -230 104 -230 280c0 245 154 476 361 476c146 0 230 -103 230 -281zM554 445c0 128 -61 206 -162 206c-145 0 -263 -169 -263 -377c0 -129 61 -207 161 -207c147 0 264 174 264 378zM575 898c-22 -71 -57 -109 -102 -109
c-12 0 -25 4 -45 13l-20 9c-23 10 -37 15 -47 15c-20 0 -33 -12 -47 -44h-39c23 74 55 107 104 107c16 0 34 -5 53 -15l17 -9c15 -8 29 -13 38 -13c22 0 35 13 47 46h41z" />
    <glyph glyph-name="Odieresis" unicode="&#xd6;" horiz-adv-x="638" 
d="M637 456c0 -240 -153 -475 -361 -475c-148 0 -230 104 -230 280c0 245 154 476 361 476c146 0 230 -103 230 -281zM554 445c0 128 -61 206 -162 206c-145 0 -263 -169 -263 -377c0 -129 61 -207 161 -207c147 0 264 174 264 378zM380 792h-88l17 96h88zM541 792h-88
l17 96h88z" />
    <glyph glyph-name="multiply" unicode="&#xd7;" horiz-adv-x="479" 
d="M397 141l-41 -41l-110 109l-110 -110l-41 41l110 111l-110 110l41 41l110 -110l110 109l41 -41l-110 -109z" />
    <glyph glyph-name="Oslash" unicode="&#xd8;" horiz-adv-x="638" 
d="M690 707l-84 -91c24 -60 31 -98 31 -161c0 -238 -152 -474 -362 -474c-79 0 -132 25 -178 87l-81 -87l-21 28l84 90c-25 60 -33 100 -33 164c0 238 152 474 363 474c80 0 133 -26 179 -89l82 89zM554 443c0 38 -4 62 -16 100l-376 -405c33 -50 71 -71 128 -71
c148 0 264 179 264 376zM523 578c-33 51 -72 73 -130 73c-148 0 -264 -178 -264 -375c0 -39 4 -65 16 -105z" />
    <glyph glyph-name="Ugrave" unicode="&#xd9;" horiz-adv-x="592" 
d="M532 252c-29 -165 -139 -271 -283 -271c-120 0 -188 71 -188 195c0 21 1 42 5 63l84 479h79l-78 -452c-4 -21 -6 -43 -6 -64c0 -87 43 -135 122 -135c98 0 165 72 187 197l80 454h79zM420 779h-55l-86 121h99z" />
    <glyph glyph-name="Uacute" unicode="&#xda;" horiz-adv-x="592" 
d="M532 252c-29 -165 -139 -271 -283 -271c-120 0 -188 71 -188 195c0 21 1 42 5 63l84 479h79l-78 -452c-4 -21 -6 -43 -6 -64c0 -87 43 -135 122 -135c98 0 165 72 187 197l80 454h79zM547 900l-128 -121h-55l84 121h99z" />
    <glyph glyph-name="Ucircumflex" unicode="&#xdb;" horiz-adv-x="592" 
d="M532 252c-29 -165 -139 -271 -283 -271c-120 0 -188 71 -188 195c0 21 1 42 5 63l84 479h79l-78 -452c-4 -21 -6 -43 -6 -64c0 -87 43 -135 122 -135c98 0 165 72 187 197l80 454h79zM526 780h-66l-56 73l-82 -73h-65l117 121h77z" />
    <glyph glyph-name="Udieresis" unicode="&#xdc;" horiz-adv-x="592" 
d="M532 252c-29 -165 -139 -271 -283 -271c-120 0 -188 71 -188 195c0 21 1 42 5 63l84 479h79l-78 -452c-4 -21 -6 -43 -6 -64c0 -87 43 -135 122 -135c98 0 165 72 187 197l80 454h79zM358 792h-88l17 96h88zM519 792h-88l17 96h88z" />
    <glyph glyph-name="Yacute" unicode="&#xdd;" horiz-adv-x="547" 
d="M621 718l-297 -429l-50 -289h-80l50 289l-147 429h93l108 -345l230 345h93zM525 900l-128 -121h-55l84 121h99z" />
    <glyph glyph-name="Thorn" unicode="&#xde;" horiz-adv-x="547" 
d="M544 445c0 -135 -91 -261 -216 -261h-185l-32 -184h-80l125 718h80l-21 -119h185c89 0 144 -59 144 -154zM461 430c0 57 -34 86 -99 86h-161l-44 -249h158c96 0 146 67 146 163z" />
    <glyph glyph-name="germandbls" unicode="&#xdf;" horiz-adv-x="501" 
d="M472 270c0 -138 -99 -285 -253 -285c-15 0 -24 1 -40 6l-3 1l14 75c12 -2 24 -3 36 -3c105 0 169 79 169 190c0 67 -39 100 -120 100c-12 0 -22 -1 -32 -4l14 79c5 -1 16 -2 22 -2c87 0 145 55 145 136c0 57 -39 89 -108 89c-80 0 -123 -43 -140 -142l-89 -510h-72
l93 532c21 121 106 196 223 196c105 0 168 -54 168 -144c0 -77 -33 -140 -96 -184c45 -20 69 -68 69 -130z" />
    <glyph glyph-name="agrave" unicode="&#xe0;" 
d="M406 64l-12 -64l-9 -3c-16 -6 -23 -7 -34 -7c-40 0 -62 20 -62 56c0 5 1 15 2 24c-57 -60 -106 -85 -167 -85c-71 0 -114 44 -114 116c0 105 65 185 162 199l122 18c32 5 50 35 50 82c0 42 -30 65 -86 65c-63 0 -95 -27 -118 -101h-66c27 119 93 174 202 174
c89 0 142 -43 142 -115c0 -10 -1 -21 -3 -31l-54 -312c0 -11 6 -20 19 -20c6 0 13 1 26 4zM306 181l15 86c-17 -14 -39 -19 -125 -33c-76 -13 -109 -47 -109 -113c0 -41 22 -63 63 -63c73 0 144 56 156 123zM312 584h-55l-83 141h99z" />
    <glyph glyph-name="aacute" unicode="&#xe1;" 
d="M406 64l-12 -64l-9 -3c-16 -6 -23 -7 -34 -7c-40 0 -62 20 -62 56c0 5 1 15 2 24c-57 -60 -106 -85 -167 -85c-71 0 -114 44 -114 116c0 105 65 185 162 199l122 18c32 5 50 35 50 82c0 42 -30 65 -86 65c-63 0 -95 -27 -118 -101h-66c27 119 93 174 202 174
c89 0 142 -43 142 -115c0 -10 -1 -21 -3 -31l-54 -312c0 -11 6 -20 19 -20c6 0 13 1 26 4zM306 181l15 86c-17 -14 -39 -19 -125 -33c-76 -13 -109 -47 -109 -113c0 -41 22 -63 63 -63c73 0 144 56 156 123zM443 725l-132 -141h-55l88 141h99z" />
    <glyph glyph-name="acircumflex" unicode="&#xe2;" 
d="M406 64l-12 -64l-9 -3c-16 -6 -23 -7 -34 -7c-40 0 -62 20 -62 56c0 5 1 15 2 24c-57 -60 -106 -85 -167 -85c-71 0 -114 44 -114 116c0 105 65 185 162 199l122 18c32 5 50 35 50 82c0 42 -30 65 -86 65c-63 0 -95 -27 -118 -101h-66c27 119 93 174 202 174
c89 0 142 -43 142 -115c0 -10 -1 -21 -3 -31l-54 -312c0 -11 6 -20 19 -20c6 0 13 1 26 4zM306 181l15 86c-17 -14 -39 -19 -125 -33c-76 -13 -109 -47 -109 -113c0 -41 22 -63 63 -63c73 0 144 56 156 123zM403 585h-65l-38 93l-70 -93h-65l106 141h76z" />
    <glyph glyph-name="atilde" unicode="&#xe3;" 
d="M406 64l-12 -64l-9 -3c-16 -6 -23 -7 -34 -7c-40 0 -62 20 -62 56c0 5 1 15 2 24c-57 -60 -106 -85 -167 -85c-71 0 -114 44 -114 116c0 105 65 185 162 199l122 18c32 5 50 35 50 82c0 42 -30 65 -86 65c-63 0 -95 -27 -118 -101h-66c27 119 93 174 202 174
c89 0 142 -43 142 -115c0 -10 -1 -21 -3 -31l-54 -312c0 -11 6 -20 19 -20c6 0 13 1 26 4zM306 181l15 86c-17 -14 -39 -19 -125 -33c-76 -13 -109 -47 -109 -113c0 -41 22 -63 63 -63c73 0 144 56 156 123zM445 713c-22 -71 -57 -109 -102 -109c-12 0 -25 4 -45 13l-20 9
c-23 10 -37 15 -47 15c-20 0 -33 -12 -47 -44h-39c23 74 55 107 104 107c16 0 34 -5 53 -15l17 -9c15 -8 29 -13 38 -13c22 0 35 13 47 46h41z" />
    <glyph glyph-name="adieresis" unicode="&#xe4;" 
d="M406 64l-12 -64l-9 -3c-16 -6 -23 -7 -34 -7c-40 0 -62 20 -62 56c0 5 1 15 2 24c-57 -60 -106 -85 -167 -85c-71 0 -114 44 -114 116c0 105 65 185 162 199l122 18c32 5 50 35 50 82c0 42 -30 65 -86 65c-63 0 -95 -27 -118 -101h-66c27 119 93 174 202 174
c89 0 142 -43 142 -115c0 -10 -1 -21 -3 -31l-54 -312c0 -11 6 -20 19 -20c6 0 13 1 26 4zM306 181l15 86c-17 -14 -39 -19 -125 -33c-76 -13 -109 -47 -109 -113c0 -41 22 -63 63 -63c73 0 144 56 156 123zM251 607h-88l17 96h88zM412 607h-88l17 96h88z" />
    <glyph glyph-name="aring" unicode="&#xe5;" 
d="M406 64l-12 -64l-9 -3c-16 -6 -23 -7 -34 -7c-40 0 -62 20 -62 56c0 5 1 15 2 24c-57 -60 -106 -85 -167 -85c-71 0 -114 44 -114 116c0 105 65 185 162 199l122 18c32 5 50 35 50 82c0 42 -30 65 -86 65c-63 0 -95 -27 -118 -101h-66c27 119 93 174 202 174
c89 0 142 -43 142 -115c0 -10 -1 -21 -3 -31l-54 -312c0 -11 6 -20 19 -20c6 0 13 1 26 4zM306 181l15 86c-17 -14 -39 -19 -125 -33c-76 -13 -109 -47 -109 -113c0 -41 22 -63 63 -63c73 0 144 56 156 123zM397 654c-8 -47 -57 -82 -116 -82c-58 0 -95 35 -86 84
c8 47 58 82 115 82c59 0 95 -35 87 -84zM353 654c5 27 -17 48 -49 48c-31 0 -61 -21 -65 -46c-5 -27 17 -48 49 -48s61 21 65 46z" />
    <glyph glyph-name="ae" unicode="&#xe6;" horiz-adv-x="729" 
d="M695 233h-313c-4 -25 -6 -47 -6 -62c0 -68 37 -110 97 -110c59 0 114 43 132 103h72c-38 -113 -119 -179 -220 -179c-78 0 -119 31 -142 109c-60 -78 -114 -109 -188 -109c-73 0 -117 43 -117 116c0 105 65 185 162 199l122 18c32 5 50 35 50 82c0 42 -30 65 -86 65
c-63 0 -95 -28 -118 -101h-66c28 123 95 174 208 174c63 0 92 -17 126 -74c56 56 93 74 153 74c104 0 145 -86 145 -184c0 -31 -4 -72 -11 -121zM633 303c1 18 2 34 2 47c0 67 -35 109 -91 109c-69 0 -130 -63 -150 -156h239zM306 181l15 86c-17 -15 -39 -19 -125 -33
c-76 -12 -109 -48 -109 -112c0 -42 22 -64 63 -64c73 0 144 56 156 123z" />
    <glyph glyph-name="ccedilla" unicode="&#xe7;" horiz-adv-x="410" 
d="M384 185c-36 -118 -95 -184 -177 -197l-30 -46h8c35 0 56 -27 56 -63c0 -61 -50 -109 -114 -109c-25 0 -46 6 -75 22l21 40c21 -11 33 -15 49 -15c33 0 55 20 55 50c0 18 -14 33 -33 33c-7 0 -16 1 -33 -5l-11 19l56 72c-84 9 -135 77 -135 186c0 190 108 366 262 366
c81 0 131 -56 131 -148c0 -11 -1 -26 -2 -43h-70c-2 81 -24 112 -82 112c-97 0 -161 -136 -161 -279c0 -77 31 -119 88 -119c55 0 97 41 127 124h70z" />
    <glyph glyph-name="egrave" unicode="&#xe8;" 
d="M423 233h-313c-4 -25 -6 -46 -6 -62c0 -68 37 -110 98 -110c58 0 113 43 131 103h72c-38 -113 -119 -179 -219 -179s-157 68 -157 187c0 190 108 366 260 366c105 0 145 -86 145 -184c0 -31 -4 -72 -11 -121zM361 303c1 18 2 34 2 47c0 67 -35 109 -91 109
c-69 0 -129 -63 -150 -156h239zM318 584h-55l-83 141h99z" />
    <glyph glyph-name="eacute" unicode="&#xe9;" 
d="M423 233h-313c-4 -25 -6 -46 -6 -62c0 -68 37 -110 98 -110c58 0 113 43 131 103h72c-38 -113 -119 -179 -219 -179s-157 68 -157 187c0 190 108 366 260 366c105 0 145 -86 145 -184c0 -31 -4 -72 -11 -121zM361 303c1 18 2 34 2 47c0 67 -35 109 -91 109
c-69 0 -129 -63 -150 -156h239zM449 725l-132 -141h-55l88 141h99z" />
    <glyph glyph-name="ecircumflex" unicode="&#xea;" 
d="M423 233h-313c-4 -25 -6 -46 -6 -62c0 -68 37 -110 98 -110c58 0 113 43 131 103h72c-38 -113 -119 -179 -219 -179s-157 68 -157 187c0 190 108 366 260 366c105 0 145 -86 145 -184c0 -31 -4 -72 -11 -121zM361 303c1 18 2 34 2 47c0 67 -35 109 -91 109
c-69 0 -129 -63 -150 -156h239zM409 585h-65l-38 93l-70 -93h-65l106 141h76z" />
    <glyph glyph-name="edieresis" unicode="&#xeb;" 
d="M423 233h-313c-4 -25 -6 -46 -6 -62c0 -68 37 -110 98 -110c58 0 113 43 131 103h72c-38 -113 -119 -179 -219 -179s-157 68 -157 187c0 190 108 366 260 366c105 0 145 -86 145 -184c0 -31 -4 -72 -11 -121zM361 303c1 18 2 34 2 47c0 67 -35 109 -91 109
c-69 0 -129 -63 -150 -156h239zM257 607h-88l17 96h88zM418 607h-88l17 96h88z" />
    <glyph glyph-name="igrave" unicode="&#xec;" horiz-adv-x="228" 
d="M110 0h-72l91 523h72zM212 584h-55l-83 141h99z" />
    <glyph glyph-name="iacute" unicode="&#xed;" horiz-adv-x="228" 
d="M110 0h-72l91 523h72zM327 725l-132 -141h-55l88 141h99z" />
    <glyph glyph-name="icircumflex" unicode="&#xee;" horiz-adv-x="228" 
d="M110 0h-72l91 523h72zM295 585h-65l-38 93l-70 -93h-65l106 141h76z" />
    <glyph glyph-name="idieresis" unicode="&#xef;" horiz-adv-x="228" 
d="M110 0h-72l91 523h72zM143 607h-88l17 96h88zM304 607h-88l17 96h88z" />
    <glyph glyph-name="eth" unicode="&#xf0;" 
d="M448 389c0 -214 -115 -404 -260 -404c-99 0 -161 77 -161 199c0 167 109 339 243 339c46 0 72 -16 100 -60c-9 58 -29 102 -67 149l-113 -62l-27 42l107 57c-20 22 -39 38 -64 52l67 36c29 -16 45 -28 66 -51l95 51l32 -40l-97 -51c58 -90 79 -159 79 -257zM362 308
c0 90 -34 139 -96 139c-92 0 -163 -129 -163 -247c0 -90 34 -139 96 -139c91 0 163 129 163 247z" />
    <glyph glyph-name="ntilde" unicode="&#xf1;" 
d="M363 0h-72l56 322c3 20 5 40 5 60c0 51 -23 77 -69 77c-73 0 -129 -66 -148 -174l-50 -285h-72l91 523h68l-13 -77c50 65 94 92 153 92c74 0 118 -48 118 -128c0 -17 -2 -35 -5 -54zM451 713c-22 -71 -57 -109 -102 -109c-12 0 -25 4 -45 13l-20 9c-23 10 -37 15 -47 15
c-20 0 -33 -12 -47 -44h-39c23 74 55 107 104 107c16 0 34 -5 53 -15l17 -9c15 -8 29 -13 38 -13c22 0 35 13 47 46h41z" />
    <glyph glyph-name="ograve" unicode="&#xf2;" 
d="M439 336c0 -177 -110 -350 -254 -350c-98 0 -157 76 -157 203c0 177 111 349 254 349c98 0 157 -76 157 -202zM364 325c0 88 -34 137 -96 137c-95 0 -165 -132 -165 -264c0 -88 34 -136 96 -136c95 0 165 133 165 263zM318 584h-55l-83 141h99z" />
    <glyph glyph-name="oacute" unicode="&#xf3;" 
d="M439 336c0 -177 -110 -350 -254 -350c-98 0 -157 76 -157 203c0 177 111 349 254 349c98 0 157 -76 157 -202zM364 325c0 88 -34 137 -96 137c-95 0 -165 -132 -165 -264c0 -88 34 -136 96 -136c95 0 165 133 165 263zM449 725l-132 -141h-55l88 141h99z" />
    <glyph glyph-name="ocircumflex" unicode="&#xf4;" 
d="M439 336c0 -177 -110 -350 -254 -350c-98 0 -157 76 -157 203c0 177 111 349 254 349c98 0 157 -76 157 -202zM364 325c0 88 -34 137 -96 137c-95 0 -165 -132 -165 -264c0 -88 34 -136 96 -136c95 0 165 133 165 263zM409 585h-65l-38 93l-70 -93h-65l106 141h76z" />
    <glyph glyph-name="otilde" unicode="&#xf5;" 
d="M439 336c0 -177 -110 -350 -254 -350c-98 0 -157 76 -157 203c0 177 111 349 254 349c98 0 157 -76 157 -202zM364 325c0 88 -34 137 -96 137c-95 0 -165 -132 -165 -264c0 -88 34 -136 96 -136c95 0 165 133 165 263zM451 713c-22 -71 -57 -109 -102 -109
c-12 0 -25 4 -45 13l-20 9c-23 10 -37 15 -47 15c-20 0 -33 -12 -47 -44h-39c23 74 55 107 104 107c16 0 34 -5 53 -15l17 -9c15 -8 29 -13 38 -13c22 0 35 13 47 46h41z" />
    <glyph glyph-name="odieresis" unicode="&#xf6;" 
d="M439 336c0 -177 -110 -350 -254 -350c-98 0 -157 76 -157 203c0 177 111 349 254 349c98 0 157 -76 157 -202zM364 325c0 88 -34 137 -96 137c-95 0 -165 -132 -165 -264c0 -88 34 -136 96 -136c95 0 165 133 165 263zM257 607h-88l17 96h88zM418 607h-88l17 96h88z" />
    <glyph glyph-name="divide" unicode="&#xf7;" horiz-adv-x="479" 
d="M430 221h-369v58h369v-58zM289 430c0 -24 -20 -43 -43 -43c-24 0 -43 19 -43 43c0 23 19 43 43 43c23 0 43 -20 43 -43zM289 71c0 -24 -20 -43 -43 -43c-24 0 -43 19 -43 43c0 23 19 43 43 43c23 0 43 -20 43 -43z" />
    <glyph glyph-name="oslash" unicode="&#xf8;" horiz-adv-x="501" 
d="M491 519l-70 -78c14 -40 19 -65 19 -106c0 -177 -111 -349 -255 -349c-52 0 -88 18 -119 60l-61 -68l-21 26l65 72c-16 42 -21 69 -21 113c0 176 111 349 255 349c54 0 90 -19 122 -65l65 72zM349 410c-19 37 -43 52 -80 52c-88 0 -165 -119 -165 -265c0 -19 1 -30 5 -54
zM365 326c0 15 -1 25 -5 47l-238 -265c17 -32 41 -46 77 -46c87 0 166 118 166 264z" />
    <glyph glyph-name="ugrave" unicode="&#xf9;" 
d="M361 0h-68l14 81c-51 -72 -89 -96 -152 -96c-75 0 -118 43 -118 118c0 15 1 29 4 44l65 376h73l-61 -347c-2 -13 -3 -23 -3 -40c0 -49 23 -75 67 -75c72 0 129 67 148 174l50 288h72zM318 584h-55l-83 141h99z" />
    <glyph glyph-name="uacute" unicode="&#xfa;" 
d="M361 0h-68l14 81c-51 -72 -89 -96 -152 -96c-75 0 -118 43 -118 118c0 15 1 29 4 44l65 376h73l-61 -347c-2 -13 -3 -23 -3 -40c0 -49 23 -75 67 -75c72 0 129 67 148 174l50 288h72zM449 725l-132 -141h-55l88 141h99z" />
    <glyph glyph-name="ucircumflex" unicode="&#xfb;" 
d="M361 0h-68l14 81c-51 -72 -89 -96 -152 -96c-75 0 -118 43 -118 118c0 15 1 29 4 44l65 376h73l-61 -347c-2 -13 -3 -23 -3 -40c0 -49 23 -75 67 -75c72 0 129 67 148 174l50 288h72zM409 585h-65l-38 93l-70 -93h-65l106 141h76z" />
    <glyph glyph-name="udieresis" unicode="&#xfc;" 
d="M361 0h-68l14 81c-51 -72 -89 -96 -152 -96c-75 0 -118 43 -118 118c0 15 1 29 4 44l65 376h73l-61 -347c-2 -13 -3 -23 -3 -40c0 -49 23 -75 67 -75c72 0 129 67 148 174l50 288h72zM257 607h-88l17 96h88zM418 607h-88l17 96h88z" />
    <glyph glyph-name="yacute" unicode="&#xfd;" horiz-adv-x="410" 
d="M452 523l-244 -513c-100 -205 -117 -224 -201 -224c-12 0 -16 1 -29 6l-6 2l14 80c14 -6 27 -9 42 -9c31 0 43 14 70 67l27 54l-65 537h82l40 -429l190 429h80zM426 725l-132 -141h-55l88 141h99z" />
    <glyph glyph-name="thorn" unicode="&#xfe;" 
d="M439 355c0 -179 -101 -370 -245 -370c-53 0 -85 22 -104 73l-47 -265h-72l161 925h73l-47 -270c46 65 85 90 142 90c86 0 139 -69 139 -183zM364 348c0 71 -32 111 -91 111c-107 0 -160 -164 -160 -281c0 -71 36 -117 92 -117c91 0 159 137 159 287z" />
    <glyph glyph-name="ydieresis" unicode="&#xff;" horiz-adv-x="410" 
d="M452 523l-244 -513c-100 -205 -117 -224 -201 -224c-12 0 -16 1 -29 6l-6 2l14 80c14 -6 27 -9 42 -9c31 0 43 14 70 67l27 54l-65 537h82l40 -429l190 429h80zM234 607h-88l17 96h88zM395 607h-88l17 96h88z" />
    <glyph glyph-name="Amacron" unicode="&#x100;" horiz-adv-x="547" 
d="M496 0h-87l-22 209h-236l-98 -209h-82l347 718h90zM374 295l-33 319l-150 -319h183zM518 869l-10 -57h-257l10 57h257z" />
    <glyph glyph-name="amacron" unicode="&#x101;" 
d="M406 64l-12 -64l-9 -3c-16 -6 -23 -7 -34 -7c-40 0 -62 20 -62 56c0 5 1 15 2 24c-57 -60 -106 -85 -167 -85c-71 0 -114 44 -114 116c0 105 65 185 162 199l122 18c32 5 50 35 50 82c0 42 -30 65 -86 65c-63 0 -95 -27 -118 -101h-66c27 119 93 174 202 174
c89 0 142 -43 142 -115c0 -10 -1 -21 -3 -31l-54 -312c0 -11 6 -20 19 -20c6 0 13 1 26 4zM306 181l15 86c-17 -14 -39 -19 -125 -33c-76 -13 -109 -47 -109 -113c0 -41 22 -63 63 -63c73 0 144 56 156 123zM429 684l-10 -57h-257l10 57h257z" />
    <glyph glyph-name="Abreve" unicode="&#x102;" horiz-adv-x="547" 
d="M496 0h-87l-22 209h-236l-98 -209h-82l347 718h90zM374 295l-33 319l-150 -319h183zM530 898c-35 -74 -81 -116 -159 -116c-75 0 -106 42 -113 116h40l1 -7c18 -30 40 -52 87 -52c49 0 73 20 95 59h49z" />
    <glyph glyph-name="abreve" unicode="&#x103;" 
d="M406 64l-12 -64l-9 -3c-16 -6 -23 -7 -34 -7c-40 0 -62 20 -62 56c0 5 1 15 2 24c-57 -60 -106 -85 -167 -85c-71 0 -114 44 -114 116c0 105 65 185 162 199l122 18c32 5 50 35 50 82c0 42 -30 65 -86 65c-63 0 -95 -27 -118 -101h-66c27 119 93 174 202 174
c89 0 142 -43 142 -115c0 -10 -1 -21 -3 -31l-54 -312c0 -11 6 -20 19 -20c6 0 13 1 26 4zM306 181l15 86c-17 -14 -39 -19 -125 -33c-76 -13 -109 -47 -109 -113c0 -41 22 -63 63 -63c73 0 144 56 156 123zM435 723c-29 -96 -77 -136 -153 -136c-64 0 -104 37 -101 107
l1 29h40c5 -55 26 -79 75 -79s74 21 99 79h39z" />
    <glyph glyph-name="Aogonek" unicode="&#x104;" horiz-adv-x="547" 
d="M456 -230h-35c-58 0 -108 31 -108 82c0 29 7 54 22 78c18 29 44 54 74 70l-22 209h-236l-98 -209h-82l347 718h90l88 -718c-34 -9 -65 -31 -87 -61c-13 -18 -19 -35 -19 -54c0 -28 14 -42 46 -42h31zM374 295l-33 319l-150 -319h183z" />
    <glyph glyph-name="aogonek" unicode="&#x105;" 
d="M355 -230h-35c-58 0 -108 31 -108 82c0 29 7 54 21 78c18 29 43 55 72 75c-10 9 -16 23 -16 41c0 5 1 15 2 24c-57 -60 -106 -85 -167 -85c-71 0 -114 44 -114 116c0 105 65 185 162 199l122 18c32 5 50 35 50 82c0 42 -30 65 -86 65c-63 0 -95 -27 -118 -101h-66
c27 119 93 174 202 174c89 0 142 -43 142 -115c0 -10 -1 -21 -3 -31l-54 -312c0 -11 6 -20 19 -20c6 0 13 1 26 4l-12 -64l-9 -3c-30 -11 -58 -31 -77 -58c-13 -18 -19 -35 -19 -54c0 -28 14 -42 46 -42h31zM306 181l15 86c-17 -14 -39 -19 -125 -33
c-76 -13 -109 -47 -109 -113c0 -41 22 -63 63 -63c73 0 144 56 156 123z" />
    <glyph glyph-name="Cacute" unicode="&#x106;" horiz-adv-x="592" 
d="M564 264c-41 -115 -71 -165 -124 -211c-54 -47 -118 -72 -183 -72c-131 0 -209 98 -209 261c0 271 150 495 351 495c123 0 201 -81 201 -209c0 -7 0 -15 -1 -26h-77c-4 106 -55 149 -137 149c-145 0 -254 -174 -254 -396c0 -121 52 -188 148 -188c88 0 155 54 208 197h77
zM561 900l-128 -121h-55l84 121h99z" />
    <glyph glyph-name="cacute" unicode="&#x107;" horiz-adv-x="410" 
d="M384 185c-41 -133 -111 -200 -210 -200c-95 0 -153 70 -153 187c0 190 108 366 262 366c81 0 131 -56 131 -148c0 -11 -1 -26 -2 -43h-70c-2 81 -24 112 -82 112c-97 0 -161 -136 -161 -279c0 -77 31 -119 88 -119c55 0 97 41 127 124h70zM426 725l-132 -141h-55l88 141
h99z" />
    <glyph glyph-name="Ccircumflex" unicode="&#x108;" horiz-adv-x="592" 
d="M564 264c-41 -115 -71 -165 -124 -211c-54 -47 -118 -72 -183 -72c-131 0 -209 98 -209 261c0 271 150 495 351 495c123 0 201 -81 201 -209c0 -7 0 -15 -1 -26h-77c-4 106 -55 149 -137 149c-145 0 -254 -174 -254 -396c0 -121 52 -188 148 -188c88 0 155 54 208 197h77
zM540 780h-66l-56 73l-82 -73h-65l117 121h77z" />
    <glyph glyph-name="ccircumflex" unicode="&#x109;" horiz-adv-x="410" 
d="M384 185c-41 -133 -111 -200 -210 -200c-95 0 -153 70 -153 187c0 190 108 366 262 366c81 0 131 -56 131 -148c0 -11 -1 -26 -2 -43h-70c-2 81 -24 112 -82 112c-97 0 -161 -136 -161 -279c0 -77 31 -119 88 -119c55 0 97 41 127 124h70zM386 585h-65l-38 93l-70 -93
h-65l106 141h76z" />
    <glyph glyph-name="Cdotaccent" unicode="&#x10a;" horiz-adv-x="592" 
d="M564 264c-41 -115 -71 -165 -124 -211c-54 -47 -118 -72 -183 -72c-131 0 -209 98 -209 261c0 271 150 495 351 495c123 0 201 -81 201 -209c0 -7 0 -15 -1 -26h-77c-4 106 -55 149 -137 149c-145 0 -254 -174 -254 -396c0 -121 52 -188 148 -188c88 0 155 54 208 197h77
zM452 792h-86l17 96h86z" />
    <glyph glyph-name="cdotaccent" unicode="&#x10b;" horiz-adv-x="410" 
d="M384 185c-41 -133 -111 -200 -210 -200c-95 0 -153 70 -153 187c0 190 108 366 262 366c81 0 131 -56 131 -148c0 -11 -1 -26 -2 -43h-70c-2 81 -24 112 -82 112c-97 0 -161 -136 -161 -279c0 -77 31 -119 88 -119c55 0 97 41 127 124h70zM314 607h-86l17 96h86z" />
    <glyph glyph-name="Ccaron" unicode="&#x10c;" horiz-adv-x="592" 
d="M564 264c-41 -115 -71 -165 -124 -211c-54 -47 -118 -72 -183 -72c-131 0 -209 98 -209 261c0 271 150 495 351 495c123 0 201 -81 201 -209c0 -7 0 -15 -1 -26h-77c-4 106 -55 149 -137 149c-145 0 -254 -174 -254 -396c0 -121 52 -188 148 -188c88 0 155 54 208 197h77
zM562 901l-117 -121h-77l-75 121h66l56 -73l82 73h65z" />
    <glyph glyph-name="ccaron" unicode="&#x10d;" horiz-adv-x="410" 
d="M384 185c-41 -133 -111 -200 -210 -200c-95 0 -153 70 -153 187c0 190 108 366 262 366c81 0 131 -56 131 -148c0 -11 -1 -26 -2 -43h-70c-2 81 -24 112 -82 112c-97 0 -161 -136 -161 -279c0 -77 31 -119 88 -119c55 0 97 41 127 124h70zM410 726l-106 -141h-76l-56 141
h65l38 -93l70 93h65z" />
    <glyph glyph-name="Dcaron" unicode="&#x10e;" horiz-adv-x="592" 
d="M586 472c0 -238 -134 -472 -324 -472h-236l125 718h239c123 0 196 -92 196 -246zM503 461c0 112 -49 174 -138 174h-149l-96 -552h154c133 0 229 177 229 378zM546 901l-117 -121h-77l-75 121h66l56 -73l82 73h65z" />
    <glyph glyph-name="dcaron" unicode="&#x10f;" 
d="M369 0h-68l13 75c-43 -65 -82 -90 -140 -90c-93 0 -145 72 -145 200c0 196 102 353 231 353c58 0 92 -27 114 -94l48 274h72zM347 334c0 83 -29 125 -88 125c-106 0 -156 -140 -156 -273c0 -79 31 -125 85 -125c89 0 159 108 159 273zM610 624
c-14 -80 -51 -128 -100 -132l7 39c28 3 46 32 54 86h-40l18 101h77z" />
    <glyph glyph-name="Dcroat" unicode="&#x110;" horiz-adv-x="592" 
d="M586 470c0 -95 -28 -203 -73 -292c-60 -117 -146 -178 -251 -178h-235l56 326h-66l15 86h66l54 306h238c123 0 196 -93 196 -248zM502 461c0 112 -48 174 -137 174h-148l-39 -223h157l-15 -86h-157l-42 -243h154c131 0 227 177 227 378z" />
    <glyph glyph-name="dcroat" unicode="&#x111;" horiz-adv-x="481" 
d="M554 649l-10 -57h-72l-103 -592h-68l13 75c-43 -65 -82 -90 -140 -90c-93 0 -145 72 -145 200c0 196 102 353 231 353c58 0 92 -27 114 -94l26 148h-113l10 57h113l12 69h72l-12 -69h72zM347 334c0 83 -29 125 -88 125c-106 0 -156 -140 -156 -273c0 -79 31 -125 85 -125
c89 0 159 108 159 273z" />
    <glyph glyph-name="Emacron" unicode="&#x112;" horiz-adv-x="547" 
d="M466 0h-435l125 718h429l-15 -86h-349l-39 -220h323l-15 -86h-323l-41 -240h355zM525 869l-10 -57h-257l10 57h257z" />
    <glyph glyph-name="emacron" unicode="&#x113;" 
d="M423 233h-313c-4 -25 -6 -46 -6 -62c0 -68 37 -110 98 -110c58 0 113 43 131 103h72c-38 -113 -119 -179 -219 -179s-157 68 -157 187c0 190 108 366 260 366c105 0 145 -86 145 -184c0 -31 -4 -72 -11 -121zM361 303c1 18 2 34 2 47c0 67 -35 109 -91 109
c-69 0 -129 -63 -150 -156h239zM435 684l-10 -57h-257l10 57h257z" />
    <glyph glyph-name="Ebreve" unicode="&#x114;" horiz-adv-x="547" 
d="M466 0h-435l125 718h429l-15 -86h-349l-39 -220h323l-15 -86h-323l-41 -240h355zM537 898c-35 -74 -81 -116 -159 -116c-75 0 -106 42 -113 116h40l1 -7c18 -30 40 -52 87 -52c49 0 73 20 95 59h49z" />
    <glyph glyph-name="ebreve" unicode="&#x115;" 
d="M423 233h-313c-4 -25 -6 -46 -6 -62c0 -68 37 -110 98 -110c58 0 113 43 131 103h72c-38 -113 -119 -179 -219 -179s-157 68 -157 187c0 190 108 366 260 366c105 0 145 -86 145 -184c0 -31 -4 -72 -11 -121zM361 303c1 18 2 34 2 47c0 67 -35 109 -91 109
c-69 0 -129 -63 -150 -156h239zM441 723c-29 -96 -77 -136 -153 -136c-64 0 -104 37 -101 107l1 29h40c5 -55 26 -79 75 -79s74 21 99 79h39z" />
    <glyph glyph-name="Edotaccent" unicode="&#x116;" horiz-adv-x="547" 
d="M466 0h-435l125 718h429l-15 -86h-349l-39 -220h323l-15 -86h-323l-41 -240h355zM427 792h-86l17 96h86z" />
    <glyph glyph-name="edotaccent" unicode="&#x117;" 
d="M423 233h-313c-4 -25 -6 -46 -6 -62c0 -68 37 -110 98 -110c58 0 113 43 131 103h72c-38 -113 -119 -179 -219 -179s-157 68 -157 187c0 190 108 366 260 366c105 0 145 -86 145 -184c0 -31 -4 -72 -11 -121zM361 303c1 18 2 34 2 47c0 67 -35 109 -91 109
c-69 0 -129 -63 -150 -156h239zM337 607h-86l17 96h86z" />
    <glyph glyph-name="Eogonek" unicode="&#x118;" horiz-adv-x="547" 
d="M426 -230h-35c-58 0 -108 31 -108 82c0 58 29 100 87 148h-339l125 718h429l-15 -86h-349l-39 -220h323l-15 -86h-323l-41 -240h355l-15 -86c-34 -9 -65 -31 -87 -61c-13 -18 -19 -35 -19 -54c0 -28 14 -42 46 -42h31z" />
    <glyph glyph-name="eogonek" unicode="&#x119;" 
d="M423 233h-313c-4 -25 -6 -46 -6 -62c0 -68 37 -110 98 -110c58 0 113 43 131 103h72c-21 -62 -55 -110 -98 -141c-34 -24 -66 -50 -91 -84c-13 -18 -19 -35 -19 -54c0 -28 14 -42 46 -42h31l-11 -73h-35c-58 0 -108 31 -108 82c0 52 23 91 70 133h-4
c-100 0 -157 68 -157 187c0 190 108 366 260 366c105 0 145 -86 145 -184c0 -31 -4 -72 -11 -121zM361 303c1 18 2 34 2 47c0 67 -35 109 -91 109c-69 0 -129 -63 -150 -156h239z" />
    <glyph glyph-name="Ecaron" unicode="&#x11a;" horiz-adv-x="547" 
d="M466 0h-435l125 718h429l-15 -86h-349l-39 -220h323l-15 -86h-323l-41 -240h355zM537 901l-117 -121h-77l-75 121h66l56 -73l82 73h65z" />
    <glyph glyph-name="ecaron" unicode="&#x11b;" 
d="M423 233h-313c-4 -25 -6 -46 -6 -62c0 -68 37 -110 98 -110c58 0 113 43 131 103h72c-38 -113 -119 -179 -219 -179s-157 68 -157 187c0 190 108 366 260 366c105 0 145 -86 145 -184c0 -31 -4 -72 -11 -121zM361 303c1 18 2 34 2 47c0 67 -35 109 -91 109
c-69 0 -129 -63 -150 -156h239zM433 726l-106 -141h-76l-56 141h65l38 -93l70 93h65z" />
    <glyph glyph-name="Gcircumflex" unicode="&#x11c;" horiz-adv-x="638" 
d="M538 0h-52l-3 93c-65 -77 -133 -112 -218 -112c-145 0 -214 127 -214 265c0 259 161 491 354 491c125 0 210 -86 210 -213v-24h-77c-8 107 -61 151 -146 151c-144 0 -257 -175 -257 -399c0 -124 53 -188 156 -188s193 70 224 237h-183l14 83h258zM546 780h-66l-56 73
l-82 -73h-65l117 121h77z" />
    <glyph glyph-name="gcircumflex" unicode="&#x11d;" 
d="M460 523l-84 -480c-31 -184 -112 -263 -243 -263c-91 0 -139 42 -139 146v10h72c3 -58 27 -83 82 -83c83 0 131 42 155 184l4 21c-38 -51 -77 -73 -131 -73c-91 0 -144 73 -144 199c0 197 103 354 231 354c58 0 88 -24 115 -92l14 77h68zM351 334c0 83 -30 125 -89 125
c-105 0 -156 -138 -156 -274c0 -78 32 -124 86 -124c89 0 159 107 159 273zM409 585h-65l-38 93l-70 -93h-65l106 141h76z" />
    <glyph glyph-name="Gbreve" unicode="&#x11e;" horiz-adv-x="638" 
d="M538 0h-52l-3 93c-65 -77 -133 -112 -218 -112c-145 0 -214 127 -214 265c0 259 161 491 354 491c125 0 210 -86 210 -213v-24h-77c-8 107 -61 151 -146 151c-144 0 -257 -175 -257 -399c0 -124 53 -188 156 -188s193 70 224 237h-183l14 83h258zM568 898
c-35 -74 -81 -116 -159 -116c-75 0 -106 42 -113 116h40l1 -7c18 -30 40 -52 87 -52c49 0 73 20 95 59h49z" />
    <glyph glyph-name="gbreve" unicode="&#x11f;" 
d="M460 523l-84 -480c-31 -184 -112 -263 -243 -263c-91 0 -139 42 -139 146v10h72c3 -58 27 -83 82 -83c83 0 131 42 155 184l4 21c-38 -51 -77 -73 -131 -73c-91 0 -144 73 -144 199c0 197 103 354 231 354c58 0 88 -24 115 -92l14 77h68zM351 334c0 83 -30 125 -89 125
c-105 0 -156 -138 -156 -274c0 -78 32 -124 86 -124c89 0 159 107 159 273zM441 723c-29 -96 -77 -136 -153 -136c-64 0 -104 37 -101 107l1 29h40c5 -55 26 -79 75 -79s74 21 99 79h39z" />
    <glyph glyph-name="Gdotaccent" unicode="&#x120;" horiz-adv-x="638" 
d="M538 0h-52l-3 93c-65 -77 -133 -112 -218 -112c-145 0 -214 127 -214 265c0 259 161 491 354 491c125 0 210 -86 210 -213v-24h-77c-8 107 -61 151 -146 151c-144 0 -257 -175 -257 -399c0 -124 53 -188 156 -188s193 70 224 237h-183l14 83h258zM458 792h-86l17 96h86z
" />
    <glyph glyph-name="gdotaccent" unicode="&#x121;" 
d="M460 523l-84 -480c-31 -184 -112 -263 -243 -263c-91 0 -139 42 -139 146v10h72c3 -58 27 -83 82 -83c83 0 131 42 155 184l4 21c-38 -51 -77 -73 -131 -73c-91 0 -144 73 -144 199c0 197 103 354 231 354c58 0 88 -24 115 -92l14 77h68zM351 334c0 83 -30 125 -89 125
c-105 0 -156 -138 -156 -274c0 -78 32 -124 86 -124c89 0 159 107 159 273zM337 607h-86l17 96h86z" />
    <glyph glyph-name="Gcommaaccent" unicode="&#x122;" horiz-adv-x="638" 
d="M538 0h-52l-3 93c-65 -77 -133 -112 -218 -112c-145 0 -214 127 -214 265c0 259 161 491 354 491c125 0 210 -86 210 -213v-24h-77c-8 107 -61 151 -146 151c-144 0 -257 -175 -257 -399c0 -124 53 -188 156 -188s193 70 224 237h-183l14 83h258zM290 -154
c-14 -80 -51 -128 -100 -132l7 39c28 3 46 32 54 86h-40l18 101h77z" />
    <glyph glyph-name="gcommaaccent" unicode="&#x123;" 
d="M344 671l-18 -101h-77l16 94c14 80 51 128 100 132l-7 -39c-28 -3 -46 -32 -54 -86h40zM460 523l-84 -480c-31 -184 -112 -263 -243 -263c-91 0 -139 42 -139 146v10h72c3 -58 27 -83 82 -83c83 0 131 42 155 184l4 21c-38 -51 -77 -73 -131 -73c-91 0 -144 73 -144 199
c0 197 103 354 231 354c58 0 88 -24 115 -92l14 77h68zM351 334c0 83 -30 125 -89 125c-105 0 -156 -138 -156 -274c0 -78 32 -124 86 -124c89 0 159 107 159 273z" />
    <glyph glyph-name="Hcircumflex" unicode="&#x124;" horiz-adv-x="592" 
d="M490 0h-80l59 335h-308l-58 -335h-80l125 718h80l-52 -297h308l51 297h80zM526 780h-66l-56 73l-82 -73h-65l117 121h77z" />
    <glyph glyph-name="hcircumflex" unicode="&#x125;" 
d="M363 0h-72l59 342c3 16 5 36 5 48c0 47 -22 69 -68 69c-77 0 -133 -63 -152 -174l-50 -285h-72l125 718h73l-47 -267c53 65 90 87 147 87c75 0 119 -47 119 -128c0 -17 -2 -35 -5 -54zM458 780h-66l-56 73l-82 -73h-65l117 121h77z" />
    <glyph glyph-name="Hbar" unicode="&#x126;" horiz-adv-x="592" 
d="M626 552h-40l-96 -552h-80l59 335h-308l-58 -335h-80l96 552h-40l8 45h40l21 121h80l-21 -121h307l21 121h80l-21 -121h40zM484 421l22 131h-307l-23 -131h308z" />
    <glyph glyph-name="hbar" unicode="&#x127;" horiz-adv-x="496" 
d="M401 0h-72l59 342c3 16 5 36 5 48c0 47 -22 69 -68 69c-77 0 -133 -63 -152 -174l-50 -285h-72l90 515l-39 -17l8 50l39 17l27 153h73l-21 -120l111 48l-9 -51l-111 -47l-17 -97c53 65 90 87 147 87c75 0 119 -47 119 -128c0 -17 -2 -35 -5 -54z" />
    <glyph glyph-name="Itilde" unicode="&#x128;" horiz-adv-x="228" 
d="M114 0h-79l125 718h79zM371 898c-22 -71 -57 -109 -102 -109c-12 0 -25 4 -45 13l-20 9c-23 10 -37 15 -47 15c-20 0 -33 -12 -47 -44h-39c23 74 55 107 104 107c16 0 34 -5 53 -15l17 -9c15 -8 29 -13 38 -13c22 0 35 13 47 46h41z" />
    <glyph glyph-name="itilde" unicode="&#x129;" horiz-adv-x="228" 
d="M110 0h-72l91 523h72zM337 713c-22 -71 -57 -109 -102 -109c-12 0 -25 4 -45 13l-20 9c-23 10 -37 15 -47 15c-20 0 -33 -12 -47 -44h-39c23 74 55 107 104 107c16 0 34 -5 53 -15l17 -9c15 -8 29 -13 38 -13c22 0 35 13 47 46h41z" />
    <glyph glyph-name="Imacron" unicode="&#x12a;" horiz-adv-x="228" 
d="M114 0h-79l125 718h79zM354 869l-10 -57h-257l10 57h257z" />
    <glyph glyph-name="imacron" unicode="&#x12b;" horiz-adv-x="228" 
d="M110 0h-72l91 523h72zM321 684l-10 -57h-257l10 57h257z" />
    <glyph glyph-name="Ibreve" unicode="&#x12c;" horiz-adv-x="228" 
d="M114 0h-79l125 718h79zM366 898c-35 -74 -81 -116 -159 -116c-75 0 -106 42 -113 116h40l1 -7c18 -30 40 -52 87 -52c49 0 73 20 95 59h49z" />
    <glyph glyph-name="ibreve" unicode="&#x12d;" horiz-adv-x="228" 
d="M110 0h-72l91 523h72zM327 723c-29 -96 -77 -136 -153 -136c-64 0 -104 37 -101 107l1 29h40c5 -55 26 -79 75 -79s74 21 99 79h39z" />
    <glyph glyph-name="Iogonek" unicode="&#x12e;" horiz-adv-x="228" 
d="M94 -230h-35c-58 0 -108 31 -108 82c0 58 29 100 87 148h-3l125 718h79l-125 -718c-26 -15 -49 -36 -67 -61c-13 -18 -19 -35 -19 -54c0 -28 14 -42 46 -42h31z" />
    <glyph glyph-name="iogonek" unicode="&#x12f;" horiz-adv-x="228" 
d="M90 -230h-35c-58 0 -108 31 -108 82c0 58 36 116 91 148l91 523h72l-91 -523c-26 -15 -49 -36 -67 -61c-13 -18 -19 -35 -19 -54c0 -28 14 -42 46 -42h31zM223 607h-86l17 96h86z" />
    <glyph glyph-name="Idotaccent" unicode="&#x130;" horiz-adv-x="228" 
d="M114 0h-79l125 718h79zM256 792h-86l17 96h86z" />
    <glyph glyph-name="dotlessi" unicode="&#x131;" horiz-adv-x="182" 
d="M87 0h-72l91 523h72z" />
    <glyph glyph-name="Jcircumflex" unicode="&#x134;" horiz-adv-x="410" 
d="M345 194c-24 -136 -99 -213 -207 -213c-89 0 -139 50 -139 139c0 13 1 27 3 40l13 71h74l-8 -50c-2 -14 -5 -27 -4 -42c0 -50 24 -75 72 -75c63 0 100 40 115 124l93 530h79zM541 780h-66l-56 73l-82 -73h-65l117 121h77z" />
    <glyph glyph-name="jcircumflex" unicode="&#x135;" horiz-adv-x="182" 
d="M74 -77c-16 -91 -57 -133 -131 -133c-11 0 -21 1 -32 3l13 76h15c46 0 54 9 64 64l103 590h72zM272 585h-65l-38 93l-70 -93h-65l106 141h76z" />
    <glyph glyph-name="Kcommaaccent" unicode="&#x136;" horiz-adv-x="547" 
d="M503 0h-103l-143 360l-112 -108l-43 -252h-80l125 718h80l-61 -348l346 348h110l-296 -290zM237 -154c-14 -80 -51 -128 -100 -132l7 39c28 3 46 32 54 86h-40l18 101h77z" />
    <glyph glyph-name="kcommaaccent" unicode="&#x137;" horiz-adv-x="410" 
d="M371 0h-93l-87 264l-72 -66l-34 -198h-70l125 718h70l-73 -416l223 221h92l-198 -195zM179 -154c-14 -80 -51 -128 -100 -132l7 39c28 3 46 32 54 86h-40l18 101h77z" />
    <glyph glyph-name="Lacute" unicode="&#x139;" 
d="M400 0h-378l125 718h80l-110 -632h298zM341 900l-128 -121h-55l84 121h99z" />
    <glyph glyph-name="lacute" unicode="&#x13a;" horiz-adv-x="182" 
d="M87 0h-72l125 718h72zM334 900l-128 -121h-55l84 121h99z" />
    <glyph glyph-name="Lcommaaccent" unicode="&#x13b;" 
d="M400 0h-378l125 718h80l-110 -632h298zM225 -154c-14 -80 -51 -128 -100 -132l7 39c28 3 46 32 54 86h-40l18 101h77z" />
    <glyph glyph-name="lcommaaccent" unicode="&#x13c;" horiz-adv-x="182" 
d="M87 0h-72l125 718h72zM65 -154c-14 -80 -51 -128 -100 -132l7 39c28 3 46 32 54 86h-40l18 101h77z" />
    <glyph glyph-name="Lcaron" unicode="&#x13d;" 
d="M400 0h-378l125 718h80l-110 -632h298zM343 624c-14 -80 -51 -128 -100 -132l7 39c28 3 46 32 54 86h-40l18 101h77z" />
    <glyph glyph-name="lcaron" unicode="&#x13e;" horiz-adv-x="182" 
d="M87 0h-72l125 718h72zM328 624c-14 -80 -51 -128 -100 -132l7 39c28 3 46 32 54 86h-40l18 101h77z" />
    <glyph glyph-name="Ldot" unicode="&#x13f;" 
d="M400 0h-378l125 718h80l-110 -632h298zM391 330h-86l16 96h86z" />
    <glyph glyph-name="ldot" unicode="&#x140;" horiz-adv-x="268" 
d="M87 0h-72l125 718h72zM286 330h-86l16 96h86z" />
    <glyph glyph-name="Lslash" unicode="&#x141;" horiz-adv-x="552" 
d="M466 0h-378l43 248l-68 -65l16 89l68 64l66 382h80l-52 -300l180 172l-15 -88l-181 -172l-42 -244h298z" />
    <glyph glyph-name="lslash" unicode="&#x142;" horiz-adv-x="314" 
d="M324 587l-14 -80l-80 -63l-77 -444h-72l67 387l-79 -64l14 79l79 64l44 252h72l-34 -195z" />
    <glyph glyph-name="Nacute" unicode="&#x143;" horiz-adv-x="592" 
d="M490 0h-90l-199 583l-102 -583h-77l125 718h95l194 -583l102 583h77zM547 900l-128 -121h-55l84 121h99z" />
    <glyph glyph-name="nacute" unicode="&#x144;" 
d="M363 0h-72l56 322c3 20 5 40 5 60c0 51 -23 77 -69 77c-73 0 -129 -66 -148 -174l-50 -285h-72l91 523h68l-13 -77c50 65 94 92 153 92c74 0 118 -48 118 -128c0 -17 -2 -35 -5 -54zM449 725l-132 -141h-55l88 141h99z" />
    <glyph glyph-name="Ncommaaccent" unicode="&#x145;" horiz-adv-x="592" 
d="M490 0h-90l-199 583l-102 -583h-77l125 718h95l194 -583l102 583h77zM270 -154c-14 -80 -51 -128 -100 -132l7 39c28 3 46 32 54 86h-40l18 101h77z" />
    <glyph glyph-name="ncommaaccent" unicode="&#x146;" 
d="M363 0h-72l56 322c3 20 5 40 5 60c0 51 -23 77 -69 77c-73 0 -129 -66 -148 -174l-50 -285h-72l91 523h68l-13 -77c50 65 94 92 153 92c74 0 118 -48 118 -128c0 -17 -2 -35 -5 -54zM202 -154c-14 -80 -51 -128 -100 -132l7 39c28 3 46 32 54 86h-40l18 101h77z" />
    <glyph glyph-name="Ncaron" unicode="&#x147;" horiz-adv-x="592" 
d="M490 0h-90l-199 583l-102 -583h-77l125 718h95l194 -583l102 583h77zM548 901l-117 -121h-77l-75 121h66l56 -73l82 73h65z" />
    <glyph glyph-name="ncaron" unicode="&#x148;" 
d="M363 0h-72l56 322c3 20 5 40 5 60c0 51 -23 77 -69 77c-73 0 -129 -66 -148 -174l-50 -285h-72l91 523h68l-13 -77c50 65 94 92 153 92c74 0 118 -48 118 -128c0 -17 -2 -35 -5 -54zM433 726l-106 -141h-76l-56 141h65l38 -93l70 93h65z" />
    <glyph glyph-name="Eng" unicode="&#x14a;" horiz-adv-x="592" 
d="M484 -37c-24 -136 -99 -213 -207 -213c-89 0 -139 50 -139 139c0 13 1 27 3 40h75c0 -6 -1 -13 0 -21c0 -50 24 -75 72 -75c52 0 103 42 112 95l8 48l-207 607l-102 -583h-77l125 718h95l194 -583l102 583h77z" />
    <glyph glyph-name="eng" unicode="&#x14b;" 
d="M350 -77c-16 -91 -57 -133 -131 -133c-11 0 -21 1 -32 3l13 76h15c46 0 54 9 64 64l68 389c3 20 5 40 5 60c0 51 -23 77 -69 77c-73 0 -129 -66 -148 -174l-50 -285h-72l91 523h68l-13 -77c50 65 94 92 153 92c74 0 118 -48 118 -128c0 -17 -2 -35 -5 -54z" />
    <glyph glyph-name="Omacron" unicode="&#x14c;" horiz-adv-x="638" 
d="M637 456c0 -240 -153 -475 -361 -475c-148 0 -230 104 -230 280c0 245 154 476 361 476c146 0 230 -103 230 -281zM554 445c0 128 -61 206 -162 206c-145 0 -263 -169 -263 -377c0 -129 61 -207 161 -207c147 0 264 174 264 378zM558 869l-10 -57h-257l10 57h257z" />
    <glyph glyph-name="omacron" unicode="&#x14d;" 
d="M439 336c0 -177 -110 -350 -254 -350c-98 0 -157 76 -157 203c0 177 111 349 254 349c98 0 157 -76 157 -202zM364 325c0 88 -34 137 -96 137c-95 0 -165 -132 -165 -264c0 -88 34 -136 96 -136c95 0 165 133 165 263zM435 684l-10 -57h-257l10 57h257z" />
    <glyph glyph-name="Obreve" unicode="&#x14e;" horiz-adv-x="638" 
d="M637 456c0 -240 -153 -475 -361 -475c-148 0 -230 104 -230 280c0 245 154 476 361 476c146 0 230 -103 230 -281zM554 445c0 128 -61 206 -162 206c-145 0 -263 -169 -263 -377c0 -129 61 -207 161 -207c147 0 264 174 264 378zM570 898c-35 -74 -81 -116 -159 -116
c-75 0 -106 42 -113 116h40l1 -7c18 -30 40 -52 87 -52c49 0 73 20 95 59h49z" />
    <glyph glyph-name="obreve" unicode="&#x14f;" 
d="M439 336c0 -177 -110 -350 -254 -350c-98 0 -157 76 -157 203c0 177 111 349 254 349c98 0 157 -76 157 -202zM364 325c0 88 -34 137 -96 137c-95 0 -165 -132 -165 -264c0 -88 34 -136 96 -136c95 0 165 133 165 263zM441 723c-29 -96 -77 -136 -153 -136
c-64 0 -104 37 -101 107l1 29h40c5 -55 26 -79 75 -79s74 21 99 79h39z" />
    <glyph glyph-name="Ohungarumlaut" unicode="&#x150;" horiz-adv-x="638" 
d="M637 456c0 -240 -153 -475 -361 -475c-148 0 -230 104 -230 280c0 245 154 476 361 476c146 0 230 -103 230 -281zM554 445c0 128 -61 206 -162 206c-145 0 -263 -169 -263 -377c0 -129 61 -207 161 -207c147 0 264 174 264 378zM500 921l-132 -141h-55l97 141h90z
M647 921l-132 -141h-55l98 141h89z" />
    <glyph glyph-name="ohungarumlaut" unicode="&#x151;" 
d="M439 336c0 -177 -110 -350 -254 -350c-98 0 -157 76 -157 203c0 177 111 349 254 349c98 0 157 -76 157 -202zM364 325c0 88 -34 137 -96 137c-95 0 -165 -132 -165 -264c0 -88 34 -136 96 -136c95 0 165 133 165 263zM376 726l-132 -141h-55l97 141h90zM523 726
l-132 -141h-55l98 141h89z" />
    <glyph glyph-name="OE" unicode="&#x152;" horiz-adv-x="820" 
d="M751 0h-363l13 78c-58 -73 -101 -97 -172 -97c-120 0 -189 92 -189 254c0 253 138 502 328 502c70 0 109 -28 133 -95l13 76h361l-15 -86h-286l-39 -220h274l-15 -86h-274l-42 -240h288zM424 230l45 262c2 13 4 27 4 39c0 76 -45 123 -117 123c-68 0 -126 -42 -166 -121
c-39 -77 -69 -203 -69 -291c0 -118 45 -178 133 -178c84 0 153 66 170 166z" />
    <glyph glyph-name="oe" unicode="&#x153;" horiz-adv-x="774" 
d="M740 233h-314c-4 -24 -6 -46 -6 -60c0 -69 38 -112 98 -112c59 0 114 43 132 103h72c-38 -114 -119 -179 -220 -179c-72 0 -112 28 -145 101c-45 -69 -98 -100 -169 -100c-101 0 -160 75 -160 202c0 177 111 350 253 350c69 0 115 -32 143 -106c58 77 108 106 181 106
c106 0 146 -86 146 -184c0 -31 -4 -72 -11 -121zM678 303c1 18 2 35 2 47c0 67 -35 109 -91 109c-70 0 -130 -62 -151 -156h240zM364 325c0 88 -34 137 -96 137c-95 0 -165 -135 -165 -264c0 -88 34 -136 96 -136c95 0 165 134 165 263z" />
    <glyph glyph-name="Racute" unicode="&#x154;" horiz-adv-x="592" 
d="M524 16l-3 -16h-98v17c0 31 7 98 18 163c3 20 5 37 5 50c0 51 -31 78 -88 78h-193l-53 -308h-80l125 718h273c107 0 164 -50 164 -143c0 -97 -35 -167 -116 -222c39 -22 50 -41 50 -90c0 -12 -1 -30 -3 -45l-18 -130c-2 -14 -3 -25 -3 -34c0 -16 5 -25 20 -38zM509 552
c0 56 -28 83 -88 83h-199l-42 -244h184c98 0 145 65 145 161zM531 900l-128 -121h-55l84 121h99z" />
    <glyph glyph-name="racute" unicode="&#x155;" horiz-adv-x="273" 
d="M325 535l-16 -91h-27c-63 0 -120 -59 -134 -140l-53 -304h-72l91 523h68l-16 -90c52 76 90 105 141 105c7 0 12 -1 18 -3zM358 725l-132 -141h-55l88 141h99z" />
    <glyph glyph-name="Rcommaaccent" unicode="&#x156;" horiz-adv-x="592" 
d="M524 16l-3 -16h-98v17c0 31 7 98 18 163c3 20 5 37 5 50c0 51 -31 78 -88 78h-193l-53 -308h-80l125 718h273c107 0 164 -50 164 -143c0 -97 -35 -167 -116 -222c39 -22 50 -41 50 -90c0 -12 -1 -30 -3 -45l-18 -130c-2 -14 -3 -25 -3 -34c0 -16 5 -25 20 -38zM509 552
c0 56 -28 83 -88 83h-199l-42 -244h184c98 0 145 65 145 161zM254 -154c-14 -80 -51 -128 -100 -132l7 39c28 3 46 32 54 86h-40l18 101h77z" />
    <glyph glyph-name="rcommaaccent" unicode="&#x157;" horiz-adv-x="273" 
d="M325 535l-16 -91h-27c-63 0 -120 -59 -134 -140l-53 -304h-72l91 523h68l-16 -90c52 76 90 105 141 105c7 0 12 -1 18 -3zM73 -154c-14 -80 -51 -128 -100 -132l7 39c28 3 46 32 54 86h-40l18 101h77z" />
    <glyph glyph-name="Rcaron" unicode="&#x158;" horiz-adv-x="592" 
d="M524 16l-3 -16h-98v17c0 31 7 98 18 163c3 20 5 37 5 50c0 51 -31 78 -88 78h-193l-53 -308h-80l125 718h273c107 0 164 -50 164 -143c0 -97 -35 -167 -116 -222c39 -22 50 -41 50 -90c0 -12 -1 -30 -3 -45l-18 -130c-2 -14 -3 -25 -3 -34c0 -16 5 -25 20 -38zM509 552
c0 56 -28 83 -88 83h-199l-42 -244h184c98 0 145 65 145 161zM532 901l-117 -121h-77l-75 121h66l56 -73l82 73h65z" />
    <glyph glyph-name="rcaron" unicode="&#x159;" horiz-adv-x="273" 
d="M325 535l-16 -91h-27c-63 0 -120 -59 -134 -140l-53 -304h-72l91 523h68l-16 -90c52 76 90 105 141 105c7 0 12 -1 18 -3zM342 726l-106 -141h-76l-56 141h65l38 -93l70 93h65z" />
    <glyph glyph-name="Sacute" unicode="&#x15a;" horiz-adv-x="547" 
d="M507 246c0 -157 -112 -265 -275 -265c-127 0 -198 75 -198 176c0 19 2 45 7 75h75c-3 -18 -4 -35 -4 -46c0 -76 53 -122 139 -122c108 0 176 59 176 153c0 48 -26 71 -107 95l-114 34c-66 20 -100 64 -100 129c0 138 103 262 252 262c117 0 186 -63 186 -168
c0 -15 -1 -37 -4 -61h-75c1 13 2 24 2 33c0 70 -47 113 -123 113c-92 0 -157 -61 -157 -148c0 -36 18 -58 56 -69l159 -47c69 -20 105 -70 105 -144zM523 900l-128 -121h-55l84 121h99z" />
    <glyph glyph-name="sacute" unicode="&#x15b;" horiz-adv-x="410" 
d="M371 189c0 -113 -92 -204 -207 -204c-97 0 -152 48 -152 131c0 12 1 31 4 52h70c-1 -11 -2 -21 -2 -29c0 -50 34 -78 94 -78c68 0 117 40 117 97c0 28 -19 44 -74 61l-79 25c-53 17 -79 49 -79 98c0 110 86 196 195 196c84 0 136 -49 136 -130c0 -8 -1 -20 -2 -34h-70
c1 9 2 17 2 22c0 42 -31 66 -83 66c-62 0 -104 -37 -104 -90c0 -26 14 -38 66 -54l69 -22c70 -23 99 -55 99 -107zM426 725l-132 -141h-55l88 141h99z" />
    <glyph glyph-name="Scircumflex" unicode="&#x15c;" horiz-adv-x="547" 
d="M507 246c0 -157 -112 -265 -275 -265c-127 0 -198 75 -198 176c0 19 2 45 7 75h75c-3 -18 -4 -35 -4 -46c0 -76 53 -122 139 -122c108 0 176 59 176 153c0 48 -26 71 -107 95l-114 34c-66 20 -100 64 -100 129c0 138 103 262 252 262c117 0 186 -63 186 -168
c0 -15 -1 -37 -4 -61h-75c1 13 2 24 2 33c0 70 -47 113 -123 113c-92 0 -157 -61 -157 -148c0 -36 18 -58 56 -69l159 -47c69 -20 105 -70 105 -144zM502 780h-66l-56 73l-82 -73h-65l117 121h77z" />
    <glyph glyph-name="scircumflex" unicode="&#x15d;" horiz-adv-x="410" 
d="M371 189c0 -113 -92 -204 -207 -204c-97 0 -152 48 -152 131c0 12 1 31 4 52h70c-1 -11 -2 -21 -2 -29c0 -50 34 -78 94 -78c68 0 117 40 117 97c0 28 -19 44 -74 61l-79 25c-53 17 -79 49 -79 98c0 110 86 196 195 196c84 0 136 -49 136 -130c0 -8 -1 -20 -2 -34h-70
c1 9 2 17 2 22c0 42 -31 66 -83 66c-62 0 -104 -37 -104 -90c0 -26 14 -38 66 -54l69 -22c70 -23 99 -55 99 -107zM386 585h-65l-38 93l-70 -93h-65l106 141h76z" />
    <glyph glyph-name="Scedilla" unicode="&#x15e;" horiz-adv-x="547" 
d="M507 246c0 -147 -98 -251 -244 -264l-26 -40h8c35 0 56 -27 56 -63c0 -61 -50 -109 -114 -109c-25 0 -46 6 -75 22l21 40c21 -11 33 -15 49 -15c33 0 55 20 55 50c0 18 -14 33 -33 33c-7 0 -16 1 -33 -5l-11 19l52 68c-114 7 -178 79 -178 175c0 19 2 45 7 75h75
c-3 -18 -4 -35 -4 -46c0 -76 53 -122 139 -122c108 0 176 59 176 153c0 48 -26 71 -107 95l-114 34c-66 20 -100 64 -100 129c0 138 103 262 252 262c117 0 186 -63 186 -168c0 -15 -1 -37 -4 -61h-75c1 13 2 24 2 33c0 70 -47 113 -123 113c-92 0 -157 -61 -157 -148
c0 -36 18 -58 56 -69l159 -47c69 -20 105 -70 105 -144z" />
    <glyph glyph-name="scedilla" unicode="&#x15f;" horiz-adv-x="410" 
d="M371 189c0 -102 -75 -186 -174 -202l-30 -45h8c35 0 56 -27 56 -63c0 -61 -50 -109 -114 -109c-25 0 -46 6 -75 22l21 40c21 -11 33 -15 49 -15c33 0 55 20 55 50c0 18 -14 33 -33 33c-7 0 -16 1 -33 -5l-11 19l55 72c-85 5 -133 52 -133 130c0 12 1 31 4 52h70
c-1 -11 -2 -21 -2 -29c0 -50 34 -78 94 -78c68 0 117 40 117 97c0 28 -19 44 -74 61l-79 25c-53 17 -79 49 -79 98c0 110 86 196 195 196c84 0 136 -49 136 -130c0 -8 -1 -20 -2 -34h-70c1 9 2 17 2 22c0 42 -31 66 -83 66c-62 0 -104 -37 -104 -90c0 -26 14 -38 66 -54
l69 -22c70 -23 99 -55 99 -107z" />
    <glyph glyph-name="Scaron" unicode="&#x160;" horiz-adv-x="547" 
d="M507 246c0 -157 -112 -265 -275 -265c-127 0 -198 75 -198 176c0 19 2 45 7 75h75c-3 -18 -4 -35 -4 -46c0 -76 53 -122 139 -122c108 0 176 59 176 153c0 48 -26 71 -107 95l-114 34c-66 20 -100 64 -100 129c0 138 103 262 252 262c117 0 186 -63 186 -168
c0 -15 -1 -37 -4 -61h-75c1 13 2 24 2 33c0 70 -47 113 -123 113c-92 0 -157 -61 -157 -148c0 -36 18 -58 56 -69l159 -47c69 -20 105 -70 105 -144zM524 901l-117 -121h-77l-75 121h66l56 -73l82 73h65z" />
    <glyph glyph-name="scaron" unicode="&#x161;" horiz-adv-x="410" 
d="M371 189c0 -113 -92 -204 -207 -204c-97 0 -152 48 -152 131c0 12 1 31 4 52h70c-1 -11 -2 -21 -2 -29c0 -50 34 -78 94 -78c68 0 117 40 117 97c0 28 -19 44 -74 61l-79 25c-53 17 -79 49 -79 98c0 110 86 196 195 196c84 0 136 -49 136 -130c0 -8 -1 -20 -2 -34h-70
c1 9 2 17 2 22c0 42 -31 66 -83 66c-62 0 -104 -37 -104 -90c0 -26 14 -38 66 -54l69 -22c70 -23 99 -55 99 -107zM410 726l-106 -141h-76l-56 141h65l38 -93l70 93h65z" />
    <glyph glyph-name="Tcedilla" unicode="&#x162;" horiz-adv-x="501" 
d="M560 632h-199l-110 -632h-6l-38 -58h8c35 0 56 -27 56 -63c0 -61 -50 -109 -114 -109c-25 0 -46 6 -75 22l21 40c21 -11 33 -15 49 -15c33 0 55 20 55 50c0 18 -14 33 -33 33c-7 0 -16 1 -33 -5l-11 19l66 86h-25l110 632h-199l15 86h478z" />
    <glyph glyph-name="tcedilla" unicode="&#x163;" horiz-adv-x="228" 
d="M151 -121c0 -61 -50 -109 -114 -109c-25 0 -46 6 -75 22l21 40c21 -11 33 -15 49 -15c33 0 55 20 55 50c0 18 -14 33 -33 33c-7 0 -16 1 -33 -5l-11 19l67 86c-22 10 -33 32 -33 63c0 13 1 28 4 42l60 345h-58l13 73h58l25 146h73l-26 -146h69l-13 -73h-69l-59 -340
c-1 -4 -1 -7 -1 -12c0 -21 11 -29 37 -29h26l-12 -69l-50 -6l-34 -52h8c35 0 56 -27 56 -63z" />
    <glyph glyph-name="Tcaron" unicode="&#x164;" horiz-adv-x="501" 
d="M560 632h-199l-110 -632h-80l110 632h-199l15 86h478zM503 901l-117 -121h-77l-75 121h66l56 -73l82 73h65z" />
    <glyph glyph-name="tcaron" unicode="&#x165;" horiz-adv-x="228" 
d="M171 0c-32 -4 -52 -7 -60 -7c-43 0 -67 25 -67 70c0 13 1 28 4 42l60 345h-58l13 73h58l25 146h73l-26 -146h69l-13 -73h-69l-59 -340c-1 -4 -1 -7 -1 -12c0 -21 11 -29 37 -29h26zM327 683c-14 -80 -51 -128 -100 -132l7 39c28 3 46 32 54 86h-40l18 101h77z" />
    <glyph glyph-name="Utilde" unicode="&#x168;" horiz-adv-x="592" 
d="M532 252c-29 -165 -139 -271 -283 -271c-120 0 -188 71 -188 195c0 21 1 42 5 63l84 479h79l-78 -452c-4 -21 -6 -43 -6 -64c0 -87 43 -135 122 -135c98 0 165 72 187 197l80 454h79zM553 898c-22 -71 -57 -109 -102 -109c-12 0 -25 4 -45 13l-20 9c-23 10 -37 15 -47 15
c-20 0 -33 -12 -47 -44h-39c23 74 55 107 104 107c16 0 34 -5 53 -15l17 -9c15 -8 29 -13 38 -13c22 0 35 13 47 46h41z" />
    <glyph glyph-name="utilde" unicode="&#x169;" 
d="M361 0h-68l14 81c-51 -72 -89 -96 -152 -96c-75 0 -118 43 -118 118c0 15 1 29 4 44l65 376h73l-61 -347c-2 -13 -3 -23 -3 -40c0 -49 23 -75 67 -75c72 0 129 67 148 174l50 288h72zM451 713c-22 -71 -57 -109 -102 -109c-12 0 -25 4 -45 13l-20 9c-23 10 -37 15 -47 15
c-20 0 -33 -12 -47 -44h-39c23 74 55 107 104 107c16 0 34 -5 53 -15l17 -9c15 -8 29 -13 38 -13c22 0 35 13 47 46h41z" />
    <glyph glyph-name="Umacron" unicode="&#x16a;" horiz-adv-x="592" 
d="M532 252c-29 -165 -139 -271 -283 -271c-120 0 -188 71 -188 195c0 21 1 42 5 63l84 479h79l-78 -452c-4 -21 -6 -43 -6 -64c0 -87 43 -135 122 -135c98 0 165 72 187 197l80 454h79zM536 869l-10 -57h-257l10 57h257z" />
    <glyph glyph-name="umacron" unicode="&#x16b;" 
d="M361 0h-68l14 81c-51 -72 -89 -96 -152 -96c-75 0 -118 43 -118 118c0 15 1 29 4 44l65 376h73l-61 -347c-2 -13 -3 -23 -3 -40c0 -49 23 -75 67 -75c72 0 129 67 148 174l50 288h72zM435 684l-10 -57h-257l10 57h257z" />
    <glyph glyph-name="Ubreve" unicode="&#x16c;" horiz-adv-x="592" 
d="M532 252c-29 -165 -139 -271 -283 -271c-120 0 -188 71 -188 195c0 21 1 42 5 63l84 479h79l-78 -452c-4 -21 -6 -43 -6 -64c0 -87 43 -135 122 -135c98 0 165 72 187 197l80 454h79zM548 898c-35 -74 -81 -116 -159 -116c-75 0 -106 42 -113 116h40l1 -7
c18 -30 40 -52 87 -52c49 0 73 20 95 59h49z" />
    <glyph glyph-name="ubreve" unicode="&#x16d;" 
d="M361 0h-68l14 81c-51 -72 -89 -96 -152 -96c-75 0 -118 43 -118 118c0 15 1 29 4 44l65 376h73l-61 -347c-2 -13 -3 -23 -3 -40c0 -49 23 -75 67 -75c72 0 129 67 148 174l50 288h72zM441 723c-29 -96 -77 -136 -153 -136c-64 0 -104 37 -101 107l1 29h40
c5 -55 26 -79 75 -79s74 21 99 79h39z" />
    <glyph glyph-name="Uring" unicode="&#x16e;" horiz-adv-x="592" 
d="M532 252c-29 -165 -139 -271 -283 -271c-120 0 -188 71 -188 195c0 21 1 42 5 63l84 479h79l-78 -452c-4 -21 -6 -43 -6 -64c0 -87 43 -135 122 -135c98 0 165 72 187 197l80 454h79zM507 858c-8 -47 -57 -82 -115 -82s-95 35 -87 84c9 47 59 82 116 82
c58 0 95 -35 86 -84zM463 858c5 27 -17 48 -48 48s-61 -21 -66 -46c-4 -27 17 -48 49 -48s61 21 65 46z" />
    <glyph glyph-name="uring" unicode="&#x16f;" 
d="M361 0h-68l14 81c-51 -72 -89 -96 -152 -96c-75 0 -118 43 -118 118c0 15 1 29 4 44l65 376h73l-61 -347c-2 -13 -3 -23 -3 -40c0 -49 23 -75 67 -75c72 0 129 67 148 174l50 288h72zM403 654c-8 -47 -57 -82 -116 -82c-58 0 -95 35 -86 84c8 47 58 82 115 82
c59 0 95 -35 87 -84zM359 654c5 27 -17 48 -49 48c-31 0 -61 -21 -65 -46c-5 -27 17 -48 49 -48s61 21 65 46z" />
    <glyph glyph-name="Uhungarumlaut" unicode="&#x170;" horiz-adv-x="592" 
d="M532 252c-29 -165 -139 -271 -283 -271c-120 0 -188 71 -188 195c0 21 1 42 5 63l84 479h79l-78 -452c-4 -21 -6 -43 -6 -64c0 -87 43 -135 122 -135c98 0 165 72 187 197l80 454h79zM478 921l-132 -141h-55l97 141h90zM625 921l-132 -141h-55l98 141h89z" />
    <glyph glyph-name="uhungarumlaut" unicode="&#x171;" 
d="M361 0h-68l14 81c-51 -72 -89 -96 -152 -96c-75 0 -118 43 -118 118c0 15 1 29 4 44l65 376h73l-61 -347c-2 -13 -3 -23 -3 -40c0 -49 23 -75 67 -75c72 0 129 67 148 174l50 288h72zM376 726l-132 -141h-55l97 141h90zM523 726l-132 -141h-55l98 141h89z" />
    <glyph glyph-name="Uogonek" unicode="&#x172;" horiz-adv-x="592" 
d="M532 252c-22 -124 -89 -214 -182 -252c-32 -13 -61 -33 -81 -61c-14 -18 -20 -35 -20 -54c0 -28 14 -42 46 -42h31l-11 -73h-35c-58 0 -108 31 -108 82c0 50 22 89 66 129c-113 5 -177 75 -177 195c0 21 1 42 5 63l84 479h79l-78 -452c-4 -21 -6 -43 -6 -64
c0 -87 43 -135 122 -135c98 0 165 72 187 197l80 454h79z" />
    <glyph glyph-name="uogonek" unicode="&#x173;" 
d="M341 -230h-35c-58 0 -108 31 -108 82c0 29 7 54 22 78c17 29 43 53 73 70l14 81c-51 -72 -89 -96 -152 -96c-75 0 -118 43 -118 118c0 15 1 29 4 44l65 376h73l-61 -347c-2 -13 -3 -23 -3 -40c0 -49 23 -75 67 -75c72 0 129 67 148 174l50 288h72l-91 -523
c-26 -15 -49 -36 -67 -61c-13 -18 -19 -35 -19 -54c0 -28 14 -42 46 -42h31z" />
    <glyph glyph-name="Wcircumflex" unicode="&#x174;" horiz-adv-x="774" 
d="M846 718l-280 -718h-115v599l-241 -599h-112v718h94v-588l236 588h117v-588l213 588h88zM631 780h-66l-56 73l-82 -73h-65l117 121h77z" />
    <glyph glyph-name="wcircumflex" unicode="&#x175;" horiz-adv-x="592" 
d="M633 523l-216 -523h-91v409l-156 -409h-74l-33 523h89v-415l156 415h93v-415l160 415h72zM477 585h-65l-38 93l-70 -93h-65l106 141h76z" />
    <glyph glyph-name="Ycircumflex" unicode="&#x176;" horiz-adv-x="547" 
d="M621 718l-297 -429l-50 -289h-80l50 289l-147 429h93l108 -345l230 345h93zM504 780h-66l-56 73l-82 -73h-65l117 121h77z" />
    <glyph glyph-name="ycircumflex" unicode="&#x177;" horiz-adv-x="410" 
d="M452 523l-244 -513c-100 -205 -117 -224 -201 -224c-12 0 -16 1 -29 6l-6 2l14 80c14 -6 27 -9 42 -9c31 0 43 14 70 67l27 54l-65 537h82l40 -429l190 429h80zM386 585h-65l-38 93l-70 -93h-65l106 141h76z" />
    <glyph glyph-name="Ydieresis" unicode="&#x178;" horiz-adv-x="547" 
d="M621 718l-297 -429l-50 -289h-80l50 289l-147 429h93l108 -345l230 345h93zM336 792h-88l17 96h88zM497 792h-88l17 96h88z" />
    <glyph glyph-name="Zacute" unicode="&#x179;" horiz-adv-x="501" 
d="M442 0h-463l14 81l457 551h-334l15 86h436l-15 -84l-457 -548h362zM515 900l-128 -121h-55l84 121h99z" />
    <glyph glyph-name="zacute" unicode="&#x17a;" horiz-adv-x="410" 
d="M357 73l-13 -73h-359l12 69l325 381h-239l13 73h332l-13 -72l-321 -378h263zM426 725l-132 -141h-55l88 141h99z" />
    <glyph glyph-name="Zdotaccent" unicode="&#x17b;" horiz-adv-x="501" 
d="M442 0h-463l14 81l457 551h-334l15 86h436l-15 -84l-457 -548h362zM406 792h-86l17 96h86z" />
    <glyph glyph-name="zdotaccent" unicode="&#x17c;" horiz-adv-x="410" 
d="M357 73l-13 -73h-359l12 69l325 381h-239l13 73h332l-13 -72l-321 -378h263zM314 607h-86l17 96h86z" />
    <glyph glyph-name="Zcaron" unicode="&#x17d;" horiz-adv-x="501" 
d="M442 0h-463l14 81l457 551h-334l15 86h436l-15 -84l-457 -548h362zM516 901l-117 -121h-77l-75 121h66l56 -73l82 73h65z" />
    <glyph glyph-name="zcaron" unicode="&#x17e;" horiz-adv-x="410" 
d="M357 73l-13 -73h-359l12 69l325 381h-239l13 73h332l-13 -72l-321 -378h263zM410 726l-106 -141h-76l-56 141h65l38 -93l70 93h65z" />
    <glyph glyph-name="longs" unicode="&#x17f;" horiz-adv-x="228" 
d="M301 726l-14 -79c-13 1 -23 2 -29 2c-30 0 -46 -18 -53 -61l-102 -588h-72l106 613c12 75 58 115 130 115c8 0 12 0 34 -2z" />
    <glyph glyph-name="Ereversed" unicode="&#x18e;" horiz-adv-x="547" 
d="M591 718l-125 -718h-435l15 86h355l42 240h-323l16 86h323l37 220h-349l15 86h429z" />
    <glyph glyph-name="florin" unicode="&#x192;" 
d="M497 722l-26 -78c-26 14 -33 17 -44 17c-32 0 -63 -36 -83 -97l-34 -103h93l-12 -70h-104l-107 -327c-61 -188 -126 -271 -217 -271c-20 0 -32 3 -46 12l26 81c16 -10 27 -14 40 -14c45 0 72 40 116 174l112 345h-89l12 70h101l44 124c32 91 97 152 159 152
c22 0 36 -3 59 -15z" />
    <glyph glyph-name="Ohorn" unicode="&#x1a0;" horiz-adv-x="638" 
d="M693 719c-9 -49 -40 -96 -81 -117c17 -41 25 -90 25 -146c0 -240 -153 -475 -361 -475c-148 0 -230 104 -230 280c0 245 154 476 361 476c85 0 149 -35 188 -99c28 12 48 46 55 81h-43l16 96h86zM554 445c0 128 -61 206 -162 206c-145 0 -263 -169 -263 -377
c0 -129 61 -207 161 -207c147 0 264 174 264 378z" />
    <glyph glyph-name="ohorn" unicode="&#x1a1;" horiz-adv-x="465" 
d="M497 524c-7 -44 -33 -86 -67 -109c6 -24 9 -50 9 -79c0 -177 -110 -350 -254 -350c-98 0 -157 76 -157 203c0 177 111 349 254 349c62 0 109 -31 134 -85c20 16 34 43 38 71h-43l17 96h86zM364 325c0 88 -34 137 -96 137c-95 0 -165 -132 -165 -264
c0 -88 34 -136 96 -136c95 0 165 133 165 263z" />
    <glyph glyph-name="Uhorn" unicode="&#x1af;" horiz-adv-x="590" 
d="M657 719c-12 -67 -65 -129 -128 -129l-15 22l18 -360c-29 -165 -139 -271 -283 -271c-120 0 -188 71 -188 195c0 21 1 42 5 63l84 479h79l-78 -452c-4 -21 -6 -43 -6 -64c0 -87 43 -135 122 -135c98 0 165 72 187 197l80 454h79l1 1h-43l16 96h86z" />
    <glyph glyph-name="uhorn" unicode="&#x1b0;" horiz-adv-x="463" 
d="M495 524c-11 -67 -64 -129 -127 -129l-15 22l8 -417h-68l14 81c-51 -72 -89 -96 -152 -96c-75 0 -118 43 -118 118c0 15 1 29 4 44l65 376h73l-61 -347c-2 -13 -3 -23 -3 -40c0 -49 23 -75 67 -75c72 0 129 67 148 174l50 288h72v1h-43l17 96h86z" />
    <glyph glyph-name="eturned" unicode="&#x1dd;" 
d="M436 351c0 -190 -108 -366 -260 -366c-105 0 -145 86 -145 184c0 31 4 72 11 121h313c4 25 6 46 6 62c0 68 -37 110 -98 110c-58 0 -113 -43 -131 -103h-72c38 113 119 179 219 179s157 -68 157 -187zM343 220h-239c-1 -18 -2 -34 -2 -47c0 -67 35 -109 91 -109
c69 0 129 63 150 156z" />
    <glyph glyph-name="Gcaron" unicode="&#x1e6;" horiz-adv-x="638" 
d="M538 0h-52l-3 93c-65 -77 -133 -112 -218 -112c-145 0 -214 127 -214 265c0 259 161 491 354 491c125 0 210 -86 210 -213v-24h-77c-8 107 -61 151 -146 151c-144 0 -257 -175 -257 -399c0 -124 53 -188 156 -188s193 70 224 237h-183l14 83h258zM568 901l-117 -121h-77
l-75 121h66l56 -73l82 73h65z" />
    <glyph glyph-name="gcaron" unicode="&#x1e7;" 
d="M460 523l-84 -480c-31 -184 -112 -263 -243 -263c-91 0 -139 42 -139 146v10h72c3 -58 27 -83 82 -83c83 0 131 42 155 184l4 21c-38 -51 -77 -73 -131 -73c-91 0 -144 73 -144 199c0 197 103 354 231 354c58 0 88 -24 115 -92l14 77h68zM351 334c0 83 -30 125 -89 125
c-105 0 -156 -138 -156 -274c0 -78 32 -124 86 -124c89 0 159 107 159 273zM433 726l-106 -141h-76l-56 141h65l38 -93l70 93h65z" />
    <glyph glyph-name="Oogonek" unicode="&#x1ea;" horiz-adv-x="638" 
d="M637 456c0 -199 -105 -395 -260 -456c-31 -12 -60 -33 -79 -61c-14 -18 -20 -35 -20 -54c0 -28 14 -42 46 -42h31l-11 -73h-35c-58 0 -108 31 -108 82c0 50 22 89 65 129c-142 5 -220 108 -220 280c0 245 154 476 361 476c146 0 230 -103 230 -281zM554 445
c0 128 -61 206 -162 206c-145 0 -263 -169 -263 -377c0 -129 61 -207 161 -207c147 0 264 174 264 378z" />
    <glyph glyph-name="oogonek" unicode="&#x1eb;" 
d="M439 336c0 -136 -65 -270 -161 -325c-31 -17 -59 -43 -80 -72c-13 -18 -19 -35 -19 -54c0 -28 14 -42 46 -42h31l-11 -73h-35c-58 0 -108 31 -108 82c0 52 24 92 71 134c-91 6 -145 81 -145 203c0 177 111 349 254 349c98 0 157 -76 157 -202zM364 325
c0 88 -34 137 -96 137c-95 0 -165 -132 -165 -264c0 -88 34 -136 96 -136c95 0 165 133 165 263z" />
    <glyph glyph-name="Gacute" unicode="&#x1f4;" horiz-adv-x="638" 
d="M538 0h-52l-3 93c-65 -77 -133 -112 -218 -112c-145 0 -214 127 -214 265c0 259 161 491 354 491c125 0 210 -86 210 -213v-24h-77c-8 107 -61 151 -146 151c-144 0 -257 -175 -257 -399c0 -124 53 -188 156 -188s193 70 224 237h-183l14 83h258zM567 900l-128 -121h-55
l84 121h99z" />
    <glyph glyph-name="gacute" unicode="&#x1f5;" 
d="M460 523l-84 -480c-31 -184 -112 -263 -243 -263c-91 0 -139 42 -139 146v10h72c3 -58 27 -83 82 -83c83 0 131 42 155 184l4 21c-38 -51 -77 -73 -131 -73c-91 0 -144 73 -144 199c0 197 103 354 231 354c58 0 88 -24 115 -92l14 77h68zM351 334c0 83 -30 125 -89 125
c-105 0 -156 -138 -156 -274c0 -78 32 -124 86 -124c89 0 159 107 159 273zM449 725l-132 -141h-55l88 141h99z" />
    <glyph glyph-name="Aringacute" unicode="&#x1fa;" horiz-adv-x="547" 
d="M496 0h-87l-22 209h-236l-98 -209h-82l347 718h90zM374 295l-33 319l-150 -319h183zM562 1083l-129 -121h-55l85 121h99zM489 858c-8 -47 -57 -82 -115 -82s-95 35 -87 84c9 47 59 82 116 82c58 0 95 -35 86 -84zM445 858c5 27 -17 48 -48 48s-61 -21 -66 -46
c-4 -27 17 -48 49 -48s61 21 65 46z" />
    <glyph glyph-name="aringacute" unicode="&#x1fb;" 
d="M406 64l-12 -64l-9 -3c-16 -6 -23 -7 -34 -7c-40 0 -62 20 -62 56c0 5 1 15 2 24c-57 -60 -106 -85 -167 -85c-71 0 -114 44 -114 116c0 105 65 185 162 199l122 18c32 5 50 35 50 82c0 42 -30 65 -86 65c-63 0 -95 -27 -118 -101h-66c27 119 93 174 202 174
c89 0 142 -43 142 -115c0 -10 -1 -21 -3 -31l-54 -312c0 -11 6 -20 19 -20c6 0 13 1 26 4zM306 181l15 86c-17 -14 -39 -19 -125 -33c-76 -13 -109 -47 -109 -113c0 -41 22 -63 63 -63c73 0 144 56 156 123zM472 888l-129 -121h-55l85 121h99zM399 663
c-8 -47 -57 -82 -115 -82s-95 35 -87 84c9 47 59 82 116 82c58 0 95 -35 86 -84zM355 663c5 27 -17 48 -48 48s-61 -21 -66 -46c-4 -27 17 -48 49 -48s61 21 65 46z" />
    <glyph glyph-name="AEacute" unicode="&#x1fc;" horiz-adv-x="820" 
d="M740 0h-405l36 209h-217l-101 -209h-86l364 718h528l-15 -86h-320l-38 -220h292l-15 -86h-292l-42 -240h326zM445 632h-79l-168 -337h188zM661 900l-128 -121h-55l84 121h99z" />
    <glyph glyph-name="aeacute" unicode="&#x1fd;" horiz-adv-x="729" 
d="M695 233h-313c-4 -25 -6 -47 -6 -62c0 -68 37 -110 97 -110c59 0 114 43 132 103h72c-38 -113 -119 -179 -220 -179c-78 0 -119 31 -142 109c-60 -78 -114 -109 -188 -109c-73 0 -117 43 -117 116c0 105 65 185 162 199l122 18c32 5 50 35 50 82c0 42 -30 65 -86 65
c-63 0 -95 -28 -118 -101h-66c28 123 95 174 208 174c63 0 92 -17 126 -74c56 56 93 74 153 74c104 0 145 -86 145 -184c0 -31 -4 -72 -11 -121zM633 303c1 18 2 34 2 47c0 67 -35 109 -91 109c-69 0 -130 -63 -150 -156h239zM306 181l15 86c-17 -15 -39 -19 -125 -33
c-76 -12 -109 -48 -109 -112c0 -42 22 -64 63 -64c73 0 144 56 156 123zM586 725l-132 -141h-55l88 141h99z" />
    <glyph glyph-name="Oslashacute" unicode="&#x1fe;" horiz-adv-x="638" 
d="M690 707l-84 -91c24 -60 31 -98 31 -161c0 -238 -152 -474 -362 -474c-79 0 -132 25 -178 87l-81 -87l-21 28l84 90c-25 60 -33 100 -33 164c0 238 152 474 363 474c80 0 133 -26 179 -89l82 89zM554 443c0 38 -4 62 -16 100l-376 -405c33 -50 71 -71 128 -71
c148 0 264 179 264 376zM523 578c-33 51 -72 73 -130 73c-148 0 -264 -178 -264 -375c0 -39 4 -65 16 -105zM570 900l-128 -121h-55l84 121h99z" />
    <glyph glyph-name="oslashacute" unicode="&#x1ff;" horiz-adv-x="501" 
d="M491 519l-70 -78c14 -40 19 -65 19 -106c0 -177 -111 -349 -255 -349c-52 0 -88 18 -119 60l-61 -68l-21 26l65 72c-16 42 -21 69 -21 113c0 176 111 349 255 349c54 0 90 -19 122 -65l65 72zM349 410c-19 37 -43 52 -80 52c-88 0 -165 -119 -165 -265c0 -19 1 -30 5 -54
zM365 326c0 15 -1 25 -5 47l-238 -265c17 -32 41 -46 77 -46c87 0 166 118 166 264zM472 725l-132 -141h-55l88 141h99z" />
    <glyph glyph-name="Adblgrave" unicode="&#x200;" horiz-adv-x="547" 
d="M496 0h-87l-22 209h-236l-98 -209h-82l347 718h90zM374 295l-33 319l-150 -319h183zM476 780h-55l-83 141h90zM329 780h-55l-83 141h89z" />
    <glyph glyph-name="adblgrave" unicode="&#x201;" 
d="M406 64l-12 -64l-9 -3c-16 -6 -23 -7 -34 -7c-40 0 -62 20 -62 56c0 5 1 15 2 24c-57 -60 -106 -85 -167 -85c-71 0 -114 44 -114 116c0 105 65 185 162 199l122 18c32 5 50 35 50 82c0 42 -30 65 -86 65c-63 0 -95 -27 -118 -101h-66c27 119 93 174 202 174
c89 0 142 -43 142 -115c0 -10 -1 -21 -3 -31l-54 -312c0 -11 6 -20 19 -20c6 0 13 1 26 4zM306 181l15 86c-17 -14 -39 -19 -125 -33c-76 -13 -109 -47 -109 -113c0 -41 22 -63 63 -63c73 0 144 56 156 123zM386 585h-55l-83 141h90zM239 585h-55l-83 141h89z" />
    <glyph glyph-name="Edblgrave" unicode="&#x204;" horiz-adv-x="547" 
d="M466 0h-435l125 718h429l-15 -86h-349l-39 -220h323l-15 -86h-323l-41 -240h355zM483 780h-55l-83 141h90zM336 780h-55l-83 141h89z" />
    <glyph glyph-name="edblgrave" unicode="&#x205;" 
d="M423 233h-313c-4 -25 -6 -46 -6 -62c0 -68 37 -110 98 -110c58 0 113 43 131 103h72c-38 -113 -119 -179 -219 -179s-157 68 -157 187c0 190 108 366 260 366c105 0 145 -86 145 -184c0 -31 -4 -72 -11 -121zM361 303c1 18 2 34 2 47c0 67 -35 109 -91 109
c-69 0 -129 -63 -150 -156h239zM392 585h-55l-83 141h90zM245 585h-55l-83 141h89z" />
    <glyph glyph-name="Idblgrave" unicode="&#x208;" horiz-adv-x="228" 
d="M114 0h-79l125 718h79zM312 780h-55l-83 141h90zM165 780h-55l-83 141h89z" />
    <glyph glyph-name="idblgrave" unicode="&#x209;" horiz-adv-x="228" 
d="M110 0h-72l91 523h72zM278 585h-55l-83 141h90zM131 585h-55l-83 141h89z" />
    <glyph glyph-name="Odblgrave" unicode="&#x20c;" horiz-adv-x="638" 
d="M637 456c0 -240 -153 -475 -361 -475c-148 0 -230 104 -230 280c0 245 154 476 361 476c146 0 230 -103 230 -281zM554 445c0 128 -61 206 -162 206c-145 0 -263 -169 -263 -377c0 -129 61 -207 161 -207c147 0 264 174 264 378zM516 780h-55l-83 141h90zM369 780h-55
l-83 141h89z" />
    <glyph glyph-name="odblgrave" unicode="&#x20d;" 
d="M439 336c0 -177 -110 -350 -254 -350c-98 0 -157 76 -157 203c0 177 111 349 254 349c98 0 157 -76 157 -202zM364 325c0 88 -34 137 -96 137c-95 0 -165 -132 -165 -264c0 -88 34 -136 96 -136c95 0 165 133 165 263zM392 585h-55l-83 141h90zM245 585h-55l-83 141h89z
" />
    <glyph glyph-name="Rdblgrave" unicode="&#x210;" horiz-adv-x="592" 
d="M524 16l-3 -16h-98v17c0 31 7 98 18 163c3 20 5 37 5 50c0 51 -31 78 -88 78h-193l-53 -308h-80l125 718h273c107 0 164 -50 164 -143c0 -97 -35 -167 -116 -222c39 -22 50 -41 50 -90c0 -12 -1 -30 -3 -45l-18 -130c-2 -14 -3 -25 -3 -34c0 -16 5 -25 20 -38zM509 552
c0 56 -28 83 -88 83h-199l-42 -244h184c98 0 145 65 145 161zM478 780h-55l-83 141h90zM331 780h-55l-83 141h89z" />
    <glyph glyph-name="rdblgrave" unicode="&#x211;" horiz-adv-x="273" 
d="M325 535l-16 -91h-27c-63 0 -120 -59 -134 -140l-53 -304h-72l91 523h68l-16 -90c52 76 90 105 141 105c7 0 12 -1 18 -3zM300 585h-55l-83 141h90zM153 585h-55l-83 141h89z" />
    <glyph glyph-name="Udblgrave" unicode="&#x214;" horiz-adv-x="592" 
d="M532 252c-29 -165 -139 -271 -283 -271c-120 0 -188 71 -188 195c0 21 1 42 5 63l84 479h79l-78 -452c-4 -21 -6 -43 -6 -64c0 -87 43 -135 122 -135c98 0 165 72 187 197l80 454h79zM494 780h-55l-83 141h90zM347 780h-55l-83 141h89z" />
    <glyph glyph-name="udblgrave" unicode="&#x215;" 
d="M361 0h-68l14 81c-51 -72 -89 -96 -152 -96c-75 0 -118 43 -118 118c0 15 1 29 4 44l65 376h73l-61 -347c-2 -13 -3 -23 -3 -40c0 -49 23 -75 67 -75c72 0 129 67 148 174l50 288h72zM392 585h-55l-83 141h90zM245 585h-55l-83 141h89z" />
    <glyph glyph-name="uni0218" unicode="&#x218;" horiz-adv-x="547" 
d="M507 246c0 -157 -112 -265 -275 -265c-127 0 -198 75 -198 176c0 19 2 45 7 75h75c-3 -18 -4 -35 -4 -46c0 -76 53 -122 139 -122c108 0 176 59 176 153c0 48 -26 71 -107 95l-114 34c-66 20 -100 64 -100 129c0 138 103 262 252 262c117 0 186 -63 186 -168
c0 -15 -1 -37 -4 -61h-75c1 13 2 24 2 33c0 70 -47 113 -123 113c-92 0 -157 -61 -157 -148c0 -36 18 -58 56 -69l159 -47c69 -20 105 -70 105 -144zM246 -154c-14 -80 -51 -128 -100 -132l7 39c28 3 46 32 54 86h-40l18 101h77z" />
    <glyph glyph-name="uni0219" unicode="&#x219;" horiz-adv-x="410" 
d="M371 189c0 -113 -92 -204 -207 -204c-97 0 -152 48 -152 131c0 12 1 31 4 52h70c-1 -11 -2 -21 -2 -29c0 -50 34 -78 94 -78c68 0 117 40 117 97c0 28 -19 44 -74 61l-79 25c-53 17 -79 49 -79 98c0 110 86 196 195 196c84 0 136 -49 136 -130c0 -8 -1 -20 -2 -34h-70
c1 9 2 17 2 22c0 42 -31 66 -83 66c-62 0 -104 -37 -104 -90c0 -26 14 -38 66 -54l69 -22c70 -23 99 -55 99 -107zM179 -154c-14 -80 -51 -128 -100 -132l7 39c28 3 46 32 54 86h-40l18 101h77z" />
    <glyph glyph-name="uni021A" unicode="&#x21a;" horiz-adv-x="501" 
d="M560 632h-199l-110 -632h-80l110 632h-199l15 86h478zM225 -154c-14 -80 -51 -128 -100 -132l7 39c28 3 46 32 54 86h-40l18 101h77z" />
    <glyph glyph-name="uni021B" unicode="&#x21b;" horiz-adv-x="228" 
d="M171 0c-32 -4 -52 -7 -60 -7c-43 0 -67 25 -67 70c0 13 1 28 4 42l60 345h-58l13 73h58l25 146h73l-26 -146h69l-13 -73h-69l-59 -340c-1 -4 -1 -7 -1 -12c0 -21 11 -29 37 -29h26zM88 -154c-14 -80 -51 -128 -100 -132l7 39c28 3 46 32 54 86h-40l18 101h77z" />
    <glyph glyph-name="ereversed" unicode="&#x258;" 
d="M405 172c-42 -119 -123 -187 -223 -187s-157 66 -156 179h72c-3 -60 37 -103 95 -103c61 0 113 42 136 110c6 16 11 37 16 62h-313c10 49 20 90 31 121c34 98 105 184 210 184c152 0 198 -176 132 -366zM357 303c12 93 -26 156 -95 156c-56 0 -106 -42 -129 -109
c-5 -13 -9 -29 -15 -47h239z" />
    <glyph glyph-name="schwa" unicode="&#x259;" 
d="M436 351c0 -190 -108 -366 -260 -366c-105 0 -145 86 -145 184c0 31 4 72 11 121h313c4 25 6 46 6 62c0 68 -37 110 -98 110c-58 0 -113 -43 -131 -103h-72c38 113 119 179 219 179s157 -68 157 -187zM343 220h-239c-1 -18 -2 -34 -2 -47c0 -67 35 -109 91 -109
c69 0 129 63 150 156z" />
    <glyph glyph-name="ringhalfright" unicode="&#x2be;" horiz-adv-x="371" 
d="M370 568c0 -132 -77 -254 -184 -254c-58 0 -94 40 -95 106c1 7 1 17 2 29c0 5 5 9 10 9h46c4 0 6 -3 7 -7c1 -48 13 -68 48 -68c61 0 98 87 98 177c0 46 -17 73 -52 73c-33 0 -58 -26 -76 -77c-1 -3 -5 -6 -9 -6h-47c-4 0 -7 4 -5 9c28 94 78 140 148 140
c67 0 108 -49 109 -131z" />
    <glyph glyph-name="ringhalfleft" unicode="&#x2bf;" horiz-adv-x="371" 
d="M355 454c-28 -94 -78 -140 -148 -140c-67 0 -109 49 -109 131c0 132 77 254 184 254c58 0 94 -40 94 -106c0 -7 0 -17 -2 -29c1 -5 -4 -9 -9 -9h-46c-4 0 -7 3 -7 7c-2 48 -13 68 -48 68c-61 0 -98 -87 -98 -177c0 -46 17 -73 52 -73c33 0 58 26 76 77c1 3 5 6 9 6h47
c4 0 7 -4 5 -9z" />
    <glyph glyph-name="circumflex" unicode="&#x2c6;" horiz-adv-x="273" 
d="M318 585h-65l-38 93l-70 -93h-65l106 141h76z" />
    <glyph glyph-name="caron" unicode="&#x2c7;" horiz-adv-x="273" 
d="M342 726l-106 -141h-76l-56 141h65l38 -93l70 93h65z" />
    <glyph glyph-name="breve" unicode="&#x2d8;" horiz-adv-x="273" 
d="M350 723c-29 -96 -77 -136 -153 -136c-64 0 -104 37 -101 107l1 29h40c5 -55 26 -79 75 -79s74 21 99 79h39z" />
    <glyph glyph-name="dotaccent" unicode="&#x2d9;" horiz-adv-x="273" 
d="M246 607h-86l17 96h86z" />
    <glyph glyph-name="ring" unicode="&#x2da;" horiz-adv-x="273" 
d="M312 654c-8 -47 -57 -82 -116 -82c-58 0 -95 35 -86 84c8 47 58 82 115 82c59 0 95 -35 87 -84zM268 654c5 27 -17 48 -49 48c-31 0 -61 -21 -65 -46c-5 -27 17 -48 49 -48s61 21 65 46z" />
    <glyph glyph-name="ogonek" unicode="&#x2db;" horiz-adv-x="273" 
d="M208 -230h-35c-58 0 -108 31 -108 82c0 58 29 100 87 148h71c-56 -46 -81 -78 -81 -115c0 -28 14 -42 46 -42h31z" />
    <glyph glyph-name="tilde" unicode="&#x2dc;" horiz-adv-x="273" 
d="M360 713c-22 -71 -57 -109 -102 -109c-12 0 -25 4 -45 13l-20 9c-23 10 -37 15 -47 15c-20 0 -33 -12 -47 -44h-39c23 74 55 107 104 107c16 0 34 -5 53 -15l17 -9c15 -8 29 -13 38 -13c22 0 35 13 47 46h41z" />
    <glyph glyph-name="hungarumlaut" unicode="&#x2dd;" horiz-adv-x="273" 
d="M285 726l-132 -141h-55l97 141h90zM432 726l-132 -141h-55l98 141h89z" />
    <glyph glyph-name="uni0300" unicode="&#x300;" horiz-adv-x="0" 
d="M-138 584h-55l-83 141h99z" />
    <glyph glyph-name="uni0301" unicode="&#x301;" horiz-adv-x="0" 
d="M-6 725l-132 -141h-55l88 141h99z" />
    <glyph glyph-name="uni0302" unicode="&#x302;" horiz-adv-x="0" 
d="M-46 585h-65l-38 93l-70 -93h-65l106 141h76z" />
    <glyph glyph-name="uni0303" unicode="&#x303;" horiz-adv-x="0" 
d="M-4 713c-22 -71 -57 -109 -102 -109c-12 0 -25 4 -45 13l-20 9c-23 10 -37 15 -47 15c-20 0 -33 -12 -47 -44h-39c23 74 55 107 104 107c16 0 34 -5 53 -15l17 -9c15 -8 29 -13 38 -13c22 0 35 13 47 46h41z" />
    <glyph glyph-name="uni0304" unicode="&#x304;" horiz-adv-x="0" 
d="M-20 684l-10 -57h-257l10 57h257z" />
    <glyph glyph-name="uni0306" unicode="&#x306;" horiz-adv-x="0" 
d="M-14 723c-29 -96 -77 -136 -153 -136c-64 0 -104 37 -101 107l1 29h40c5 -55 26 -79 75 -79s74 21 99 79h39z" />
    <glyph glyph-name="uni0307" unicode="&#x307;" horiz-adv-x="0" 
d="M-118 607h-86l17 96h86z" />
    <glyph glyph-name="uni0308" unicode="&#x308;" horiz-adv-x="0" 
d="M-198 607h-88l17 96h88zM-37 607h-88l17 96h88z" />
    <glyph glyph-name="uni0309" unicode="&#x309;" horiz-adv-x="0" 
d="M-45 681c-4 -26 -18 -40 -56 -62c-30 -19 -35 -23 -37 -32l-4 -24h-56l5 27c4 25 19 37 58 58c22 13 33 23 34 33c3 14 -13 25 -41 25c-21 0 -35 -5 -43 -14c-5 -5 -9 -16 -12 -34h-55c10 60 52 92 120 92c61 0 94 -27 87 -69z" />
    <glyph glyph-name="uni030A" unicode="&#x30a;" horiz-adv-x="0" 
d="M-52 654c-8 -47 -57 -82 -116 -82c-58 0 -95 35 -86 84c8 47 58 82 115 82c59 0 95 -35 87 -84zM-96 654c5 27 -17 48 -49 48c-31 0 -61 -21 -65 -46c-5 -27 17 -48 49 -48s61 21 65 46z" />
    <glyph glyph-name="uni030B" unicode="&#x30b;" horiz-adv-x="0" 
d="M-79 726l-132 -141h-55l97 141h90zM68 726l-132 -141h-55l98 141h89z" />
    <glyph glyph-name="uni030C" unicode="&#x30c;" horiz-adv-x="0" 
d="M-22 726l-106 -141h-76l-56 141h65l38 -93l70 93h65z" />
    <glyph glyph-name="uni030F" unicode="&#x30f;" horiz-adv-x="0" 
d="M-64 585h-55l-83 141h90zM-211 585h-55l-83 141h89z" />
    <glyph glyph-name="uni0311" unicode="&#x311;" horiz-adv-x="0" 
d="M-38 587h-40c-5 55 -26 79 -75 79s-74 -21 -99 -79h-39c29 96 77 136 153 136c64 0 104 -37 101 -107z" />
    <glyph glyph-name="uni0323" unicode="&#x323;" horiz-adv-x="0" 
d="M-255 -180h-86l16 96h86z" />
    <glyph glyph-name="uni0326" unicode="&#x326;" horiz-adv-x="0" 
d="M-255 -154c-14 -80 -51 -128 -100 -132l7 39c28 3 46 32 54 86h-40l18 101h77z" />
    <glyph glyph-name="uni032E" unicode="&#x32e;" horiz-adv-x="0" 
d="M-144 -74c-35 -74 -82 -116 -160 -116c-75 0 -105 42 -112 116h40v-7c18 -30 40 -52 87 -52c49 0 74 20 96 59h49z" />
    <glyph glyph-name="uni032F" unicode="&#x32f;" horiz-adv-x="0" 
d="M-165 -190h-40v7c-18 30 -40 52 -87 52c-49 0 -74 -20 -96 -59h-49c35 74 82 116 160 116c75 0 105 -42 112 -116z" />
    <glyph glyph-name="uni0330" unicode="&#x330;" horiz-adv-x="0" 
d="M-141 -74c-22 -71 -57 -109 -102 -109c-12 0 -25 4 -45 13l-20 9c-23 10 -37 15 -47 15c-20 0 -33 -12 -47 -44h-39c23 74 55 107 104 107c16 0 34 -5 53 -15l17 -9c15 -8 29 -13 38 -13c22 0 35 13 47 46h41z" />
    <glyph glyph-name="uni0331" unicode="&#x331;" horiz-adv-x="0" 
d="M-157 -103l-10 -57h-257l10 57h257z" />
    <glyph glyph-name="uni0332" unicode="&#x332;" horiz-adv-x="0" 
d="M-157 -103l-10 -57h-257l10 57h257z" />
    <glyph glyph-name="Alpha" unicode="&#x391;" horiz-adv-x="547" 
d="M496 0h-87l-22 209h-236l-98 -209h-82l347 718h90zM374 295l-33 319l-150 -319h183z" />
    <glyph glyph-name="Beta" unicode="&#x392;" horiz-adv-x="547" 
d="M515 258c0 -144 -106 -258 -241 -258h-253l125 718h259c86 0 138 -53 138 -141c0 -79 -35 -147 -108 -190c59 -32 80 -66 80 -129zM461 558c0 52 -35 77 -106 77h-144l-39 -221h144c97 0 145 57 145 144zM434 244c0 61 -40 91 -119 91h-156l-44 -252h169
c89 0 150 66 150 161z" />
    <glyph glyph-name="Gamma" unicode="&#x393;" horiz-adv-x="501" 
d="M548 632h-328l-110 -632h-79l125 718h407z" />
    <glyph glyph-name="Delta" unicode="&#x394;" horiz-adv-x="502" 
d="M457 0h-492l334 702h69zM373 72l-63 495l-236 -495h299z" />
    <glyph glyph-name="Epsilon" unicode="&#x395;" horiz-adv-x="547" 
d="M466 0h-435l125 718h429l-15 -86h-349l-39 -220h323l-15 -86h-323l-41 -240h355z" />
    <glyph glyph-name="Zeta" unicode="&#x396;" horiz-adv-x="501" 
d="M442 0h-463l14 81l457 551h-334l15 86h436l-15 -84l-457 -548h362z" />
    <glyph glyph-name="Eta" unicode="&#x397;" horiz-adv-x="592" 
d="M490 0h-80l59 335h-308l-58 -335h-80l125 718h80l-52 -297h308l51 297h80z" />
    <glyph glyph-name="Theta" unicode="&#x398;" horiz-adv-x="638" 
d="M637 456c0 -240 -153 -475 -361 -475c-148 0 -230 104 -230 280c0 245 154 476 361 476c146 0 230 -103 230 -281zM554 445c0 128 -61 206 -162 206c-145 0 -263 -169 -263 -377c0 -129 61 -207 161 -207c147 0 264 174 264 378zM443 323h-216l13 72h216z" />
    <glyph glyph-name="Iota" unicode="&#x399;" horiz-adv-x="228" 
d="M114 0h-79l125 718h79z" />
    <glyph glyph-name="Kappa" unicode="&#x39a;" horiz-adv-x="547" 
d="M503 0h-103l-143 360l-112 -108l-43 -252h-80l125 718h80l-61 -348l346 348h110l-296 -290z" />
    <glyph glyph-name="Lambda" unicode="&#x39b;" horiz-adv-x="547" 
d="M496 0h-87l-68 614l-288 -614h-82l347 718h90z" />
    <glyph glyph-name="Mu" unicode="&#x39c;" horiz-adv-x="683" 
d="M584 0h-77l74 424l34 185l-274 -609h-78l-62 608l-23 -138c-4 -22 -6 -38 -7 -46l-74 -424h-77l125 718h114l63 -610l274 610h113z" />
    <glyph glyph-name="Nu" unicode="&#x39d;" horiz-adv-x="592" 
d="M490 0h-90l-199 583l-102 -583h-77l125 718h95l194 -583l102 583h77z" />
    <glyph glyph-name="Xi" unicode="&#x39e;" horiz-adv-x="592" 
d="M627 638h-520l14 80h520zM491 323h-357l12 72h358zM516 0h-520l14 80h520z" />
    <glyph glyph-name="Omicron" unicode="&#x39f;" horiz-adv-x="638" 
d="M637 456c0 -240 -153 -475 -361 -475c-148 0 -230 104 -230 280c0 245 154 476 361 476c146 0 230 -103 230 -281zM554 445c0 128 -61 206 -162 206c-145 0 -263 -169 -263 -377c0 -129 61 -207 161 -207c147 0 264 174 264 378z" />
    <glyph glyph-name="Pi" unicode="&#x3a0;" horiz-adv-x="592" 
d="M490 0h-80l110 632h-307l-110 -632h-80l125 718h467z" />
    <glyph glyph-name="Rho" unicode="&#x3a1;" horiz-adv-x="547" 
d="M564 565c0 -137 -91 -262 -216 -262h-185l-53 -303h-79l125 718h265c88 0 143 -59 143 -153zM481 549c0 57 -34 86 -99 86h-161l-43 -249h158c96 0 145 69 145 163z" />
    <glyph glyph-name="Sigma" unicode="&#x3a3;" horiz-adv-x="504" 
d="M434 0h-444l14 82l270 277l-173 277l14 82h444l-15 -87h-328l170 -272l-265 -272h328z" />
    <glyph glyph-name="Tau" unicode="&#x3a4;" horiz-adv-x="501" 
d="M560 632h-199l-110 -632h-80l110 632h-199l15 86h478z" />
    <glyph glyph-name="Upsilon" unicode="&#x3a5;" horiz-adv-x="547" 
d="M621 718l-297 -429l-50 -289h-80l50 289l-147 429h93l108 -345l230 345h93z" />
    <glyph glyph-name="Phi" unicode="&#x3a6;" horiz-adv-x="624" 
d="M591 359c-20 -115 -134 -199 -255 -215l-25 -144h-79l25 144c-116 15 -200 100 -180 215s134 199 255 215l25 144h79l-25 -144c116 -15 200 -100 180 -215zM270 221l49 276c-81 -13 -155 -64 -168 -138c-13 -75 44 -125 119 -138zM517 359c13 75 -44 125 -119 138
l-49 -276c81 13 155 64 168 138z" />
    <glyph glyph-name="Chi" unicode="&#x3a7;" horiz-adv-x="547" 
d="M491 0h-98l-107 295l-214 -295h-96l274 368l-136 350h100l101 -275l197 275h95l-258 -350z" />
    <glyph glyph-name="Psi" unicode="&#x3a8;" horiz-adv-x="610" 
d="M605 523c-24 -143 -131 -273 -261 -296l-40 -227h-79l40 227c-123 23 -184 153 -159 296l34 195h74l-34 -195c-18 -101 18 -196 98 -218l72 413h79l-72 -413c88 23 157 117 174 218l34 195h74z" />
    <glyph glyph-name="Omega" unicode="&#x3a9;" horiz-adv-x="634" 
d="M564 0h-239l35 200c99 30 172 150 172 263c0 96 -51 176 -143 176c-123 0 -222 -140 -222 -273c0 -77 34 -145 97 -166l-35 -200h-239l15 87h159l10 57c-57 44 -89 120 -89 207c0 186 146 375 319 375c132 0 209 -111 209 -247c0 -135 -75 -270 -183 -335l-10 -57h159z
" />
    <glyph glyph-name="alpha" unicode="&#x3b1;" horiz-adv-x="635" 
d="M542 17l-70 -34c-16 45 -24 94 -28 144c-52 -84 -122 -148 -209 -148c-134 0 -201 131 -176 274c26 150 137 291 275 291c91 0 136 -70 156 -159c25 59 52 116 79 155l59 -34c-56 -79 -90 -166 -124 -253c3 -82 12 -162 38 -236zM438 253c-3 104 -21 215 -117 215
c-98 0 -171 -106 -190 -215c-18 -102 24 -198 117 -198c92 0 151 101 190 198z" />
    <glyph glyph-name="beta" unicode="&#x3b2;" horiz-adv-x="491" 
d="M466 270c0 -138 -99 -285 -253 -285c-47 0 -91 10 -129 30l-43 -245h-72l133 762c21 121 106 196 223 196c105 0 168 -54 168 -144c0 -77 -33 -140 -96 -184c45 -20 69 -68 69 -130zM389 254c0 67 -39 100 -120 100c-12 0 -22 -1 -32 -4l14 79c5 -1 16 -2 22 -2
c87 0 145 55 145 136c0 57 -39 89 -108 89c-80 0 -123 -43 -140 -142l-74 -423c38 -15 80 -23 124 -23c105 0 169 79 169 190z" />
    <glyph glyph-name="gamma" unicode="&#x3b3;" horiz-adv-x="524" 
d="M520 523l-263 -529l-39 -224h-72l39 224l-79 529h76l61 -405l201 405h76z" />
    <glyph glyph-name="delta" unicode="&#x3b4;" horiz-adv-x="461" 
d="M429 215c-21 -122 -124 -230 -241 -230c-102 0 -164 82 -164 183c0 129 97 234 220 267c-35 34 -67 70 -67 118c0 86 79 165 159 165c49 0 93 -18 124 -50l-52 -57c-23 19 -53 30 -85 30c-40 0 -73 -40 -73 -81c0 -53 54 -82 96 -115c55 -44 87 -111 87 -185
c0 -15 -1 -30 -4 -45zM356 215c2 12 3 24 3 36c0 55 -23 104 -64 136c-102 0 -197 -96 -197 -204c0 -66 38 -121 103 -121c76 0 141 73 155 153z" />
    <glyph glyph-name="epsilon" unicode="&#x3b5;" horiz-adv-x="503" 
d="M413 29c-55 -39 -117 -68 -180 -68c-122 0 -209 92 -188 212c11 59 56 95 116 115c-42 25 -66 62 -57 115c16 90 105 159 196 159c68 0 126 -28 174 -67l-43 -49c-38 31 -91 40 -144 40c-51 0 -102 -34 -111 -83c-13 -74 78 -90 165 -90l-11 -61c-92 0 -199 0 -213 -79
c-14 -78 48 -136 130 -136c46 0 95 9 137 38z" />
    <glyph glyph-name="zeta" unicode="&#x3b6;" horiz-adv-x="429" 
d="M347 -79c-14 -79 -80 -149 -155 -149l12 68c37 0 64 40 71 81c7 39 -8 77 -44 77h-30c-120 0 -164 130 -140 264c27 159 133 304 275 396h-206l10 61h346l-10 -61h-39c-160 -74 -275 -230 -304 -396c-17 -93 1 -188 82 -188h30c76 0 116 -73 102 -153z" />
    <glyph glyph-name="eta" unicode="&#x3b7;" 
d="M321 -230h-72l101 579c10 60 -11 119 -67 119c-48 0 -93 -23 -124 -57l-72 -411h-72l49 283c-5 41 3 83 22 121l20 119h72l-3 -17c36 24 78 38 122 38c95 0 143 -93 125 -195z" />
    <glyph glyph-name="theta" unicode="&#x3b8;" horiz-adv-x="475" 
d="M441 351c-31 -178 -95 -372 -247 -372c-153 0 -149 194 -118 372c32 184 92 388 250 388c159 0 147 -204 115 -388zM376 389c22 133 38 274 -63 274s-134 -141 -158 -274h221zM363 313h-221c-22 -127 -35 -258 65 -258s133 131 156 258z" />
    <glyph glyph-name="iota" unicode="&#x3b9;" horiz-adv-x="297" 
d="M198 -21c-82 0 -116 87 -101 178l64 366h72l-64 -366c-8 -50 -1 -102 43 -102z" />
    <glyph glyph-name="kappa" unicode="&#x3ba;" horiz-adv-x="410" 
d="M371 0h-93l-87 264l-72 -66l-34 -198h-70l91 523h70l-39 -221l223 221h92l-198 -195z" />
    <glyph glyph-name="lambda" unicode="&#x3bb;" horiz-adv-x="562" 
d="M467 0h-76l-52 372l-244 -372h-80l310 474l-5 37c-10 71 -45 137 -116 137l12 68c101 0 163 -82 177 -181z" />
    <glyph glyph-name="mu.greek" unicode="&#x3bc;" horiz-adv-x="566" 
d="M416 0h-72l5 27c-31 -30 -67 -48 -110 -48c-42 0 -72 18 -92 48l-45 -257h-72l131 753h72l-61 -350c1 -66 21 -118 81 -118s98 52 121 118l61 350h72z" />
    <glyph glyph-name="nu" unicode="&#x3bd;" horiz-adv-x="467" 
d="M461 349c-25 -143 -116 -276 -246 -360l-52 18l-84 516h76l72 -444c86 71 144 168 162 270c10 58 13 117 10 174h74c3 -57 -2 -116 -12 -174z" />
    <glyph glyph-name="xi" unicode="&#x3be;" 
d="M347 -79c-14 -79 -80 -149 -155 -149l12 68c37 0 64 40 71 81c7 39 -8 77 -44 77h-30c-109 0 -169 102 -149 216c14 76 65 141 132 179c-43 33 -66 86 -56 147c9 48 36 88 75 118h-73l10 61h346l-10 -61h-150c-61 -13 -115 -58 -126 -118c-11 -65 39 -114 106 -114
l-12 -68c-79 0 -156 -64 -170 -144c-12 -73 22 -140 91 -140h30c76 0 116 -73 102 -153z" />
    <glyph glyph-name="omicron" unicode="&#x3bf;" 
d="M439 336c0 -177 -110 -350 -254 -350c-98 0 -157 76 -157 203c0 177 111 349 254 349c98 0 157 -76 157 -202zM364 325c0 88 -34 137 -96 137c-95 0 -165 -132 -165 -264c0 -88 34 -136 96 -136c95 0 165 133 165 263z" />
    <glyph glyph-name="pi" unicode="&#x3c0;" horiz-adv-x="562" 
d="M583 523l-14 -77h-50l-77 -446h-72l77 446h-127l-78 -446h-72l78 446c-73 0 -110 -36 -123 -111h-77c24 136 106 188 249 188h286z" />
    <glyph glyph-name="rho" unicode="&#x3c1;" horiz-adv-x="520" 
d="M471 262c-25 -144 -124 -283 -254 -283c-51 0 -94 20 -124 53l-46 -262h-72l86 492c25 143 124 282 254 282s181 -139 156 -282zM399 262c18 102 -6 206 -97 206s-151 -104 -169 -206l-24 -133c17 -47 65 -74 121 -74c90 0 151 104 169 207z" />
    <glyph glyph-name="uni03C2" unicode="&#x3c2;" 
d="M347 -79c-14 -79 -80 -149 -155 -149l12 68c37 0 64 40 71 81c7 39 -8 77 -44 77h-30c-122 0 -163 136 -139 273s112 273 235 273c88 0 144 -76 126 -165l-64 1c10 49 -25 88 -76 88c-83 0 -132 -101 -149 -197s-3 -197 81 -197h30c76 0 116 -73 102 -153z" />
    <glyph glyph-name="sigma" unicode="&#x3c3;" horiz-adv-x="541" 
d="M562 506c-44 -14 -89 -22 -133 -28c24 -34 37 -82 37 -142c0 -177 -110 -350 -254 -350c-98 0 -157 76 -157 203c0 177 111 349 254 349c13 0 26 -1 38 -4c67 5 136 23 204 44zM391 325c0 88 -34 137 -96 137c-95 0 -165 -132 -165 -264c0 -88 34 -136 96 -136
c95 0 165 133 165 263z" />
    <glyph glyph-name="tau" unicode="&#x3c4;" horiz-adv-x="403" 
d="M386 449h-110l-51 -292c-9 -50 -1 -102 42 -102l-13 -76c-83 0 -117 87 -101 178l51 292h-111l14 76h292z" />
    <glyph glyph-name="upsilon" unicode="&#x3c5;" 
d="M405 250c-24 -137 -116 -271 -240 -271c-93 0 -137 94 -120 195l61 349h72l-61 -349c-10 -60 8 -119 62 -119c84 0 137 99 154 195c16 92 17 184 8 273h75c10 -89 5 -181 -11 -273z" />
    <glyph glyph-name="phi" unicode="&#x3c6;" horiz-adv-x="702" 
d="M653 262c-26 -147 -162 -264 -309 -281l-37 -211h-72l37 211c-142 17 -237 134 -211 281c19 109 93 211 194 272l28 -56c-80 -48 -135 -130 -150 -216c-19 -106 50 -189 152 -204l34 192c25 143 93 294 217 294c120 0 141 -144 117 -282zM581 262c17 97 26 206 -58 206
c-88 0 -115 -116 -132 -218l-34 -192c107 15 205 98 224 204z" />
    <glyph glyph-name="chi" unicode="&#x3c7;" horiz-adv-x="528" 
d="M393 -230h-80l-79 288l-179 -288h-80l235 377l-104 376h80l79 -288l179 288h80l-235 -376z" />
    <glyph glyph-name="psi" unicode="&#x3c8;" horiz-adv-x="592" 
d="M527 174c-18 -106 -125 -180 -238 -193l-37 -211h-72l37 211c-109 13 -190 87 -172 193l61 349h72l-61 -349c-11 -66 43 -106 113 -116l115 660h72l-115 -660c73 10 142 50 153 116l61 349h72z" />
    <glyph glyph-name="omega" unicode="&#x3c9;" horiz-adv-x="619" 
d="M571 270c-24 -139 -76 -291 -196 -291c-57 0 -86 31 -99 78c-28 -47 -66 -78 -119 -78c-120 0 -119 152 -95 291c15 87 55 172 101 253h55c-46 -80 -69 -167 -84 -253c-17 -98 -37 -215 36 -215c54 0 81 47 99 108c3 58 15 124 25 186h72c-22 -130 -51 -294 22 -294
c74 0 94 117 111 215c15 86 23 173 5 253h55c17 -81 27 -166 12 -253z" />
    <glyph glyph-name="uni03D1" unicode="&#x3d1;" horiz-adv-x="511" 
d="M484 388l-55 1l-38 -215c-18 -103 -107 -193 -206 -193c-100 0 -158 90 -140 193l31 175h72l-31 -175c-11 -63 20 -121 80 -121s111 58 122 121l39 220c-131 14 -238 57 -218 174c17 94 91 180 179 180c106 0 154 -109 133 -225l-13 -74h55zM368 452l12 71
c14 81 -1 165 -72 165c-56 0 -99 -59 -110 -120c-15 -85 68 -109 170 -116z" />
    <glyph glyph-name="uni03D5" unicode="&#x3d5;" horiz-adv-x="669" 
d="M620 262c-25 -143 -151 -261 -292 -279l-37 -213h-73l37 213c-134 18 -219 136 -194 279c24 142 151 260 291 278l31 178h73l-31 -178c134 -18 219 -136 195 -278zM548 262c18 102 -41 187 -135 205l-72 -411c100 18 189 103 207 206zM339 467
c-100 -18 -188 -103 -206 -205c-18 -103 41 -188 135 -206z" />
    <glyph glyph-name="uni03D6" unicode="&#x3d6;" horiz-adv-x="619" 
d="M571 270c-24 -139 -76 -291 -196 -291c-57 0 -86 31 -99 78c-28 -47 -66 -78 -119 -78c-120 0 -119 152 -95 291c15 87 55 172 101 253h55c-46 -80 -69 -167 -84 -253c-17 -98 -37 -215 36 -215c54 0 81 47 99 108c3 58 15 124 25 186h72c-22 -130 -51 -294 22 -294
c74 0 94 117 111 215c30 169 51 360 -94 360c-64 0 -129 -12 -192 -34l-10 49c70 25 141 38 211 38c174 0 192 -212 157 -413z" />
    <glyph glyph-name="epsilon.alt" unicode="&#x3f5;" horiz-adv-x="410" 
d="M414 392h-76c-9 48 -32 67 -78 67c-70 0 -123 -70 -147 -163h172l-12 -69h-172c-1 -15 -2 -31 -2 -47c0 -77 31 -119 88 -119c41 0 75 23 102 70h75c-42 -97 -106 -146 -190 -146c-95 0 -153 70 -153 187c0 190 108 366 262 366c80 0 130 -55 131 -146z" />
    <glyph glyph-name="uni0400" unicode="&#x400;" horiz-adv-x="547" 
d="M472 818h-55l-82 141h89zM466 0h-435l125 718h429l-15 -86h-349l-39 -220h323l-15 -86h-323l-41 -240h355z" />
    <glyph glyph-name="afii10023" unicode="&#x401;" horiz-adv-x="547" 
d="M466 0h-435l125 718h429l-15 -86h-349l-39 -220h323l-15 -86h-323l-41 -240h355zM345 799h-75l18 102h74zM495 901l-18 -102h-74l17 102h75z" />
    <glyph glyph-name="afii10051" unicode="&#x402;" horiz-adv-x="621" 
d="M597 280l-49 -280c-18 -106 -148 -131 -205 -131v85c39 0 118 29 124 61l50 265c1 2 2 12 2 12c0 39 -85 61 -124 61c-43 0 -128 -30 -133 -60l-52 -293h-79l110 632h-159l15 86h398l-15 -86h-159l-41 -231c40 32 92 37 133 37c46 0 187 -26 187 -131c0 -7 -2 -20 -3 -27
z" />
    <glyph glyph-name="afii10052" unicode="&#x403;" horiz-adv-x="501" 
d="M369 893l-132 -141h-55l98 141h89zM548 632h-328l-110 -632h-79l125 718h407z" />
    <glyph glyph-name="afii10053" unicode="&#x404;" horiz-adv-x="592" 
d="M564 264c-40 -113 -71 -165 -124 -211c-52 -47 -118 -72 -183 -72c-162 0 -239 146 -198 377c41 232 174 379 342 379c88 0 153 -41 182 -114c16 -37 20 -65 17 -121h-77c-3 57 -11 84 -35 110c-24 24 -60 38 -101 38c-109 0 -194 -88 -234 -238h277l-15 -87h-279
c-22 -163 30 -257 144 -257c55 0 101 24 142 73c27 32 42 61 65 123h77z" />
    <glyph glyph-name="afii10054" unicode="&#x405;" horiz-adv-x="547" 
d="M507 246c0 -157 -112 -265 -275 -265c-79 0 -128 21 -163 69c-22 32 -35 70 -35 107c0 19 2 45 7 75h75c-3 -18 -4 -35 -4 -46c0 -76 53 -122 139 -122c108 0 176 59 176 153c0 48 -26 71 -107 95l-114 34c-66 20 -100 64 -100 129c0 57 23 123 59 170
c46 61 110 92 193 92c117 0 186 -63 186 -168c0 -15 -1 -37 -4 -61h-75c1 13 2 24 2 33c0 70 -47 113 -123 113c-92 0 -157 -61 -157 -148c0 -36 18 -58 56 -69l159 -47c69 -20 105 -70 105 -144z" />
    <glyph glyph-name="afii10055" unicode="&#x406;" horiz-adv-x="228" 
d="M114 0h-79l125 718h79z" />
    <glyph glyph-name="afii10056" unicode="&#x407;" horiz-adv-x="228" 
d="M114 0h-79l125 718h79zM185 799h-75l18 102h74zM335 901l-18 -102h-74l18 102h74z" />
    <glyph glyph-name="afii10057" unicode="&#x408;" horiz-adv-x="410" 
d="M345 194c-24 -136 -99 -213 -207 -213c-89 0 -139 50 -139 139c0 13 1 27 3 40l13 71h74l-8 -50c-3 -14 -4 -27 -4 -42c0 -50 24 -75 72 -75c63 0 101 40 115 124l93 530h79z" />
    <glyph glyph-name="afii10058" unicode="&#x409;" horiz-adv-x="847" 
d="M810 257c0 -143 -96 -257 -216 -257h-264l112 633h-221c-39 -225 -112 -633 -303 -633l15 86c103 0 168 327 222 632h382l-54 -303h184c90 0 143 -61 143 -158zM727 243c0 59 -34 89 -101 89h-157l-44 -249h160c93 0 142 70 142 160z" />
    <glyph glyph-name="afii10059" unicode="&#x40a;" horiz-adv-x="882" 
d="M890 257c0 -143 -96 -257 -216 -257h-264l59 335h-308l-58 -335h-80l125 718h80l-52 -297h308l51 297h82l-54 -299h184c90 0 143 -65 143 -162zM807 243c0 59 -34 91 -101 91h-157l-44 -251h160c93 0 142 70 142 160z" />
    <glyph glyph-name="afii10060" unicode="&#x40b;" horiz-adv-x="621" 
d="M597 280l-49 -280h-80l49 280c1 2 2 12 2 12c0 39 -85 61 -124 61c-43 0 -128 -30 -133 -60l-52 -293h-79l110 632h-159l15 86h398l-15 -86h-159l-41 -231c40 32 92 37 133 37c46 0 187 -26 187 -131c0 -7 -2 -20 -3 -27z" />
    <glyph glyph-name="afii10061" unicode="&#x40c;" horiz-adv-x="565" 
d="M361 893l-132 -141h-55l98 141h89zM505 0h-103l-210 350h-27l-62 -350h-80l127 718h80l-52 -291l36 1l302 290h110l-349 -336z" />
    <glyph glyph-name="uni040D" unicode="&#x40d;" horiz-adv-x="594" 
d="M482 818h-55l-82 141h89zM618 718l-127 -718h-77l103 583l-405 -583h-89l127 718h77l-103 -583l400 583h94z" />
    <glyph glyph-name="afii10062" unicode="&#x40e;" horiz-adv-x="568" 
d="M571 926c-13 -44 -23 -64 -42 -87c-27 -32 -66 -49 -111 -49c-66 0 -101 37 -101 107l1 29h40c2 -22 3 -28 7 -38c10 -27 34 -41 68 -41c49 0 74 21 99 79h39zM629 718l-496 -718h-88l201 298l-141 420h93l108 -345l230 345h93z" />
    <glyph glyph-name="afii10145" unicode="&#x40f;" horiz-adv-x="593" 
d="M617 718l-127 -718h-188l-21 -120h-80l21 120h-199l127 718h80l-112 -631h307l112 631h80z" />
    <glyph glyph-name="afii10017" unicode="&#x410;" horiz-adv-x="547" 
d="M496 0h-87l-22 209h-236l-98 -209h-82l347 718h90zM374 295l-33 319l-150 -319h183z" />
    <glyph glyph-name="afii10018" unicode="&#x411;" horiz-adv-x="568" 
d="M519 272c0 -150 -97 -272 -244 -272h-254l127 718h417l-16 -87h-336l-39 -217h144c165 0 201 -69 201 -142zM435 244c0 61 -40 92 -119 92h-156l-44 -253h170c86 0 149 71 149 161z" />
    <glyph glyph-name="afii10019" unicode="&#x412;" horiz-adv-x="547" 
d="M515 258c0 -144 -106 -258 -241 -258h-253l125 718h259c86 0 138 -53 138 -141c0 -35 -9 -74 -25 -105c-19 -38 -41 -60 -83 -85c59 -32 80 -66 80 -129zM461 558c0 52 -35 77 -106 77h-144l-39 -221h144c57 0 95 17 119 51c15 23 26 61 26 93zM434 244
c0 61 -40 91 -119 91h-156l-44 -252h169c89 0 150 66 150 161z" />
    <glyph glyph-name="afii10020" unicode="&#x413;" horiz-adv-x="501" 
d="M548 632h-328l-110 -632h-79l125 718h407z" />
    <glyph glyph-name="afii10021" unicode="&#x414;" horiz-adv-x="666" 
d="M568 86l-36 -206h-80l21 120h-464l-21 -120h-80l36 206h53c103 0 168 327 221 632h382l-110 -632h78zM410 88l95 545h-221c-28 -160 -72 -412 -164 -545h290z" />
    <glyph glyph-name="afii10022" unicode="&#x415;" horiz-adv-x="547" 
d="M466 0h-435l125 718h429l-15 -86h-349l-39 -220h323l-15 -86h-323l-41 -240h355z" />
    <glyph glyph-name="afii10024" unicode="&#x416;" horiz-adv-x="902" 
d="M860 0h-103l-210 350h-27l-62 -350h-80l62 350h-27l-334 -350h-103l362 382l-229 336h110l198 -290h36l52 290h80l-52 -290h36l302 290h110l-349 -336z" />
    <glyph glyph-name="afii10025" unicode="&#x417;" horiz-adv-x="557" 
d="M490 197c-24 -134 -126 -216 -270 -216c-90 0 -143 27 -177 90c-24 43 -27 84 -15 161h75c-7 -47 -5 -71 6 -98c19 -45 63 -70 129 -70c95 0 159 45 173 124c12 69 -4 143 -104 143h-116l10 71h122c69 0 111 77 120 128c13 78 -28 124 -112 124c-55 0 -102 -22 -134 -61
c-18 -24 -28 -45 -38 -85h-75c16 64 28 94 52 129c47 64 121 100 210 100c71 0 121 -22 149 -67c24 -40 33 -94 23 -152c-12 -64 -41 -112 -88 -143c57 -32 75 -93 60 -178z" />
    <glyph glyph-name="afii10026" unicode="&#x418;" horiz-adv-x="594" 
d="M618 718l-127 -718h-77l103 583l-405 -583h-89l127 718h77l-103 -583l400 583h94z" />
    <glyph glyph-name="afii10027" unicode="&#x419;" horiz-adv-x="596" 
d="M563 926c-13 -44 -23 -64 -42 -87c-27 -32 -66 -49 -111 -49c-66 0 -101 37 -101 107l1 29h40c2 -22 3 -28 7 -38c10 -27 34 -41 68 -41c49 0 74 21 99 79h39zM618 718l-127 -718h-77l103 583l-405 -583h-89l127 718h77l-103 -583l400 583h94z" />
    <glyph glyph-name="afii10028" unicode="&#x41a;" horiz-adv-x="565" 
d="M505 0h-103l-210 350h-27l-62 -350h-80l127 718h80l-52 -290h36l302 290h110l-349 -336z" />
    <glyph glyph-name="afii10029" unicode="&#x41b;" horiz-adv-x="581" 
d="M537 718l-126 -718h-80l111 633h-221c-39 -225 -112 -633 -303 -633l15 86c103 0 168 327 222 632h382z" />
    <glyph glyph-name="afii10030" unicode="&#x41c;" horiz-adv-x="683" 
d="M584 0h-77l74 424l8 45l26 140l-274 -609h-78l-62 608l-23 -138c-3 -22 -6 -38 -7 -46l-74 -424h-77l125 718h114l63 -610l274 610h113z" />
    <glyph glyph-name="afii10031" unicode="&#x41d;" horiz-adv-x="592" 
d="M490 0h-80l59 335h-308l-58 -335h-80l125 718h80l-52 -297h308l51 297h80z" />
    <glyph glyph-name="afii10032" unicode="&#x41e;" horiz-adv-x="638" 
d="M637 456c0 -121 -42 -249 -111 -341c-67 -89 -151 -134 -250 -134c-65 0 -123 22 -160 61c-42 44 -70 131 -70 219c0 122 42 251 110 342c67 88 153 134 251 134c146 0 230 -103 230 -281zM554 445c0 128 -61 206 -162 206c-145 0 -263 -169 -263 -377
c0 -129 61 -207 161 -207c85 0 161 54 210 149c34 67 54 150 54 229z" />
    <glyph glyph-name="afii10033" unicode="&#x41f;" horiz-adv-x="593" 
d="M617 718l-127 -718h-80l111 631h-307l-111 -631h-80l127 718h467z" />
    <glyph glyph-name="afii10034" unicode="&#x420;" horiz-adv-x="547" 
d="M564 565c0 -64 -23 -133 -60 -182c-40 -53 -93 -80 -156 -80h-185l-53 -303h-79l125 718h265c88 0 143 -59 143 -153zM481 549c0 57 -34 86 -99 86h-161l-43 -249h158c53 0 90 18 115 54c18 27 30 72 30 109z" />
    <glyph glyph-name="afii10035" unicode="&#x421;" horiz-adv-x="592" 
d="M564 264c-41 -115 -71 -165 -124 -211c-53 -47 -118 -72 -183 -72c-131 0 -209 98 -209 261c0 135 42 276 110 365c64 85 148 130 241 130c123 0 201 -81 201 -209c0 -7 0 -15 -1 -26h-77c-2 57 -11 84 -36 110c-23 25 -59 39 -101 39c-69 0 -132 -38 -178 -108
c-46 -68 -76 -183 -76 -288c0 -121 52 -188 148 -188c56 0 102 24 143 73c26 32 42 62 65 124h77z" />
    <glyph glyph-name="afii10036" unicode="&#x422;" horiz-adv-x="501" 
d="M560 632h-199l-110 -632h-80l110 632h-199l15 86h478z" />
    <glyph glyph-name="afii10037" unicode="&#x423;" horiz-adv-x="568" 
d="M629 718l-496 -718h-88l201 298l-141 420h93l108 -345l230 345h93z" />
    <glyph glyph-name="afii10038" unicode="&#x424;" horiz-adv-x="702" 
d="M366 562c-153 0 -224 -90 -244 -200c-20 -115 22 -205 172 -205zM705 363c-14 -81 -53 -155 -120 -202c-72 -50 -129 -86 -226 -86l-13 -75h-79l13 75c-92 0 -161 31 -201 84c-43 57 -58 119 -43 204c18 104 57 163 122 213c78 60 138 69 222 69l13 73h79l-13 -73
c81 0 145 -8 199 -69c55 -63 65 -108 47 -213zM617 362c21 114 -18 200 -172 200l-72 -405c155 0 225 92 244 205z" />
    <glyph glyph-name="afii10039" unicode="&#x425;" horiz-adv-x="547" 
d="M491 0h-98l-107 295l-214 -295h-96l274 368l-136 350h100l101 -275l197 275h95l-258 -350z" />
    <glyph glyph-name="afii10040" unicode="&#x426;" horiz-adv-x="645" 
d="M601 86l-36 -206h-80l21 120h-483l127 718h80l-112 -631h307l112 631h80l-112 -632h96z" />
    <glyph glyph-name="afii10041" unicode="&#x427;" horiz-adv-x="480" 
d="M503 718l-126 -718h-80l56 317c-40 -32 -92 -37 -132 -37c-47 0 -188 26 -188 131c0 7 2 20 3 27l49 280h80l-49 -280l-2 -12c0 -39 86 -61 125 -61c42 0 127 30 133 60l51 293h80z" />
    <glyph glyph-name="afii10042" unicode="&#x428;" horiz-adv-x="696" 
d="M720 718l-127 -718h-570l127 718h80l-112 -631l166 1l111 630h80l-111 -631h164l112 631h80z" />
    <glyph glyph-name="afii10043" unicode="&#x429;" horiz-adv-x="696" 
d="M704 86l-36 -206h-80l21 120h-586l127 718h80l-112 -631l166 1l111 630h80l-111 -631h164l112 631h80l-112 -632h96z" />
    <glyph glyph-name="afii10044" unicode="&#x42a;" horiz-adv-x="723" 
d="M687 257c0 -143 -96 -257 -216 -257h-264l111 631h-223l15 87h303l-53 -303h184c90 0 143 -61 143 -158zM604 242c0 60 -35 90 -102 90h-157l-44 -249h160c92 0 143 69 143 159z" />
    <glyph glyph-name="afii10045" unicode="&#x42b;" horiz-adv-x="781" 
d="M805 718l-127 -718h-79l127 718h79zM503 257c0 -143 -96 -257 -216 -257h-264l127 718h80l-54 -303h184c90 0 143 -61 143 -158zM420 243c0 59 -34 89 -101 89h-157l-44 -249h160c93 0 142 70 142 160z" />
    <glyph glyph-name="afii10046" unicode="&#x42c;" horiz-adv-x="512" 
d="M503 257c0 -143 -96 -257 -216 -257h-264l127 718h80l-54 -303h184c90 0 143 -61 143 -158zM420 243c0 59 -34 89 -101 89h-157l-44 -249h160c93 0 142 70 142 160z" />
    <glyph glyph-name="afii10047" unicode="&#x42d;" horiz-adv-x="590" 
d="M589 468c0 -251 -148 -487 -342 -487c-65 0 -121 25 -157 72c-37 46 -50 98 -50 211h77c1 -62 6 -91 21 -123c25 -49 62 -73 117 -73c114 0 199 94 235 257h-279l15 87h277c13 150 -41 238 -150 238c-41 0 -81 -14 -114 -38c-33 -26 -51 -53 -74 -110h-77
c17 56 31 84 59 121c55 73 135 114 223 114c140 0 219 -101 219 -269z" />
    <glyph glyph-name="afii10048" unicode="&#x42e;" horiz-adv-x="915" 
d="M915 456c0 -168 -63 -296 -148 -384c-58 -59 -133 -91 -214 -91s-146 32 -182 91c-31 51 -47 116 -47 189c0 23 2 48 5 73h-167l-59 -334h-80l127 718h80l-53 -297h169c26 90 69 168 126 225c59 60 133 91 218 91c104 0 175 -55 208 -157c11 -36 17 -79 17 -124zM832 444
c0 125 -59 206 -158 206c-149 0 -268 -177 -268 -376c0 -126 60 -206 162 -206c142 0 264 178 264 376z" />
    <glyph glyph-name="afii10049" unicode="&#x42f;" horiz-adv-x="554" 
d="M548 718l-127 -718h-80l53 303h-28l-287 -303h-103l288 304h-54c-106 0 -160 83 -137 211c21 122 106 203 211 203h264zM453 635h-160c-79 0 -124 -40 -139 -123c-15 -84 18 -126 98 -126h157z" />
    <glyph glyph-name="afii10065" unicode="&#x430;" 
d="M406 64l-12 -64l-9 -3c-16 -6 -23 -7 -34 -7c-40 0 -62 20 -62 56c0 5 1 15 2 24c-57 -60 -106 -85 -167 -85c-71 0 -114 44 -114 116c0 105 65 185 162 199l122 18c32 5 50 35 50 82c0 42 -30 65 -86 65c-63 0 -95 -27 -118 -101h-66c12 52 23 77 45 105
c34 44 91 69 157 69c89 0 142 -43 142 -115c0 -10 -1 -21 -3 -31l-52 -301l-2 -11c-1 -11 7 -20 19 -20c6 0 13 1 26 4zM306 181l15 86c-17 -14 -39 -19 -125 -33c-76 -13 -109 -47 -109 -113c0 -41 22 -63 63 -63c73 0 145 56 156 123z" />
    <glyph glyph-name="afii10066" unicode="&#x431;" horiz-adv-x="478" 
d="M426 262c-29 -163 -130 -276 -248 -276c-117 0 -179 113 -150 276c14 80 44 346 192 414c60 28 120 14 190 44c26 11 40 24 46 56h56c-7 -40 -23 -80 -66 -102c-71 -36 -114 -30 -184 -52c-64 -20 -125 -141 -113 -131c38 30 82 47 130 47c115 0 175 -115 147 -276z
M351 262c21 120 -14 199 -87 199c-78 0 -140 -77 -161 -199c-21 -121 14 -199 89 -199s138 78 159 199z" />
    <glyph glyph-name="afii10067" unicode="&#x432;" horiz-adv-x="434" 
d="M406 199c0 -114 -95 -199 -223 -199h-175l92 523h180c89 0 138 -44 138 -110c0 -61 -32 -110 -92 -131c54 -10 80 -26 80 -83zM343 397c0 41 -36 57 -110 57h-77l-26 -148h76c89 0 137 29 137 91zM332 178c0 46 -43 62 -125 62h-89l-30 -170h103c83 0 141 42 141 108z
" />
    <glyph glyph-name="afii10068" unicode="&#x433;" horiz-adv-x="322" 
d="M374 523l-13 -73h-202l-79 -450h-72l92 523h274z" />
    <glyph glyph-name="afii10069" unicode="&#x434;" horiz-adv-x="536" 
d="M452 66l-34 -191h-69l22 125h-356l-22 -125h-69l34 191h61c38 0 117 225 158 457h288l-80 -457h67zM381 454h-144c-19 -109 -55 -288 -121 -385h197z" />
    <glyph glyph-name="afii10070" unicode="&#x435;" 
d="M423 233h-313c-4 -25 -6 -46 -6 -62c0 -68 37 -110 98 -110c58 0 113 43 131 103h72c-38 -113 -119 -179 -219 -179s-157 68 -157 187c0 97 33 203 84 271c46 62 108 95 176 95c51 0 92 -20 113 -56c19 -33 32 -83 32 -128c0 -31 -4 -72 -11 -121zM361 303
c1 18 2 34 2 47c0 67 -35 109 -91 109c-69 0 -129 -63 -150 -156h239z" />
    <glyph glyph-name="afii10072" unicode="&#x436;" horiz-adv-x="656" 
d="M611 0h-93l-156 209l-37 -209h-70l37 209l-230 -209h-93l281 262l-179 261h91l146 -221l39 221h70l-39 -221l224 221h91l-271 -261z" />
    <glyph glyph-name="afii10073" unicode="&#x437;" horiz-adv-x="410" 
d="M369 157c-18 -105 -99 -172 -208 -172c-71 0 -121 28 -139 79c-11 27 -11 52 -5 104h70c-8 -74 19 -106 92 -106c63 0 107 31 116 82c7 39 1 96 -68 96h-69l12 69h58c66 0 84 41 91 78c8 46 -21 74 -76 74c-63 0 -99 -28 -113 -87h-70c25 105 93 164 191 164
c99 0 153 -65 135 -165c-8 -43 -28 -76 -59 -99c35 -22 52 -61 42 -117z" />
    <glyph glyph-name="afii10074" unicode="&#x438;" horiz-adv-x="471" 
d="M455 523l-92 -523h-72l75 427l-261 -427h-92l92 523h72l-76 -432l262 432h92z" />
    <glyph glyph-name="afii10075" unicode="&#x439;" horiz-adv-x="473" 
d="M457 731c-13 -44 -23 -64 -42 -87c-27 -32 -66 -49 -111 -49c-66 0 -101 37 -101 107l1 29h40c2 -22 3 -28 7 -38c10 -27 34 -41 68 -41c49 0 74 21 99 79h39zM455 523l-92 -523h-72l75 427l-261 -427h-92l92 523h72l-76 -432l262 432h92z" />
    <glyph glyph-name="afii10076" unicode="&#x43a;" horiz-adv-x="411" 
d="M371 0h-93l-157 209l-36 -209h-70l92 523h70l-39 -221l224 221h91l-271 -261z" />
    <glyph glyph-name="afii10077" unicode="&#x43b;" horiz-adv-x="439" 
d="M393 523l-92 -523h-72l80 454h-144c-27 -156 -80 -454 -230 -454l13 70c62 0 116 221 157 453h288z" />
    <glyph glyph-name="afii10078" unicode="&#x43c;" horiz-adv-x="555" 
d="M539 523l-92 -523h-72l62 354l-168 -354h-78l-44 354l-62 -354h-72l92 523h105l37 -429l187 429h105z" />
    <glyph glyph-name="afii10079" unicode="&#x43d;" horiz-adv-x="471" 
d="M455 523l-92 -523h-72l44 247h-206l-44 -247h-72l92 523h72l-36 -206h206l37 206h71z" />
    <glyph glyph-name="afii10080" unicode="&#x43e;" 
d="M439 336c0 -92 -31 -187 -82 -255c-47 -63 -105 -95 -172 -95c-98 0 -157 76 -157 203c0 89 32 188 82 254c47 62 106 95 172 95c98 0 157 -76 157 -202zM364 325c0 88 -34 137 -96 137c-50 0 -93 -32 -124 -92c-26 -50 -41 -114 -41 -172c0 -88 34 -136 96 -136
c50 0 93 32 124 92c26 50 41 114 41 171z" />
    <glyph glyph-name="afii10081" unicode="&#x43f;" horiz-adv-x="471" 
d="M455 523l-92 -523h-72l80 454h-206l-80 -454h-72l92 523h350z" />
    <glyph glyph-name="afii10082" unicode="&#x440;" 
d="M439 355c0 -99 -34 -210 -88 -282c-43 -58 -96 -88 -157 -88c-53 0 -85 22 -104 73l-47 -265h-72l127 730h69l-14 -77c52 69 89 92 148 92c85 0 138 -70 138 -183zM364 348c0 71 -32 111 -91 111c-47 0 -87 -29 -113 -81c-28 -58 -47 -139 -47 -200
c0 -71 36 -117 92 -117c38 0 74 23 101 64c32 48 58 148 58 223z" />
    <glyph glyph-name="afii10083" unicode="&#x441;" horiz-adv-x="410" 
d="M384 185c-41 -133 -111 -200 -210 -200c-95 0 -153 70 -153 187c0 97 33 203 84 271c47 62 108 95 178 95c81 0 131 -56 131 -148c0 -11 -1 -26 -2 -43h-70c-1 37 -1 40 -5 56c-11 37 -37 56 -77 56c-48 0 -89 -30 -118 -87c-26 -51 -43 -127 -43 -192
c0 -77 31 -119 88 -119c55 0 97 41 127 124h70z" />
    <glyph glyph-name="afii10084" unicode="&#x442;" horiz-adv-x="334" 
d="M369 523l-13 -73h-120l-79 -450h-72l79 450h-120l13 73h312z" />
    <glyph glyph-name="afii10085" unicode="&#x443;" horiz-adv-x="412" 
d="M449 523l-244 -513c-100 -205 -117 -224 -201 -224c-12 0 -16 1 -29 6l-3 1l-3 1l14 80c14 -6 27 -9 42 -9c30 0 45 14 70 67l27 54l-65 537h82l40 -429l190 429h80z" />
    <glyph glyph-name="afii10086" unicode="&#x444;" horiz-adv-x="745" 
d="M722 274c-31 -174 -125 -289 -238 -289c-53 0 -85 22 -105 73l-46 -265h-75l45 265c-38 -51 -76 -73 -129 -73c-113 0 -167 115 -136 289c27 158 117 264 223 264c58 0 89 -24 115 -92l32 182h68l-32 -182c50 68 89 92 147 92c106 0 158 -106 131 -264zM339 245
c25 142 -2 215 -80 215c-74 0 -125 -66 -147 -189c-23 -132 5 -209 78 -209c72 0 129 69 149 183zM646 271c22 123 -7 189 -81 189c-78 0 -131 -73 -156 -215c-20 -114 13 -183 85 -183c73 0 129 77 152 209z" />
    <glyph glyph-name="afii10087" unicode="&#x445;" horiz-adv-x="410" 
d="M362 0h-92l-72 197l-138 -197h-91l198 269l-100 254h93l67 -184l132 184h88l-189 -254z" />
    <glyph glyph-name="afii10088" unicode="&#x446;" horiz-adv-x="486" 
d="M452 66l-34 -191h-69l22 125h-358l92 523h72l-80 -454h206l80 454h72l-80 -457h77z" />
    <glyph glyph-name="afii10089" unicode="&#x447;" horiz-adv-x="386" 
d="M371 523l-93 -523h-72l41 228c-31 -23 -58 -22 -106 -22c-63 0 -122 45 -122 113c0 7 0 14 2 22l32 182h72l-36 -201v-3c0 -17 26 -43 78 -43c45 0 90 12 94 38l38 209h72z" />
    <glyph glyph-name="afii10090" unicode="&#x448;" horiz-adv-x="605" 
d="M589 523l-92 -523h-484l92 523h72l-80 -454h134l80 454h72l-80 -454h134l80 454h72z" />
    <glyph glyph-name="afii10091" unicode="&#x449;" horiz-adv-x="605" 
d="M586 66l-34 -191h-69l22 125h-492l92 523h72l-80 -454h134l80 454h72l-80 -454h134l80 454h72l-80 -457h77z" />
    <glyph glyph-name="afii10092" unicode="&#x44a;" horiz-adv-x="490" 
d="M474 185c0 -108 -104 -185 -221 -185h-175l80 454h-114l12 69h182l-38 -217h126c101 0 148 -57 148 -121zM402 178c0 46 -43 62 -125 62h-89l-30 -170h103c83 0 141 42 141 108z" />
    <glyph glyph-name="afii10093" unicode="&#x44b;" horiz-adv-x="601" 
d="M585 523l-92 -523h-72l92 523h72zM409 185c0 -108 -104 -185 -221 -185h-175l92 523h68l-38 -217h126c101 0 148 -57 148 -121zM337 178c0 46 -43 62 -125 62h-89l-30 -170h103c83 0 141 42 141 108z" />
    <glyph glyph-name="afii10094" unicode="&#x44c;" horiz-adv-x="425" 
d="M409 185c0 -108 -104 -185 -221 -185h-175l92 523h68l-38 -217h126c101 0 148 -57 148 -121zM337 178c0 46 -43 62 -125 62h-89l-30 -170h103c83 0 141 42 141 108z" />
    <glyph glyph-name="afii10095" unicode="&#x44d;" horiz-adv-x="430" 
d="M406 252c-28 -163 -122 -267 -239 -267c-98 0 -145 67 -138 200h70c0 -82 28 -123 83 -123c70 0 123 67 147 185h-166l12 70h162c4 92 -27 143 -90 143c-57 0 -94 -34 -120 -113h-70c36 128 101 191 197 191c124 0 183 -111 152 -286z" />
    <glyph glyph-name="afii10096" unicode="&#x44e;" horiz-adv-x="668" 
d="M651 338c0 -182 -115 -352 -254 -352c-114 0 -175 106 -152 261h-116l-44 -247h-72l92 523h72l-36 -206h118c39 135 131 221 238 221c96 0 154 -80 154 -200zM575 327c0 83 -34 134 -93 134c-95 0 -167 -129 -167 -264c0 -83 34 -134 95 -134c96 0 165 129 165 264z" />
    <glyph glyph-name="afii10097" unicode="&#x44f;" horiz-adv-x="463" 
d="M447 523l-92 -523h-68l38 218h-21l-242 -218h-93l237 218c-114 0 -166 70 -153 145c17 94 99 160 219 160h175zM367 454h-103c-78 0 -128 -31 -139 -91c-10 -59 32 -79 123 -79h89z" />
    <glyph glyph-name="uni0450" unicode="&#x450;" 
d="M380 623h-55l-82 141h89zM423 233h-313c-4 -25 -6 -46 -6 -62c0 -68 37 -110 98 -110c58 0 113 43 131 103h72c-38 -113 -119 -179 -219 -179s-157 68 -157 187c0 97 33 203 84 271c46 62 108 95 176 95c51 0 92 -20 113 -56c19 -33 32 -83 32 -128
c0 -31 -4 -72 -11 -121zM361 303c1 18 2 34 2 47c0 67 -35 109 -91 109c-69 0 -129 -63 -150 -156h239z" />
    <glyph glyph-name="afii10071" unicode="&#x451;" 
d="M423 233h-313c-4 -25 -6 -46 -6 -62c0 -68 37 -110 98 -110c58 0 113 43 131 103h72c-38 -113 -119 -179 -219 -179s-157 68 -157 187c0 97 33 203 84 271c46 62 108 95 176 95c51 0 92 -20 113 -56c19 -33 32 -83 32 -128c0 -31 -4 -72 -11 -121zM361 303
c1 18 2 34 2 47c0 67 -35 109 -91 109c-69 0 -129 -63 -150 -156h239zM264 604h-75l18 102h74zM414 706l-18 -102h-74l17 102h75z" />
    <glyph glyph-name="afii10099" unicode="&#x452;" horiz-adv-x="497" 
d="M439 251l-44 -251c-16 -94 -53 -128 -143 -128v79c46 0 60 30 68 69l44 217c3 16 5 36 5 48c0 47 -22 69 -68 69c-77 0 -133 -63 -152 -174l-32 -180h-72l89 507h-80l13 73h80l23 138h73l-24 -138h160l-13 -73h-160l-28 -161c53 65 90 87 147 87c75 0 119 -47 119 -128
c0 -17 -2 -35 -5 -54z" />
    <glyph glyph-name="afii10100" unicode="&#x453;" horiz-adv-x="322" 
d="M313 707l-132 -141h-55l98 141h89zM374 523l-13 -73h-202l-79 -450h-72l92 523h274z" />
    <glyph glyph-name="afii10101" unicode="&#x454;" horiz-adv-x="408" 
d="M383 185c-41 -133 -112 -200 -210 -200c-117 0 -173 104 -145 267c31 175 130 286 254 286c96 0 139 -63 129 -191h-70c2 79 -23 113 -80 113c-63 0 -112 -51 -140 -143h162l-13 -70h-166c-18 -118 11 -185 82 -185c55 0 97 41 127 123h70z" />
    <glyph glyph-name="afii10102" unicode="&#x455;" horiz-adv-x="410" 
d="M371 189c0 -42 -17 -92 -44 -127c-39 -50 -96 -77 -163 -77c-97 0 -152 48 -152 131c0 12 1 31 4 52h70c-1 -11 -2 -21 -2 -29c0 -50 34 -78 94 -78c68 0 117 40 117 97c0 28 -19 44 -74 61l-79 25c-53 17 -79 49 -79 98c0 110 86 196 195 196c84 0 136 -49 136 -130
c0 -8 -1 -20 -2 -34h-70c1 9 2 17 2 22c0 42 -31 66 -83 66c-62 0 -104 -37 -104 -90c0 -26 14 -37 66 -54l69 -22c70 -23 99 -54 99 -107z" />
    <glyph glyph-name="afii10103" unicode="&#x456;" horiz-adv-x="182" 
d="M87 0h-72l91 523h72zM195 618h-72l17 100h72z" />
    <glyph glyph-name="afii10104" unicode="&#x457;" horiz-adv-x="228" 
d="M110 0h-72l91 523h72zM151 604h-75l18 102h74zM301 706l-18 -102h-74l17 102h75z" />
    <glyph glyph-name="afii10105" unicode="&#x458;" horiz-adv-x="182" 
d="M74 -77c-16 -91 -57 -133 -131 -133c-11 0 -21 1 -32 3l13 76h15c46 0 55 9 64 64l103 590h72zM195 618h-72l17 100h72z" />
    <glyph glyph-name="afii10106" unicode="&#x459;" horiz-adv-x="657" 
d="M628 185c0 -108 -104 -185 -221 -185h-175l77 454h-144c-27 -156 -80 -454 -230 -454l13 70c62 0 116 221 157 453h287l-38 -217h126c101 0 148 -57 148 -121zM556 178c0 46 -43 62 -125 62h-89l-30 -170h103c83 0 141 42 141 108z" />
    <glyph glyph-name="afii10107" unicode="&#x45a;" horiz-adv-x="777" 
d="M687 185c0 -108 -104 -185 -221 -185h-175l44 247h-206l-44 -247h-72l92 523l72 1l-36 -207h206l37 208h68l-39 -210h126c101 0 148 -66 148 -130zM615 178c0 46 -43 68 -125 68h-89l-30 -176h103c83 0 141 42 141 108z" />
    <glyph glyph-name="afii10108" unicode="&#x45b;" horiz-adv-x="497" 
d="M439 251l-44 -251h-72l41 237c3 16 5 36 5 48c0 47 -22 69 -68 69c-77 0 -133 -63 -152 -174l-32 -180h-72l89 507h-80l13 73h80l23 138h73l-24 -138h160l-13 -73h-160l-28 -161c53 65 90 87 147 87c75 0 119 -47 119 -128c0 -17 -2 -35 -5 -54z" />
    <glyph glyph-name="afii10109" unicode="&#x45c;" horiz-adv-x="411" 
d="M313 707l-132 -141h-55l98 141h89zM371 0h-93l-157 209l-36 -209h-70l92 523h70l-39 -221l224 221h91l-271 -261z" />
    <glyph glyph-name="uni045D" unicode="&#x45d;" horiz-adv-x="471" 
d="M378 623h-55l-82 141h89zM455 523l-92 -523h-72l75 427l-261 -427h-92l92 523l72 1l-76 -433l262 432s66 -1 92 0z" />
    <glyph glyph-name="afii10110" unicode="&#x45e;" horiz-adv-x="412" 
d="M439 731c-13 -44 -23 -64 -42 -87c-27 -32 -66 -49 -111 -49c-66 0 -101 37 -101 107l1 29h40c2 -22 3 -28 7 -38c10 -27 34 -41 68 -41c49 0 74 21 99 79h39zM449 523l-244 -513c-100 -205 -117 -224 -201 -224c-12 0 -16 1 -29 6l-3 1l-3 1l14 80c14 -6 27 -9 42 -9
c30 0 45 14 70 67l27 54l-65 537h82l40 -429l190 429h80z" />
    <glyph glyph-name="afii10193" unicode="&#x45f;" horiz-adv-x="471" 
d="M455 523l-92 -523h-140l-22 -125h-69l22 125h-141l92 523h72l-80 -454h206l80 454h72z" />
    <glyph glyph-name="uni048C" unicode="&#x48c;" horiz-adv-x="512" 
d="M498 203c-22 -122 -106 -203 -211 -203h-264l127 718h80l-54 -303h184c106 0 160 -84 138 -212zM416 206c15 84 -17 126 -97 126h-157l-44 -249h160c79 0 124 40 138 123z" />
    <glyph glyph-name="uni048D" unicode="&#x48d;" horiz-adv-x="425" 
d="M407 161c-16 -94 -99 -161 -219 -161h-175l92 524l68 -1l-38 -217h126c114 0 159 -72 146 -145zM335 161c11 59 -32 79 -123 79h-89l-30 -170h103c78 0 129 31 139 91z" />
    <glyph glyph-name="uni048E" unicode="&#x48e;" horiz-adv-x="547" 
d="M564 565c0 -64 -23 -133 -60 -182c-40 -53 -93 -80 -156 -80h-185l-53 -303h-79l125 718h265c88 0 143 -59 143 -153zM481 549c0 57 -34 86 -99 86h-161l-43 -249h158c53 0 90 18 115 54c18 27 30 72 30 109z" />
    <glyph glyph-name="uni048F" unicode="&#x48f;" 
d="M439 355c0 -99 -34 -210 -88 -282c-43 -58 -96 -88 -157 -88c-53 0 -85 22 -104 73l-47 -265h-72l127 730h69l-14 -77c52 69 89 92 148 92c85 0 138 -70 138 -183zM364 348c0 71 -32 111 -91 111c-47 0 -87 -29 -113 -81c-28 -58 -47 -139 -47 -200
c0 -71 36 -117 92 -117c38 0 74 23 101 64c32 48 58 148 58 223z" />
    <glyph glyph-name="afii10050" unicode="&#x490;" horiz-adv-x="516" 
d="M579 799l-30 -168h-327l-111 -631h-80l127 718h329l14 81h78z" />
    <glyph glyph-name="afii10098" unicode="&#x491;" horiz-adv-x="344" 
d="M386 591l-25 -141h-202l-79 -450h-72l92 523l210 2l11 66h65z" />
    <glyph glyph-name="uni0492" unicode="&#x492;" horiz-adv-x="501" 
d="M548 632h-328l-26 -154h135l-12 -70h-135l-71 -408h-79l71 408h-86l12 70h86l41 240h407z" />
    <glyph glyph-name="uni0493" unicode="&#x493;" horiz-adv-x="322" 
d="M374 523l-13 -73h-202l-21 -120h68l-12 -70h-68l-45 -260h-72l46 260h-62l12 70h62l33 193h274z" />
    <glyph glyph-name="uni0494" unicode="&#x494;" horiz-adv-x="501" 
d="M548 632h-328l-110 -632h-79l125 718h407z" />
    <glyph glyph-name="uni0495" unicode="&#x495;" horiz-adv-x="322" 
d="M374 523l-13 -73h-202l-79 -450h-72l92 523h274z" />
    <glyph glyph-name="uni0496" unicode="&#x496;" horiz-adv-x="902" 
d="M875 86l-36 -206h-80l21 120h-23l-210 350h-27l-62 -350h-80l62 350h-27l-334 -350h-103l362 382l-229 336h110l198 -290h36l52 290h80l-52 -290h36l302 290h110l-349 -336l177 -296h66z" />
    <glyph glyph-name="uni0497" unicode="&#x497;" horiz-adv-x="656" 
d="M623 66l-34 -191h-69l22 125h-24l-156 209l-37 -209h-70l37 209l-230 -209h-93l281 262l-179 261h91l146 -221l39 221h70l-39 -221l224 221h91l-271 -261l141 -196h60z" />
    <glyph glyph-name="uni0498" unicode="&#x498;" horiz-adv-x="557" 
d="M490 197c-24 -134 -126 -216 -270 -216c-90 0 -143 27 -177 90c-24 43 -27 84 -15 161h75c-7 -47 -5 -71 6 -98c19 -45 63 -70 129 -70c95 0 159 45 173 124c12 69 -4 141 -104 143l-116 2l10 69h122c69 0 111 77 120 128c13 78 -28 124 -112 124
c-55 0 -102 -22 -134 -61c-18 -24 -28 -45 -38 -85h-75c16 64 28 94 52 129c47 64 121 100 210 100c71 0 121 -22 149 -67c24 -40 33 -94 23 -152c-12 -64 -41 -112 -88 -143c57 -32 75 -93 60 -178z" />
    <glyph glyph-name="uni0499" unicode="&#x499;" horiz-adv-x="410" 
d="M369 157c-18 -105 -99 -172 -208 -172c-71 0 -121 28 -139 79c-11 27 -11 52 -5 104h70c-8 -74 19 -106 92 -106c63 0 107 31 116 82c7 39 1 96 -68 96h-69l12 69h58c66 0 84 41 91 78c8 46 -21 74 -76 74c-63 0 -99 -28 -113 -87h-70c25 105 93 164 191 164
c99 0 153 -65 135 -165c-8 -43 -28 -76 -59 -99c35 -22 52 -61 42 -117z" />
    <glyph glyph-name="uni049A" unicode="&#x49a;" horiz-adv-x="565" 
d="M520 86l-36 -206h-80l21 120h-23l-210 350h-27l-62 -350h-80l127 718h80l-52 -291l36 1l302 290h110l-349 -336l177 -296h66z" />
    <glyph glyph-name="uni049B" unicode="&#x49b;" horiz-adv-x="411" 
d="M383 66l-34 -191h-69l22 125h-24l-157 209l-36 -209h-70l92 523h70l-39 -221l224 221h91l-271 -261l142 -196h59z" />
    <glyph glyph-name="uni049C" unicode="&#x49c;" horiz-adv-x="565" 
d="M505 0h-103l-210 350h-27l-62 -350h-80l127 718h80l-52 -291l36 1l302 290h110l-349 -336z" />
    <glyph glyph-name="uni049D" unicode="&#x49d;" horiz-adv-x="411" 
d="M371 0h-93l-157 209l-36 -209h-70l92 523h70l-39 -221l224 221h91l-271 -261z" />
    <glyph glyph-name="uni049E" unicode="&#x49e;" horiz-adv-x="565" 
d="M505 0h-103l-210 350h-27l-62 -350h-80l127 718h80l-52 -291l36 1l302 290h110l-349 -336z" />
    <glyph glyph-name="uni049F" unicode="&#x49f;" horiz-adv-x="411" 
d="M371 0h-93l-157 209l-36 -209h-70l92 523h70l-39 -221l224 221h91l-271 -261z" />
    <glyph glyph-name="uni04A0" unicode="&#x4a0;" horiz-adv-x="565" 
d="M505 0h-103l-210 350h-27l-62 -350h-80l127 718h80l-52 -291l36 1l302 290h110l-349 -336z" />
    <glyph glyph-name="uni04A1" unicode="&#x4a1;" horiz-adv-x="411" 
d="M371 0h-93l-157 209l-36 -209h-70l92 523h70l-39 -221l224 221h91l-271 -261z" />
    <glyph glyph-name="uni04A2" unicode="&#x4a2;" horiz-adv-x="592" 
d="M581 86l-36 -206h-80l21 120h-76l59 335h-308l-58 -335h-80l125 718h80l-52 -297h308l51 297h80l-110 -632h76z" />
    <glyph glyph-name="uni04A3" unicode="&#x4a3;" horiz-adv-x="471" 
d="M432 66l-34 -191h-69l22 125h-60l44 247h-206l-44 -247h-72l92 523l72 1l-36 -207h206l37 208l71 -2l-80 -457h57z" />
    <glyph glyph-name="uni04A4" unicode="&#x4a4;" horiz-adv-x="592" 
d="M490 0h-80l59 335h-308l-58 -335h-80l125 718h80l-52 -297h308l51 297h80z" />
    <glyph glyph-name="uni04A5" unicode="&#x4a5;" horiz-adv-x="471" 
d="M455 523l-92 -523h-72l44 247h-206l-44 -247h-72l92 523l72 1l-36 -207h206l37 208z" />
    <glyph glyph-name="uni04A6" unicode="&#x4a6;" horiz-adv-x="593" 
d="M617 718l-127 -718h-80l111 631h-307l-111 -631h-80l127 718h467z" />
    <glyph glyph-name="uni04A7" unicode="&#x4a7;" horiz-adv-x="471" 
d="M455 523l-92 -523h-72l80 454h-206l-80 -454h-72l92 523h350z" />
    <glyph glyph-name="uni04A8" unicode="&#x4a8;" horiz-adv-x="592" 
d="M564 264c-41 -115 -71 -165 -124 -211c-53 -47 -118 -72 -183 -72c-131 0 -209 98 -209 261c0 135 42 276 110 365c64 85 148 130 241 130c123 0 201 -81 201 -209c0 -7 0 -15 -1 -26h-77c-2 57 -11 84 -36 110c-23 25 -59 39 -101 39c-69 0 -132 -38 -178 -108
c-46 -68 -76 -183 -76 -288c0 -121 52 -188 148 -188c56 0 102 24 143 73c26 32 42 62 65 124h77z" />
    <glyph glyph-name="uni04A9" unicode="&#x4a9;" horiz-adv-x="410" 
d="M384 185c-41 -133 -111 -200 -210 -200c-95 0 -153 70 -153 187c0 97 33 203 84 271c47 62 108 95 178 95c81 0 131 -56 131 -148c0 -11 -1 -26 -2 -43h-70c-1 37 -1 40 -5 56c-11 37 -37 56 -77 56c-48 0 -89 -30 -118 -87c-26 -51 -43 -127 -43 -192
c0 -77 31 -119 88 -119c55 0 97 41 127 124h70z" />
    <glyph glyph-name="uni04AA" unicode="&#x4aa;" horiz-adv-x="592" 
d="M564 264c-41 -115 -71 -165 -124 -211c-53 -47 -118 -72 -183 -72c-131 0 -209 98 -209 261c0 135 42 276 110 365c64 85 148 130 241 130c123 0 201 -81 201 -209c0 -7 0 -15 -1 -26h-77c-2 57 -11 84 -36 110c-23 25 -59 39 -101 39c-69 0 -132 -38 -178 -108
c-46 -68 -76 -183 -76 -288c0 -121 52 -188 148 -188c56 0 102 24 143 73c26 32 42 62 65 124h77z" />
    <glyph glyph-name="uni04AB" unicode="&#x4ab;" horiz-adv-x="410" 
d="M384 185c-41 -133 -111 -200 -210 -200c-95 0 -153 70 -153 187c0 97 33 203 84 271c47 62 108 95 178 95c81 0 131 -56 131 -148c0 -11 -1 -26 -2 -43h-70c-1 37 -1 40 -5 56c-11 37 -37 56 -77 56c-48 0 -89 -30 -118 -87c-26 -51 -43 -127 -43 -192
c0 -77 31 -119 88 -119c55 0 97 41 127 124h70z" />
    <glyph glyph-name="uni04AC" unicode="&#x4ac;" horiz-adv-x="501" 
d="M560 632h-199l-95 -546h76l-36 -206h-80l21 120h-76l110 632h-199l15 86h478z" />
    <glyph glyph-name="uni04AD" unicode="&#x4ad;" horiz-adv-x="334" 
d="M369 523l-13 -73h-120l-67 -384h57l-34 -191h-69l22 125h-60l79 450h-120l13 73h312z" />
    <glyph glyph-name="uni04AE" unicode="&#x4ae;" horiz-adv-x="547" 
d="M621 718l-297 -429l-50 -289h-80l50 289l-147 429h93l108 -345l230 345h93z" />
    <glyph glyph-name="uni04AF" unicode="&#x4af;" horiz-adv-x="547" 
d="M559 523l-267 -429l-50 -289h-80l50 289l-117 429h93l78 -345l200 345h93z" />
    <glyph glyph-name="uni04B0" unicode="&#x4b0;" horiz-adv-x="547" 
d="M621 718l-297 -429l-3 -19h165l-11 -60h-165l-36 -210h-80l36 210h-165l11 60h165l3 19l-147 429h93l108 -345l230 345h93z" />
    <glyph glyph-name="uni04B1" unicode="&#x4b1;" horiz-adv-x="547" 
d="M559 523l-267 -429h135l-10 -60h-135l-40 -229h-80l40 229h-135l10 60h135l-117 429h93l78 -345l200 345h93z" />
    <glyph glyph-name="uni04B2" unicode="&#x4b2;" horiz-adv-x="547" 
d="M506 86l-36 -206h-80l21 120h-18l-107 295l-214 -295h-96l274 368l-136 350h100l101 -275l197 275h95l-258 -350l108 -282h49z" />
    <glyph glyph-name="uni04B3" unicode="&#x4b3;" horiz-adv-x="410" 
d="M374 66l-34 -191h-69l22 125h-23l-72 197l-138 -197h-91l198 269l-100 254h93l67 -184l132 184h88l-189 -254l78 -203h38z" />
    <glyph glyph-name="uni04B4" unicode="&#x4b4;" horiz-adv-x="645" 
d="M601 86l-36 -206h-80l21 120h-483l127 718h80l-112 -631h307l112 631h80l-112 -632h96z" />
    <glyph glyph-name="uni04B5" unicode="&#x4b5;" horiz-adv-x="486" 
d="M452 66l-34 -191h-69l22 125h-358l92 523h72l-80 -454h206l80 454h72l-80 -457h77z" />
    <glyph glyph-name="uni04B6" unicode="&#x4b6;" horiz-adv-x="480" 
d="M503 718l-126 -718h-80l56 317c-40 -32 -92 -37 -132 -37c-47 0 -188 26 -188 131c0 7 2 20 3 27l49 280h80l-49 -280l-2 -12c0 -39 86 -61 125 -61c42 0 127 30 133 60l51 293h80z" />
    <glyph glyph-name="uni04B7" unicode="&#x4b7;" horiz-adv-x="386" 
d="M371 523l-93 -523h-72l41 228c-31 -23 -58 -22 -106 -22c-63 0 -122 45 -122 113c0 7 0 14 2 22l32 182l72 1l-36 -202v-3c0 -17 26 -43 78 -43c45 0 90 12 94 38l38 211z" />
    <glyph glyph-name="uni04B8" unicode="&#x4b8;" horiz-adv-x="480" 
d="M503 718l-126 -718h-80l56 317c-40 -32 -92 -37 -132 -37c-47 0 -188 26 -188 131c0 7 2 20 3 27l49 280h80l-49 -280l-2 -12c0 -39 86 -61 125 -61c42 0 127 30 133 60l51 293h80z" />
    <glyph glyph-name="uni04B9" unicode="&#x4b9;" horiz-adv-x="386" 
d="M371 523l-93 -523h-72l41 228c-31 -23 -58 -22 -106 -22c-63 0 -122 45 -122 113c0 7 0 14 2 22l32 182l72 1l-36 -202v-3c0 -17 26 -43 78 -43c45 0 90 12 94 38l38 211z" />
    <glyph glyph-name="uni04BA" unicode="&#x4ba;" horiz-adv-x="480" 
d="M460 280l-49 -280h-80l49 280c1 2 2 12 2 12c0 39 -85 61 -124 61c-43 0 -128 -30 -133 -60l-52 -293h-80l126 718h80l-56 -317c40 32 92 37 133 37c46 0 187 -26 187 -131c0 -7 -2 -20 -3 -27z" />
    <glyph glyph-name="uni04BB" unicode="&#x4bb;" horiz-adv-x="386" 
d="M347 184l-32 -182l-72 -1l36 202v3c0 17 -27 43 -78 43c-45 0 -90 -12 -95 -38l-37 -211l-72 2l93 523h72l-41 -228c31 23 58 22 106 22c63 0 122 -45 122 -113c0 -7 -1 -14 -2 -22z" />
    <glyph glyph-name="uni04BC" unicode="&#x4bc;" horiz-adv-x="592" 
d="M564 264c-41 -115 -71 -165 -124 -211c-53 -47 -118 -72 -183 -72c-131 0 -209 98 -209 261c0 135 42 276 110 365c64 85 148 130 241 130c123 0 201 -81 201 -209c0 -7 0 -15 -1 -26h-77c-2 57 -11 84 -36 110c-23 25 -59 39 -101 39c-69 0 -132 -38 -178 -108
c-46 -68 -76 -183 -76 -288c0 -121 52 -188 148 -188c56 0 102 24 143 73c26 32 42 62 65 124h77z" />
    <glyph glyph-name="uni04BD" unicode="&#x4bd;" horiz-adv-x="410" 
d="M384 185c-41 -133 -111 -200 -210 -200c-95 0 -153 70 -153 187c0 97 33 203 84 271c47 62 108 95 178 95c81 0 131 -56 131 -148c0 -11 -1 -26 -2 -43h-70c-1 37 -1 40 -5 56c-11 37 -37 56 -77 56c-48 0 -89 -30 -118 -87c-26 -51 -43 -127 -43 -192
c0 -77 31 -119 88 -119c55 0 97 41 127 124h70z" />
    <glyph glyph-name="uni04BE" unicode="&#x4be;" horiz-adv-x="592" 
d="M564 264c-41 -115 -71 -165 -124 -211c-53 -47 -118 -72 -183 -72c-131 0 -209 98 -209 261c0 135 42 276 110 365c64 85 148 130 241 130c123 0 201 -81 201 -209c0 -7 0 -15 -1 -26h-77c-2 57 -11 84 -36 110c-23 25 -59 39 -101 39c-69 0 -132 -38 -178 -108
c-46 -68 -76 -183 -76 -288c0 -121 52 -188 148 -188c56 0 102 24 143 73c26 32 42 62 65 124h77z" />
    <glyph glyph-name="uni04BF" unicode="&#x4bf;" horiz-adv-x="410" 
d="M384 185c-41 -133 -111 -200 -210 -200c-95 0 -153 70 -153 187c0 97 33 203 84 271c47 62 108 95 178 95c81 0 131 -56 131 -148c0 -11 -1 -26 -2 -43h-70c-1 37 -1 40 -5 56c-11 37 -37 56 -77 56c-48 0 -89 -30 -118 -87c-26 -51 -43 -127 -43 -192
c0 -77 31 -119 88 -119c55 0 97 41 127 124h70z" />
    <glyph glyph-name="uni04C0" unicode="&#x4c0;" horiz-adv-x="228" 
d="M114 0h-79l125 718h79z" />
    <glyph glyph-name="uni04C1" unicode="&#x4c1;" horiz-adv-x="902" 
d="M711 954c-13 -44 -23 -64 -42 -87c-27 -32 -66 -49 -111 -49c-66 0 -101 37 -101 107l1 29h40c2 -22 3 -28 7 -38c10 -27 34 -41 68 -41c49 0 74 21 99 79h39zM860 0h-103l-210 350h-27l-62 -350h-80l62 350h-27l-334 -350h-103l362 382l-229 336h110l198 -290h36l52 290
h80l-52 -290h36l302 290h110l-349 -336z" />
    <glyph glyph-name="uni04C2" unicode="&#x4c2;" horiz-adv-x="656" 
d="M549 759c-13 -44 -23 -64 -42 -87c-27 -32 -66 -49 -111 -49c-66 0 -101 37 -101 107l1 29h40c2 -22 3 -28 7 -38c10 -27 34 -41 68 -41c49 0 74 21 99 79h39zM611 0h-93l-156 209l-37 -209h-70l37 209l-230 -209h-93l281 262l-179 261h91l146 -221l39 221h70l-39 -221
l224 221h91l-271 -261z" />
    <glyph glyph-name="uni04C3" unicode="&#x4c3;" horiz-adv-x="565" 
d="M505 0h-103l-210 350h-27l-62 -350h-80l127 718h80l-52 -291l36 1l302 290h110l-349 -336z" />
    <glyph glyph-name="uni04C4" unicode="&#x4c4;" horiz-adv-x="411" 
d="M371 0h-93l-157 209l-36 -209h-70l92 523h70l-39 -221l224 221h91l-271 -261z" />
    <glyph glyph-name="uni04C7" unicode="&#x4c7;" horiz-adv-x="592" 
d="M490 0h-80l59 335h-308l-58 -335h-80l125 718h80l-52 -297h308l51 297h80z" />
    <glyph glyph-name="uni04C8" unicode="&#x4c8;" horiz-adv-x="471" 
d="M455 523l-92 -523h-72l44 247h-206l-44 -247h-72l92 523l72 1l-36 -207h206l37 208z" />
    <glyph glyph-name="uni04CB" unicode="&#x4cb;" horiz-adv-x="480" 
d="M503 718l-126 -718h-80l56 317c-40 -32 -92 -37 -132 -37c-47 0 -188 26 -188 131c0 7 2 20 3 27l49 280h80l-49 -280l-2 -12c0 -39 86 -61 125 -61c42 0 127 30 133 60l51 293h80z" />
    <glyph glyph-name="uni04CC" unicode="&#x4cc;" horiz-adv-x="386" 
d="M371 523l-93 -523h-72l41 228c-31 -23 -58 -22 -106 -22c-63 0 -122 45 -122 113c0 7 0 14 2 22l32 182l72 1l-36 -202v-3c0 -17 26 -43 78 -43c45 0 90 12 94 38l38 211z" />
    <glyph glyph-name="uni04D0" unicode="&#x4d0;" horiz-adv-x="547" 
d="M527 954c-13 -44 -23 -64 -42 -87c-27 -32 -66 -49 -111 -49c-66 0 -101 37 -101 107l1 29h40c2 -22 3 -28 7 -38c10 -27 34 -41 68 -41c49 0 74 21 99 79h39zM496 0h-87l-22 209h-236l-98 -209h-82l347 718h90zM374 295l-33 319l-150 -319h183z" />
    <glyph glyph-name="uni04D1" unicode="&#x4d1;" 
d="M453 759c-13 -44 -23 -64 -42 -87c-27 -32 -66 -49 -111 -49c-66 0 -101 37 -101 107l1 29h40c2 -22 3 -28 7 -38c10 -27 34 -41 68 -41c49 0 74 21 99 79h39zM406 64l-12 -64l-9 -3c-16 -6 -23 -7 -34 -7c-40 0 -62 20 -62 56c0 5 1 15 2 24c-57 -60 -106 -85 -167 -85
c-71 0 -114 44 -114 116c0 105 65 185 162 199l122 18c32 5 50 35 50 82c0 42 -30 65 -86 65c-63 0 -95 -27 -118 -101h-66c12 52 23 77 45 105c34 44 91 69 157 69c89 0 142 -43 142 -115c0 -10 -1 -21 -3 -31l-52 -301l-2 -11c-1 -11 7 -20 19 -20c6 0 13 1 26 4zM306 181
l15 86c-17 -14 -39 -19 -125 -33c-76 -13 -109 -47 -109 -113c0 -41 22 -63 63 -63c73 0 145 56 156 123z" />
    <glyph glyph-name="uni04D2" unicode="&#x4d2;" horiz-adv-x="547" 
d="M348 818h-75l18 102h74zM498 920l-18 -102h-74l17 102h75zM496 0h-87l-22 209h-236l-98 -209h-82l347 718h90zM374 295l-33 319l-150 -319h183z" />
    <glyph glyph-name="uni04D3" unicode="&#x4d3;" 
d="M274 623h-75l18 102h74zM424 725l-18 -102h-74l17 102h75zM406 64l-12 -64l-9 -3c-16 -6 -23 -7 -34 -7c-40 0 -62 20 -62 56c0 5 1 15 2 24c-57 -60 -106 -85 -167 -85c-71 0 -114 44 -114 116c0 105 65 185 162 199l122 18c32 5 50 35 50 82c0 42 -30 65 -86 65
c-63 0 -95 -27 -118 -101h-66c12 52 23 77 45 105c34 44 91 69 157 69c89 0 142 -43 142 -115c0 -10 -1 -21 -3 -31l-52 -301l-2 -11c-1 -11 7 -20 19 -20c6 0 13 1 26 4zM306 181l15 86c-17 -14 -39 -19 -125 -33c-76 -13 -109 -47 -109 -113c0 -41 22 -63 63 -63
c73 0 145 56 156 123z" />
    <glyph glyph-name="uni04D4" unicode="&#x4d4;" horiz-adv-x="820" 
d="M740 0h-405l36 209h-217l-101 -209h-86l364 718h528l-15 -86h-320l-38 -220h292l-15 -86h-292l-42 -240h326zM445 632h-79l-168 -337h188z" />
    <glyph glyph-name="uni04D5" unicode="&#x4d5;" horiz-adv-x="729" 
d="M695 233h-313c-4 -25 -6 -47 -6 -62c0 -68 37 -110 97 -110c59 0 114 43 132 103h72c-38 -113 -119 -179 -220 -179c-78 0 -119 31 -142 109c-60 -78 -114 -109 -188 -109c-73 0 -117 43 -117 116c0 105 65 185 162 199l122 18c32 5 50 35 50 82c0 42 -30 65 -86 65
c-63 0 -95 -28 -118 -101h-66c12 52 23 77 45 105c36 46 91 69 163 69c63 0 92 -17 126 -74c56 56 93 74 153 74c51 0 91 -20 113 -56c19 -33 32 -83 32 -128c0 -31 -4 -72 -11 -121zM633 303c1 18 2 34 2 47c0 67 -35 109 -91 109c-69 0 -130 -63 -150 -156h239zM306 181
l15 86c-17 -14 -39 -20 -125 -33c-76 -13 -109 -47 -109 -112c0 -42 22 -64 63 -64c73 0 144 56 156 123z" />
    <glyph glyph-name="uni04D6" unicode="&#x4d6;" horiz-adv-x="547" 
d="M542 954c-13 -44 -23 -64 -42 -87c-27 -32 -66 -49 -111 -49c-66 0 -101 37 -101 107l1 29h40c2 -22 3 -28 7 -38c10 -27 34 -41 68 -41c49 0 74 21 99 79h39zM466 0h-435l125 718h429l-15 -86h-349l-39 -220h323l-15 -86h-323l-41 -240h355z" />
    <glyph glyph-name="uni04D7" unicode="&#x4d7;" 
d="M450 759c-13 -44 -23 -64 -42 -87c-27 -32 -66 -49 -111 -49c-66 0 -101 37 -101 107l1 29h40c2 -22 3 -28 7 -38c10 -27 34 -41 68 -41c49 0 74 21 99 79h39zM423 233h-313c-4 -25 -6 -46 -6 -62c0 -68 37 -110 98 -110c58 0 113 43 131 103h72
c-38 -113 -119 -179 -219 -179s-157 68 -157 187c0 97 33 203 84 271c46 62 108 95 176 95c51 0 92 -20 113 -56c19 -33 32 -83 32 -128c0 -31 -4 -72 -11 -121zM361 303c1 18 2 34 2 47c0 67 -35 109 -91 109c-69 0 -129 -63 -150 -156h239z" />
    <glyph glyph-name="uni04D8" unicode="&#x4d8;" horiz-adv-x="592" 
d="M600 476c0 -135 -42 -276 -110 -365c-64 -85 -148 -130 -241 -130c-123 0 -201 81 -201 209c0 7 0 15 1 26h77c2 -57 11 -84 36 -110c23 -25 59 -39 101 -39c69 0 132 38 178 108c46 68 76 183 76 288c0 121 -52 188 -148 188c-56 0 -102 -24 -143 -73
c-26 -32 -42 -62 -65 -124h-77c41 115 71 165 124 211c53 47 118 72 183 72c131 0 209 -98 209 -261z" />
    <glyph glyph-name="afii10846" unicode="&#x4d9;" horiz-adv-x="410" 
d="M414 351c0 -97 -33 -203 -84 -271c-47 -62 -108 -95 -178 -95c-81 0 -131 56 -131 148c0 11 1 26 2 43h70c1 -37 1 -40 5 -56c11 -37 37 -56 77 -56c48 0 89 30 118 87c26 51 43 127 43 192c0 77 -31 119 -88 119c-55 0 -97 -41 -127 -124h-70c41 133 111 200 210 200
c95 0 153 -70 153 -187z" />
    <glyph glyph-name="uni04DA" unicode="&#x4da;" horiz-adv-x="592" 
d="M375 818h-75l18 102h74zM525 920l-18 -102h-74l17 102h75zM600 476c0 -135 -42 -276 -110 -365c-64 -85 -148 -130 -241 -130c-123 0 -201 81 -201 209c0 7 0 15 1 26h77c2 -57 11 -84 36 -110c23 -25 59 -39 101 -39c69 0 132 38 178 108c46 68 76 183 76 288
c0 121 -52 188 -148 188c-56 0 -102 -24 -143 -73c-26 -32 -42 -62 -65 -124h-77c41 115 71 165 124 211c53 47 118 72 183 72c131 0 209 -98 209 -261z" />
    <glyph glyph-name="uni04DB" unicode="&#x4db;" horiz-adv-x="410" 
d="M260 623h-75l18 102h74zM410 725l-18 -102h-74l17 102h75zM414 351c0 -97 -33 -203 -84 -271c-47 -62 -108 -95 -178 -95c-81 0 -131 56 -131 148c0 11 1 26 2 43h70c1 -37 1 -40 5 -56c11 -37 37 -56 77 -56c48 0 89 30 118 87c26 51 43 127 43 192
c0 77 -31 119 -88 119c-55 0 -97 -41 -127 -124h-70c41 133 111 200 210 200c95 0 153 -70 153 -187z" />
    <glyph glyph-name="uni04DC" unicode="&#x4dc;" horiz-adv-x="902" 
d="M532 818h-75l18 102h74zM682 920l-18 -102h-74l17 102h75zM860 0h-103l-210 350h-27l-62 -350h-80l62 350h-27l-334 -350h-103l362 382l-229 336h110l198 -290h36l52 290h80l-52 -290h36l302 290h110l-349 -336z" />
    <glyph glyph-name="uni04DD" unicode="&#x4dd;" horiz-adv-x="656" 
d="M370 623h-75l18 102h74zM520 725l-18 -102h-74l17 102h75zM611 0h-93l-156 209l-37 -209h-70l37 209l-230 -209h-93l281 262l-179 261h91l146 -221l39 221h70l-39 -221l224 221h91l-271 -261z" />
    <glyph glyph-name="uni04DE" unicode="&#x4de;" horiz-adv-x="557" 
d="M336 818h-75l18 102h74zM486 920l-18 -102h-74l17 102h75zM490 197c-24 -134 -126 -216 -270 -216c-90 0 -143 27 -177 90c-24 43 -27 84 -15 161h75c-7 -47 -5 -71 6 -98c19 -45 63 -70 129 -70c95 0 159 45 173 124c12 69 -4 141 -104 143l-116 2l10 69h122
c69 0 111 77 120 128c13 78 -28 124 -112 124c-55 0 -102 -22 -134 -61c-18 -24 -28 -45 -38 -85h-75c16 64 28 94 52 129c47 64 121 100 210 100c71 0 121 -22 149 -67c24 -40 33 -94 23 -152c-12 -64 -41 -112 -88 -143c57 -32 75 -93 60 -178z" />
    <glyph glyph-name="uni04DF" unicode="&#x4df;" horiz-adv-x="410" 
d="M245 623h-75l18 102h74zM395 725l-18 -102h-74l17 102h75zM369 157c-18 -105 -99 -172 -208 -172c-71 0 -121 28 -139 79c-11 27 -11 52 -5 104h70c-8 -74 19 -106 92 -106c63 0 107 31 116 82c7 39 1 96 -68 96h-69l12 69h58c66 0 84 41 91 78c8 46 -21 74 -76 74
c-63 0 -99 -28 -113 -87h-70c25 105 93 164 191 164c99 0 153 -65 135 -165c-8 -43 -28 -76 -59 -99c35 -22 52 -61 42 -117z" />
    <glyph glyph-name="uni04E0" unicode="&#x4e0;" horiz-adv-x="557" 
d="M490 197c-24 -134 -126 -216 -270 -216c-90 0 -143 27 -177 90c-24 43 -27 84 -15 161h75c-7 -47 -5 -71 6 -98c19 -45 63 -70 129 -70c95 0 159 45 173 124c12 69 -4 141 -104 143l-116 2l10 69h122c69 0 111 77 120 128c13 78 -28 124 -112 124
c-55 0 -102 -22 -134 -61c-18 -24 -28 -45 -38 -85h-75c16 64 28 94 52 129c47 64 121 100 210 100c71 0 121 -22 149 -67c24 -40 33 -94 23 -152c-12 -64 -41 -112 -88 -143c57 -32 75 -93 60 -178z" />
    <glyph glyph-name="uni04E1" unicode="&#x4e1;" horiz-adv-x="410" 
d="M369 157c-18 -105 -99 -172 -208 -172c-71 0 -121 28 -139 79c-11 27 -11 52 -5 104h70c-8 -74 19 -106 92 -106c63 0 107 31 116 82c7 39 1 96 -68 96h-69l12 69h58c66 0 84 41 91 78c8 46 -21 74 -76 74c-63 0 -99 -28 -113 -87h-70c25 105 93 164 191 164
c99 0 153 -65 135 -165c-8 -43 -28 -76 -59 -99c35 -22 52 -61 42 -117z" />
    <glyph glyph-name="uni04E2" unicode="&#x4e2;" horiz-adv-x="594" 
d="M539 875l-10 -57h-257l10 57h257zM618 718l-127 -718h-77l103 583l-405 -583h-89l127 718h77l-103 -583l400 583h94z" />
    <glyph glyph-name="uni04E3" unicode="&#x4e3;" horiz-adv-x="471" 
d="M436 680l-10 -57h-257l10 57h257zM455 523l-92 -523h-72l75 427l-261 -427h-92l92 523l72 1l-76 -433l262 432s66 -1 92 0z" />
    <glyph glyph-name="uni04E4" unicode="&#x4e4;" horiz-adv-x="594" 
d="M372 818h-75l18 102h74zM522 920l-18 -102h-74l17 102h75zM618 718l-127 -718h-77l103 583l-405 -583h-89l127 718h77l-103 -583l400 583h94z" />
    <glyph glyph-name="uni04E5" unicode="&#x4e5;" horiz-adv-x="471" 
d="M269 623h-75l18 102h74zM419 725l-18 -102h-74l17 102h75zM455 523l-92 -523h-72l75 427l-261 -427h-92l92 523l72 1l-76 -433l262 432s66 -1 92 0z" />
    <glyph glyph-name="uni04E6" unicode="&#x4e6;" horiz-adv-x="638" 
d="M393 818h-75l18 102h74zM543 920l-18 -102h-74l17 102h75zM637 456c0 -121 -42 -249 -111 -341c-67 -89 -151 -134 -250 -134c-65 0 -123 22 -160 61c-42 44 -70 131 -70 219c0 122 42 251 110 342c67 88 153 134 251 134c146 0 230 -103 230 -281zM554 445
c0 128 -61 206 -162 206c-145 0 -263 -169 -263 -377c0 -129 61 -207 161 -207c85 0 161 54 210 149c34 67 54 150 54 229z" />
    <glyph glyph-name="uni04E7" unicode="&#x4e7;" 
d="M268 623h-75l18 102h74zM418 725l-18 -102h-74l17 102h75zM439 336c0 -92 -31 -187 -82 -255c-47 -63 -105 -95 -172 -95c-98 0 -157 76 -157 203c0 89 32 188 82 254c47 62 106 95 172 95c98 0 157 -76 157 -202zM364 325c0 88 -34 137 -96 137c-50 0 -93 -32 -124 -92
c-26 -50 -41 -114 -41 -172c0 -88 34 -136 96 -136c50 0 93 32 124 92c26 50 41 114 41 171z" />
    <glyph glyph-name="uni04E8" unicode="&#x4e8;" horiz-adv-x="638" 
d="M637 456c0 -121 -42 -249 -111 -341c-67 -89 -151 -134 -250 -134c-65 0 -123 22 -160 61c-42 44 -70 131 -70 219c0 122 42 251 110 342c67 88 153 134 251 134c146 0 230 -103 230 -281zM554 445c0 128 -61 206 -162 206c-145 0 -263 -169 -263 -377
c0 -129 61 -207 161 -207c85 0 161 54 210 149c34 67 54 150 54 229z" />
    <glyph glyph-name="uni04E9" unicode="&#x4e9;" 
d="M439 336c0 -92 -31 -187 -82 -255c-47 -63 -105 -95 -172 -95c-98 0 -157 76 -157 203c0 89 32 188 82 254c47 62 106 95 172 95c98 0 157 -76 157 -202zM364 325c0 88 -34 137 -96 137c-50 0 -93 -32 -124 -92c-26 -50 -41 -114 -41 -172c0 -88 34 -136 96 -136
c50 0 93 32 124 92c26 50 41 114 41 171z" />
    <glyph glyph-name="uni04EA" unicode="&#x4ea;" horiz-adv-x="638" 
d="M393 818h-75l18 102h74zM543 920l-18 -102h-74l17 102h75zM637 456c0 -121 -42 -249 -111 -341c-67 -89 -151 -134 -250 -134c-65 0 -123 22 -160 61c-42 44 -70 131 -70 219c0 122 42 251 110 342c67 88 153 134 251 134c146 0 230 -103 230 -281zM554 445
c0 128 -61 206 -162 206c-145 0 -263 -169 -263 -377c0 -129 61 -207 161 -207c85 0 161 54 210 149c34 67 54 150 54 229z" />
    <glyph glyph-name="uni04EB" unicode="&#x4eb;" 
d="M268 623h-75l18 102h74zM418 725l-18 -102h-74l17 102h75zM439 336c0 -92 -31 -187 -82 -255c-47 -63 -105 -95 -172 -95c-98 0 -157 76 -157 203c0 89 32 188 82 254c47 62 106 95 172 95c98 0 157 -76 157 -202zM364 325c0 88 -34 137 -96 137c-50 0 -93 -32 -124 -92
c-26 -50 -41 -114 -41 -172c0 -88 34 -136 96 -136c50 0 93 32 124 92c26 50 41 114 41 171z" />
    <glyph glyph-name="uni04EC" unicode="&#x4ec;" horiz-adv-x="590" 
d="M370 818h-75l18 102h74zM520 920l-18 -102h-74l17 102h75zM579 358c-41 -231 -170 -377 -332 -377c-65 0 -121 25 -157 72c-37 46 -50 98 -50 211h77c1 -62 6 -91 21 -123c25 -49 62 -73 117 -73c114 0 199 94 235 257h-279l15 87h277c13 150 -41 238 -150 238
c-41 0 -81 -14 -114 -38c-33 -26 -51 -53 -74 -110h-77c17 56 31 84 59 121c55 73 135 114 223 114c168 0 249 -147 209 -379z" />
    <glyph glyph-name="uni04ED" unicode="&#x4ed;" horiz-adv-x="430" 
d="M260 623h-75l18 102h74zM410 725l-18 -102h-74l17 102h75zM406 252c-28 -163 -122 -267 -239 -267c-98 0 -145 67 -138 200h70c0 -82 28 -123 83 -123c70 0 123 67 147 185h-166l12 70h162c4 92 -27 143 -90 143c-57 0 -94 -34 -120 -113h-70c36 128 101 191 197 191
c124 0 183 -111 152 -286z" />
    <glyph glyph-name="uni04EE" unicode="&#x4ee;" horiz-adv-x="568" 
d="M523 875l-10 -57h-257l10 57h257zM629 718l-496 -718h-88l201 298l-141 420h93l108 -345l230 345h93z" />
    <glyph glyph-name="uni04EF" unicode="&#x4ef;" horiz-adv-x="412" 
d="M409 680l-10 -57h-257l10 57h257zM449 523l-244 -513c-100 -205 -117 -224 -201 -224c-12 0 -16 1 -29 6l-3 1l-3 1l14 80c14 -6 27 -9 42 -9c30 0 45 14 70 67l27 54l-65 537h82l40 -429l190 429h80z" />
    <glyph glyph-name="uni04F0" unicode="&#x4f0;" horiz-adv-x="568" 
d="M356 818h-75l18 102h74zM506 920l-18 -102h-74l17 102h75zM629 718l-496 -718h-88l201 298l-141 420h93l108 -345l230 345h93z" />
    <glyph glyph-name="uni04F1" unicode="&#x4f1;" horiz-adv-x="412" 
d="M242 623h-75l18 102h74zM392 725l-18 -102h-74l17 102h75zM449 523l-244 -513c-100 -205 -117 -224 -201 -224c-12 0 -16 1 -29 6l-3 1l-3 1l14 80c14 -6 27 -9 42 -9c30 0 45 14 70 67l27 54l-65 537h82l40 -429l190 429h80z" />
    <glyph glyph-name="uni04F2" unicode="&#x4f2;" horiz-adv-x="568" 
d="M417 959l-132 -141h-55l97 141h90zM564 959l-132 -141h-55l98 141h89zM629 718l-496 -718h-88l201 298l-141 420h93l108 -345l230 345h93z" />
    <glyph glyph-name="uni04F3" unicode="&#x4f3;" horiz-adv-x="412" 
d="M303 764l-132 -141h-55l97 141h90zM450 764l-132 -141h-55l98 141h89zM449 523l-244 -513c-100 -205 -117 -224 -201 -224c-12 0 -16 1 -29 6l-3 1l-3 1l14 80c14 -6 27 -9 42 -9c30 0 45 14 70 67l27 54l-65 537h82l40 -429l190 429h80z" />
    <glyph glyph-name="uni04F4" unicode="&#x4f4;" horiz-adv-x="480" 
d="M279 797h-75l18 102h74zM429 899l-18 -102h-74l17 102h75zM503 718l-126 -718h-80l56 317c-40 -32 -92 -37 -132 -37c-47 0 -188 26 -188 131c0 7 2 20 3 27l49 280h80l-49 -280l-2 -12c0 -39 86 -61 125 -61c42 0 127 30 133 60l51 293h80z" />
    <glyph glyph-name="uni04F5" unicode="&#x4f5;" horiz-adv-x="386" 
d="M198 628h-75l18 102h74zM348 730l-18 -102h-74l17 102h75zM371 523l-93 -523h-72l41 228c-31 -23 -58 -22 -106 -22c-63 0 -122 45 -122 113c0 7 0 14 2 22l32 182h72l-36 -201v-3c0 -17 26 -43 78 -43c45 0 90 12 94 38l38 209h72z" />
    <glyph glyph-name="uni04F8" unicode="&#x4f8;" horiz-adv-x="781" 
d="M466 818h-75l18 102h74zM616 920l-18 -102h-74l17 102h75zM805 718l-127 -718h-79l127 718h79zM498 203c-22 -122 -106 -203 -211 -203h-264l127 718h80l-54 -303h184c106 0 160 -84 138 -212zM416 206c15 84 -17 126 -97 126h-157l-44 -249h160c79 0 124 40 138 123z
" />
    <glyph glyph-name="uni04F9" unicode="&#x4f9;" horiz-adv-x="601" 
d="M334 623h-75l18 102h74zM484 725l-18 -102h-74l17 102h75zM585 523l-92 -523h-72l92 523h72zM407 161c-16 -94 -99 -161 -219 -161h-175l92 524l68 -1l-38 -217h126c114 0 159 -72 146 -145zM335 161c11 59 -32 79 -123 79h-89l-30 -170h103c78 0 129 31 139 91z" />
    <glyph glyph-name="baht" unicode="&#xe3f;" horiz-adv-x="547" 
d="M515 258c0 -144 -106 -258 -241 -258h-20l-14 -83h-54l15 83h-180l125 718h180l15 83h53l-15 -83h26c86 0 138 -53 138 -141c0 -79 -35 -147 -108 -190c59 -32 80 -66 80 -129zM461 558c0 50 -32 75 -96 77l-39 -221c90 4 135 60 135 144zM273 414l39 221h-101l-39 -221
h101zM434 244c0 61 -40 91 -119 91h-2l-44 -252h15c89 0 150 66 150 161zM259 335h-100l-44 -252h100z" />
    <glyph glyph-name="Ddotbelow" unicode="&#x1e0c;" horiz-adv-x="592" 
d="M586 472c0 -238 -134 -472 -324 -472h-236l125 718h239c123 0 196 -92 196 -246zM503 461c0 112 -49 174 -138 174h-149l-96 -552h154c133 0 229 177 229 378zM266 -180h-86l16 96h86z" />
    <glyph glyph-name="ddotbelow" unicode="&#x1e0d;" 
d="M369 0h-68l13 75c-43 -65 -82 -90 -140 -90c-93 0 -145 72 -145 200c0 196 102 353 231 353c58 0 92 -27 114 -94l48 274h72zM347 334c0 83 -29 125 -88 125c-106 0 -156 -140 -156 -273c0 -79 31 -125 85 -125c89 0 159 108 159 273zM200 -180h-86l16 96h86z" />
    <glyph glyph-name="Dlinebelow" unicode="&#x1e0e;" horiz-adv-x="592" 
d="M586 472c0 -238 -134 -472 -324 -472h-236l125 718h239c123 0 196 -92 196 -246zM503 461c0 112 -49 174 -138 174h-149l-96 -552h154c133 0 229 177 229 378zM365 -103l-10 -57h-257l10 57h257z" />
    <glyph glyph-name="dlinebelow" unicode="&#x1e0f;" 
d="M369 0h-68l13 75c-43 -65 -82 -90 -140 -90c-93 0 -145 72 -145 200c0 196 102 353 231 353c58 0 92 -27 114 -94l48 274h72zM347 334c0 83 -29 125 -88 125c-106 0 -156 -140 -156 -273c0 -79 31 -125 85 -125c89 0 159 108 159 273zM299 -103l-10 -57h-257l10 57h257z
" />
    <glyph glyph-name="Hdotbelow" unicode="&#x1e24;" horiz-adv-x="592" 
d="M490 0h-80l59 335h-308l-58 -335h-80l125 718h80l-52 -297h308l51 297h80zM268 -180h-86l16 96h86z" />
    <glyph glyph-name="hdotbelow" unicode="&#x1e25;" 
d="M363 0h-72l59 342c3 16 5 36 5 48c0 47 -22 69 -68 69c-77 0 -133 -63 -152 -174l-50 -285h-72l125 718h73l-47 -267c53 65 90 87 147 87c75 0 119 -47 119 -128c0 -17 -2 -35 -5 -54zM200 -180h-86l16 96h86z" />
    <glyph glyph-name="Hdieresis" unicode="&#x1e26;" horiz-adv-x="592" 
d="M490 0h-80l59 335h-308l-58 -335h-80l125 718h80l-52 -297h308l51 297h80zM358 792h-88l17 96h88zM519 792h-88l17 96h88z" />
    <glyph glyph-name="hdieresis" unicode="&#x1e27;" 
d="M363 0h-72l59 342c3 16 5 36 5 48c0 47 -22 69 -68 69c-77 0 -133 -63 -152 -174l-50 -285h-72l125 718h73l-47 -267c53 65 90 87 147 87c75 0 119 -47 119 -128c0 -17 -2 -35 -5 -54zM290 792h-88l17 96h88zM451 792h-88l17 96h88z" />
    <glyph glyph-name="Hbrevebelow" unicode="&#x1e2a;" horiz-adv-x="592" 
d="M490 0h-80l59 335h-308l-58 -335h-80l125 718h80l-52 -297h308l51 297h80zM379 -74c-35 -74 -82 -116 -160 -116c-75 0 -105 42 -112 116h40v-7c18 -30 40 -52 87 -52c49 0 74 20 96 59h49z" />
    <glyph glyph-name="hbrevebelow" unicode="&#x1e2b;" 
d="M363 0h-72l59 342c3 16 5 36 5 48c0 47 -22 69 -68 69c-77 0 -133 -63 -152 -174l-50 -285h-72l125 718h73l-47 -267c53 65 90 87 147 87c75 0 119 -47 119 -128c0 -17 -2 -35 -5 -54zM311 -74c-35 -74 -82 -116 -160 -116c-75 0 -105 42 -112 116h40v-7
c18 -30 40 -52 87 -52c49 0 74 20 96 59h49z" />
    <glyph glyph-name="Ldotbelow" unicode="&#x1e36;" 
d="M400 0h-378l125 718h80l-110 -632h298zM223 -180h-86l16 96h86z" />
    <glyph glyph-name="ldotbelow" unicode="&#x1e37;" horiz-adv-x="182" 
d="M87 0h-72l125 718h72zM63 -180h-86l16 96h86z" />
    <glyph glyph-name="Ldotbelowmacron" unicode="&#x1e38;" 
d="M400 0h-378l125 718h80l-110 -632h298zM223 -180h-86l16 96h86zM341 869l-10 -57h-257l10 57h257z" />
    <glyph glyph-name="ldotbelowmacron" unicode="&#x1e39;" horiz-adv-x="182" 
d="M87 0h-72l125 718h72zM63 -180h-86l16 96h86zM331 869l-10 -57h-257l10 57h257z" />
    <glyph glyph-name="Mdotbelow" unicode="&#x1e42;" horiz-adv-x="683" 
d="M584 0h-77l74 424l34 185l-274 -609h-78l-62 608l-23 -138c-4 -22 -6 -38 -7 -46l-74 -424h-77l125 718h114l63 -610l274 610h113zM314 -180h-86l16 96h86z" />
    <glyph glyph-name="mdotbelow" unicode="&#x1e43;" horiz-adv-x="683" 
d="M591 0h-72l59 338c3 16 4 31 4 49c0 47 -21 72 -61 72c-58 0 -113 -61 -127 -140l-56 -319h-72l63 362c2 10 3 22 3 31c0 43 -19 66 -52 66c-71 0 -127 -68 -145 -174l-50 -285h-72l91 523h69l-14 -77c49 65 92 92 149 92c53 0 82 -25 98 -85c62 67 92 85 144 85
c68 0 109 -47 109 -124c0 -17 -2 -35 -5 -52zM314 -180h-86l16 96h86z" />
    <glyph glyph-name="Ndotaccent" unicode="&#x1e44;" horiz-adv-x="592" 
d="M490 0h-90l-199 583l-102 -583h-77l125 718h95l194 -583l102 583h77zM438 792h-86l17 96h86z" />
    <glyph glyph-name="ndotaccent" unicode="&#x1e45;" 
d="M363 0h-72l56 322c3 20 5 40 5 60c0 51 -23 77 -69 77c-73 0 -129 -66 -148 -174l-50 -285h-72l91 523h68l-13 -77c50 65 94 92 153 92c74 0 118 -48 118 -128c0 -17 -2 -35 -5 -54zM337 607h-86l17 96h86z" />
    <glyph glyph-name="Ndotbelow" unicode="&#x1e46;" horiz-adv-x="592" 
d="M490 0h-90l-199 583l-102 -583h-77l125 718h95l194 -583l102 583h77zM268 -180h-86l16 96h86z" />
    <glyph glyph-name="ndotbelow" unicode="&#x1e47;" 
d="M363 0h-72l56 322c3 20 5 40 5 60c0 51 -23 77 -69 77c-73 0 -129 -66 -148 -174l-50 -285h-72l91 523h68l-13 -77c50 65 94 92 153 92c74 0 118 -48 118 -128c0 -17 -2 -35 -5 -54zM200 -180h-86l16 96h86z" />
    <glyph glyph-name="Rdotaccent" unicode="&#x1e58;" horiz-adv-x="592" 
d="M524 16l-3 -16h-98v17c0 31 7 98 18 163c3 20 5 37 5 50c0 51 -31 78 -88 78h-193l-53 -308h-80l125 718h273c107 0 164 -50 164 -143c0 -97 -35 -167 -116 -222c39 -22 50 -41 50 -90c0 -12 -1 -30 -3 -45l-18 -130c-2 -14 -3 -25 -3 -34c0 -16 5 -25 20 -38zM509 552
c0 56 -28 83 -88 83h-199l-42 -244h184c98 0 145 65 145 161zM422 792h-86l17 96h86z" />
    <glyph glyph-name="rdotaccent" unicode="&#x1e59;" horiz-adv-x="273" 
d="M325 535l-16 -91h-27c-63 0 -120 -59 -134 -140l-53 -304h-72l91 523h68l-16 -90c52 76 90 105 141 105c7 0 12 -1 18 -3zM246 607h-86l17 96h86z" />
    <glyph glyph-name="Rdotbelow" unicode="&#x1e5a;" horiz-adv-x="592" 
d="M524 16l-3 -16h-98v17c0 31 7 98 18 163c3 20 5 37 5 50c0 51 -31 78 -88 78h-193l-53 -308h-80l125 718h273c107 0 164 -50 164 -143c0 -97 -35 -167 -116 -222c39 -22 50 -41 50 -90c0 -12 -1 -30 -3 -45l-18 -130c-2 -14 -3 -25 -3 -34c0 -16 5 -25 20 -38zM509 552
c0 56 -28 83 -88 83h-199l-42 -244h184c98 0 145 65 145 161zM252 -180h-86l16 96h86z" />
    <glyph glyph-name="rdotbelow" unicode="&#x1e5b;" horiz-adv-x="273" 
d="M325 535l-16 -91h-27c-63 0 -120 -59 -134 -140l-53 -304h-72l91 523h68l-16 -90c52 76 90 105 141 105c7 0 12 -1 18 -3zM71 -180h-86l16 96h86z" />
    <glyph glyph-name="Rdotbelowmacron" unicode="&#x1e5c;" horiz-adv-x="592" 
d="M524 16l-3 -16h-98v17c0 31 7 98 18 163c3 20 5 37 5 50c0 51 -31 78 -88 78h-193l-53 -308h-80l125 718h273c107 0 164 -50 164 -143c0 -97 -35 -167 -116 -222c39 -22 50 -41 50 -90c0 -12 -1 -30 -3 -45l-18 -130c-2 -14 -3 -25 -3 -34c0 -16 5 -25 20 -38zM509 552
c0 56 -28 83 -88 83h-199l-42 -244h184c98 0 145 65 145 161zM252 -180h-86l16 96h86zM520 869l-10 -57h-257l10 57h257z" />
    <glyph glyph-name="rdotbelowmacron" unicode="&#x1e5d;" horiz-adv-x="273" 
d="M325 535l-16 -91h-27c-63 0 -120 -59 -134 -140l-53 -304h-72l91 523h68l-16 -90c52 76 90 105 141 105c7 0 12 -1 18 -3zM71 -180h-86l16 96h86zM346 699l-10 -57h-257l10 57h257z" />
    <glyph glyph-name="Sdotbelow" unicode="&#x1e62;" horiz-adv-x="547" 
d="M507 246c0 -157 -112 -265 -275 -265c-127 0 -198 75 -198 176c0 19 2 45 7 75h75c-3 -18 -4 -35 -4 -46c0 -76 53 -122 139 -122c108 0 176 59 176 153c0 48 -26 71 -107 95l-114 34c-66 20 -100 64 -100 129c0 138 103 262 252 262c117 0 186 -63 186 -168
c0 -15 -1 -37 -4 -61h-75c1 13 2 24 2 33c0 70 -47 113 -123 113c-92 0 -157 -61 -157 -148c0 -36 18 -58 56 -69l159 -47c69 -20 105 -70 105 -144zM244 -180h-86l16 96h86z" />
    <glyph glyph-name="sdotbelow" unicode="&#x1e63;" horiz-adv-x="410" 
d="M371 189c0 -113 -92 -204 -207 -204c-97 0 -152 48 -152 131c0 12 1 31 4 52h70c-1 -11 -2 -21 -2 -29c0 -50 34 -78 94 -78c68 0 117 40 117 97c0 28 -19 44 -74 61l-79 25c-53 17 -79 49 -79 98c0 110 86 196 195 196c84 0 136 -49 136 -130c0 -8 -1 -20 -2 -34h-70
c1 9 2 17 2 22c0 42 -31 66 -83 66c-62 0 -104 -37 -104 -90c0 -26 14 -38 66 -54l69 -22c70 -23 99 -55 99 -107zM177 -180h-86l16 96h86z" />
    <glyph glyph-name="Tdotbelow" unicode="&#x1e6c;" horiz-adv-x="501" 
d="M560 632h-199l-110 -632h-80l110 632h-199l15 86h478zM223 -180h-86l16 96h86z" />
    <glyph glyph-name="tdotbelow" unicode="&#x1e6d;" horiz-adv-x="228" 
d="M171 0c-32 -4 -52 -7 -60 -7c-43 0 -67 25 -67 70c0 13 1 28 4 42l60 345h-58l13 73h58l25 146h73l-26 -146h69l-13 -73h-69l-59 -340c-1 -4 -1 -7 -1 -12c0 -21 11 -29 37 -29h26zM86 -180h-86l16 96h86z" />
    <glyph glyph-name="Tlinebelow" unicode="&#x1e6e;" horiz-adv-x="501" 
d="M560 632h-199l-110 -632h-80l110 632h-199l15 86h478zM322 -103l-10 -57h-257l10 57h257z" />
    <glyph glyph-name="tlinebelow" unicode="&#x1e6f;" horiz-adv-x="228" 
d="M171 0c-32 -4 -52 -7 -60 -7c-43 0 -67 25 -67 70c0 13 1 28 4 42l60 345h-58l13 73h58l25 146h73l-26 -146h69l-13 -73h-69l-59 -340c-1 -4 -1 -7 -1 -12c0 -21 11 -29 37 -29h26zM185 -103l-10 -57h-257l10 57h257z" />
    <glyph glyph-name="Wgrave" unicode="&#x1e80;" horiz-adv-x="774" 
d="M846 718l-280 -718h-115v599l-241 -599h-112v718h94v-588l236 588h117v-588l213 588h88zM525 779h-55l-86 121h99z" />
    <glyph glyph-name="wgrave" unicode="&#x1e81;" horiz-adv-x="592" 
d="M633 523l-216 -523h-91v409l-156 -409h-74l-33 523h89v-415l156 415h93v-415l160 415h72zM386 584h-55l-83 141h99z" />
    <glyph glyph-name="Wacute" unicode="&#x1e82;" horiz-adv-x="774" 
d="M846 718l-280 -718h-115v599l-241 -599h-112v718h94v-588l236 588h117v-588l213 588h88zM652 900l-128 -121h-55l84 121h99z" />
    <glyph glyph-name="wacute" unicode="&#x1e83;" horiz-adv-x="592" 
d="M633 523l-216 -523h-91v409l-156 -409h-74l-33 523h89v-415l156 415h93v-415l160 415h72zM517 725l-132 -141h-55l88 141h99z" />
    <glyph glyph-name="Wdieresis" unicode="&#x1e84;" horiz-adv-x="774" 
d="M846 718l-280 -718h-115v599l-241 -599h-112v718h94v-588l236 588h117v-588l213 588h88zM463 792h-88l17 96h88zM624 792h-88l17 96h88z" />
    <glyph glyph-name="wdieresis" unicode="&#x1e85;" horiz-adv-x="592" 
d="M633 523l-216 -523h-91v409l-156 -409h-74l-33 523h89v-415l156 415h93v-415l160 415h72zM325 607h-88l17 96h88zM486 607h-88l17 96h88z" />
    <glyph glyph-name="Zdotbelow" unicode="&#x1e92;" horiz-adv-x="501" 
d="M442 0h-463l14 81l457 551h-334l15 86h436l-15 -84l-457 -548h362zM236 -180h-86l16 96h86z" />
    <glyph glyph-name="zdotbelow" unicode="&#x1e93;" horiz-adv-x="410" 
d="M357 73l-13 -73h-359l12 69l325 381h-239l13 73h332l-13 -72l-321 -378h263zM177 -180h-86l16 96h86z" />
    <glyph glyph-name="tdieresis" unicode="&#x1e97;" horiz-adv-x="228" 
d="M171 0c-32 -4 -52 -7 -60 -7c-43 0 -67 25 -67 70c0 13 1 28 4 42l60 345h-58l13 73h58l25 146h73l-26 -146h69l-13 -73h-69l-59 -340c-1 -4 -1 -7 -1 -12c0 -21 11 -29 37 -29h26zM159 743h-88l17 96h88zM320 743h-88l17 96h88z" />
    <glyph glyph-name="Adotbelow" unicode="&#x1ea0;" horiz-adv-x="547" 
d="M496 0h-87l-22 209h-236l-98 -209h-82l347 718h90zM374 295l-33 319l-150 -319h183zM246 -180h-86l16 96h86z" />
    <glyph glyph-name="adotbelow" unicode="&#x1ea1;" 
d="M406 64l-12 -64l-9 -3c-16 -6 -23 -7 -34 -7c-40 0 -62 20 -62 56c0 5 1 15 2 24c-57 -60 -106 -85 -167 -85c-71 0 -114 44 -114 116c0 105 65 185 162 199l122 18c32 5 50 35 50 82c0 42 -30 65 -86 65c-63 0 -95 -27 -118 -101h-66c27 119 93 174 202 174
c89 0 142 -43 142 -115c0 -10 -1 -21 -3 -31l-54 -312c0 -11 6 -20 19 -20c6 0 13 1 26 4zM306 181l15 86c-17 -14 -39 -19 -125 -33c-76 -13 -109 -47 -109 -113c0 -41 22 -63 63 -63c73 0 144 56 156 123zM194 -180h-86l16 96h86z" />
    <glyph glyph-name="Ahookabove" unicode="&#x1ea2;" horiz-adv-x="547" 
d="M496 0h-87l-22 209h-236l-98 -209h-82l347 718h90zM374 295l-33 319l-150 -319h183zM495 876c-4 -26 -18 -40 -56 -62c-30 -19 -35 -23 -37 -32l-4 -24h-56l5 27c4 25 19 37 58 58c22 13 33 23 34 33c3 14 -13 25 -41 25c-21 0 -35 -5 -43 -14c-5 -5 -9 -16 -12 -34h-55
c10 60 52 92 120 92c61 0 94 -27 87 -69z" />
    <glyph glyph-name="ahookabove" unicode="&#x1ea3;" 
d="M406 64l-12 -64l-9 -3c-16 -6 -23 -7 -34 -7c-40 0 -62 20 -62 56c0 5 1 15 2 24c-57 -60 -106 -85 -167 -85c-71 0 -114 44 -114 116c0 105 65 185 162 199l122 18c32 5 50 35 50 82c0 42 -30 65 -86 65c-63 0 -95 -27 -118 -101h-66c27 119 93 174 202 174
c89 0 142 -43 142 -115c0 -10 -1 -21 -3 -31l-54 -312c0 -11 6 -20 19 -20c6 0 13 1 26 4zM306 181l15 86c-17 -14 -39 -19 -125 -33c-76 -13 -109 -47 -109 -113c0 -41 22 -63 63 -63c73 0 144 56 156 123zM405 681c-4 -26 -18 -40 -56 -62c-30 -19 -35 -23 -37 -32l-4 -24
h-56l5 27c4 25 19 37 58 58c22 13 33 23 34 33c3 14 -13 25 -41 25c-21 0 -35 -5 -43 -14c-5 -5 -9 -16 -12 -34h-55c10 60 52 92 120 92c61 0 94 -27 87 -69z" />
    <glyph glyph-name="Acircumflexacute" unicode="&#x1ea4;" horiz-adv-x="547" 
d="M496 0h-87l-22 209h-236l-98 -209h-82l347 718h90zM374 295l-33 319l-150 -319h183zM555 1042l-129 -121h-55l85 121h99zM509 780h-66l-56 73l-82 -73h-65l117 121h77z" />
    <glyph glyph-name="acircumflexacute" unicode="&#x1ea5;" 
d="M406 64l-12 -64l-9 -3c-16 -6 -23 -7 -34 -7c-40 0 -62 20 -62 56c0 5 1 15 2 24c-57 -60 -106 -85 -167 -85c-71 0 -114 44 -114 116c0 105 65 185 162 199l122 18c32 5 50 35 50 82c0 42 -30 65 -86 65c-63 0 -95 -27 -118 -101h-66c27 119 93 174 202 174
c89 0 142 -43 142 -115c0 -10 -1 -21 -3 -31l-54 -312c0 -11 6 -20 19 -20c6 0 13 1 26 4zM306 181l15 86c-17 -14 -39 -19 -125 -33c-76 -13 -109 -47 -109 -113c0 -41 22 -63 63 -63c73 0 144 56 156 123zM465 847l-129 -121h-55l85 121h99zM419 585h-66l-56 73l-82 -73
h-65l117 121h77z" />
    <glyph glyph-name="Acircumflexgrave" unicode="&#x1ea6;" horiz-adv-x="547" 
d="M496 0h-87l-22 209h-236l-98 -209h-82l347 718h90zM374 295l-33 319l-150 -319h183zM427 921h-55l-87 121h99zM509 780h-66l-56 73l-82 -73h-65l117 121h77z" />
    <glyph glyph-name="acircumflexgrave" unicode="&#x1ea7;" 
d="M406 64l-12 -64l-9 -3c-16 -6 -23 -7 -34 -7c-40 0 -62 20 -62 56c0 5 1 15 2 24c-57 -60 -106 -85 -167 -85c-71 0 -114 44 -114 116c0 105 65 185 162 199l122 18c32 5 50 35 50 82c0 42 -30 65 -86 65c-63 0 -95 -27 -118 -101h-66c27 119 93 174 202 174
c89 0 142 -43 142 -115c0 -10 -1 -21 -3 -31l-54 -312c0 -11 6 -20 19 -20c6 0 13 1 26 4zM306 181l15 86c-17 -14 -39 -19 -125 -33c-76 -13 -109 -47 -109 -113c0 -41 22 -63 63 -63c73 0 144 56 156 123zM337 726h-55l-87 121h99zM419 585h-66l-56 73l-82 -73h-65
l117 121h77z" />
    <glyph glyph-name="Acircumflexhookabove" unicode="&#x1ea8;" horiz-adv-x="547" 
d="M496 0h-87l-22 209h-236l-98 -209h-82l347 718h90zM374 295l-33 319l-150 -319h183zM552 1027c-4 -23 -17 -36 -55 -57c-30 -16 -35 -20 -36 -28l-4 -21h-56l5 24c4 23 18 33 56 52c22 12 33 21 34 30c3 13 -14 22 -42 22c-20 0 -35 -4 -42 -12c-6 -5 -9 -15 -12 -31h-55
c10 54 51 83 119 83c61 0 95 -25 88 -62zM509 780h-66l-56 73l-82 -73h-65l117 121h77z" />
    <glyph glyph-name="acircumflexhookabove" unicode="&#x1ea9;" 
d="M406 64l-12 -64l-9 -3c-16 -6 -23 -7 -34 -7c-40 0 -62 20 -62 56c0 5 1 15 2 24c-57 -60 -106 -85 -167 -85c-71 0 -114 44 -114 116c0 105 65 185 162 199l122 18c32 5 50 35 50 82c0 42 -30 65 -86 65c-63 0 -95 -27 -118 -101h-66c27 119 93 174 202 174
c89 0 142 -43 142 -115c0 -10 -1 -21 -3 -31l-54 -312c0 -11 6 -20 19 -20c6 0 13 1 26 4zM306 181l15 86c-17 -14 -39 -19 -125 -33c-76 -13 -109 -47 -109 -113c0 -41 22 -63 63 -63c73 0 144 56 156 123zM462 832c-4 -23 -17 -36 -55 -57c-30 -16 -35 -20 -36 -28l-4 -21
h-56l5 24c4 23 18 33 56 52c22 12 33 21 34 30c3 13 -14 22 -42 22c-20 0 -35 -4 -42 -12c-6 -5 -9 -15 -12 -31h-55c10 54 51 83 119 83c61 0 95 -25 88 -62zM419 585h-66l-56 73l-82 -73h-65l117 121h77z" />
    <glyph glyph-name="Acircumflextilde" unicode="&#x1eaa;" horiz-adv-x="547" 
d="M496 0h-87l-22 209h-236l-98 -209h-82l347 718h90zM374 295l-33 319l-150 -319h183zM561 1047c-22 -71 -57 -109 -102 -109c-12 0 -25 4 -45 13l-20 9c-23 10 -37 15 -47 15c-20 0 -33 -12 -47 -44h-39c23 74 55 107 104 107c16 0 34 -5 53 -15l17 -9
c15 -8 29 -13 38 -13c22 0 35 13 47 46h41zM509 780h-66l-56 73l-82 -73h-65l117 121h77z" />
    <glyph glyph-name="acircumflextilde" unicode="&#x1eab;" 
d="M406 64l-12 -64l-9 -3c-16 -6 -23 -7 -34 -7c-40 0 -62 20 -62 56c0 5 1 15 2 24c-57 -60 -106 -85 -167 -85c-71 0 -114 44 -114 116c0 105 65 185 162 199l122 18c32 5 50 35 50 82c0 42 -30 65 -86 65c-63 0 -95 -27 -118 -101h-66c27 119 93 174 202 174
c89 0 142 -43 142 -115c0 -10 -1 -21 -3 -31l-54 -312c0 -11 6 -20 19 -20c6 0 13 1 26 4zM306 181l15 86c-17 -14 -39 -19 -125 -33c-76 -13 -109 -47 -109 -113c0 -41 22 -63 63 -63c73 0 144 56 156 123zM471 852c-22 -71 -57 -109 -102 -109c-12 0 -25 4 -45 13l-20 9
c-23 10 -37 15 -47 15c-20 0 -33 -12 -47 -44h-39c23 74 55 107 104 107c16 0 34 -5 53 -15l17 -9c15 -8 29 -13 38 -13c22 0 35 13 47 46h41zM419 585h-66l-56 73l-82 -73h-65l117 121h77z" />
    <glyph glyph-name="Acircumflexdotbelow" unicode="&#x1eac;" horiz-adv-x="547" 
d="M496 0h-87l-22 209h-236l-98 -209h-82l347 718h90zM374 295l-33 319l-150 -319h183zM508 780h-66l-56 73l-82 -73h-65l117 121h77zM246 -180h-86l16 96h86z" />
    <glyph glyph-name="acircumflexdotbelow" unicode="&#x1ead;" 
d="M406 64l-12 -64l-9 -3c-16 -6 -23 -7 -34 -7c-40 0 -62 20 -62 56c0 5 1 15 2 24c-57 -60 -106 -85 -167 -85c-71 0 -114 44 -114 116c0 105 65 185 162 199l122 18c32 5 50 35 50 82c0 42 -30 65 -86 65c-63 0 -95 -27 -118 -101h-66c27 119 93 174 202 174
c89 0 142 -43 142 -115c0 -10 -1 -21 -3 -31l-54 -312c0 -11 6 -20 19 -20c6 0 13 1 26 4zM306 181l15 86c-17 -14 -39 -19 -125 -33c-76 -13 -109 -47 -109 -113c0 -41 22 -63 63 -63c73 0 144 56 156 123zM403 585h-65l-38 93l-70 -93h-65l106 141h76zM194 -180h-86l16 96
h86z" />
    <glyph glyph-name="Abreveacute" unicode="&#x1eae;" horiz-adv-x="547" 
d="M496 0h-87l-22 209h-236l-98 -209h-82l347 718h90zM374 295l-33 319l-150 -319h183zM556 1047l-129 -121h-55l85 121h99zM531 898c-35 -74 -81 -116 -159 -116c-75 0 -106 42 -113 116h40l1 -7c18 -30 40 -52 87 -52c49 0 73 20 95 59h49z" />
    <glyph glyph-name="abreveacute" unicode="&#x1eaf;" 
d="M406 64l-12 -64l-9 -3c-16 -6 -23 -7 -34 -7c-40 0 -62 20 -62 56c0 5 1 15 2 24c-57 -60 -106 -85 -167 -85c-71 0 -114 44 -114 116c0 105 65 185 162 199l122 18c32 5 50 35 50 82c0 42 -30 65 -86 65c-63 0 -95 -27 -118 -101h-66c27 119 93 174 202 174
c89 0 142 -43 142 -115c0 -10 -1 -21 -3 -31l-54 -312c0 -11 6 -20 19 -20c6 0 13 1 26 4zM306 181l15 86c-17 -14 -39 -19 -125 -33c-76 -13 -109 -47 -109 -113c0 -41 22 -63 63 -63c73 0 144 56 156 123zM466 852l-129 -121h-55l85 121h99zM441 703
c-35 -74 -81 -116 -159 -116c-75 0 -106 42 -113 116h40l1 -7c18 -30 40 -52 87 -52c49 0 73 20 95 59h49z" />
    <glyph glyph-name="Abrevegrave" unicode="&#x1eb0;" horiz-adv-x="547" 
d="M496 0h-87l-22 209h-236l-98 -209h-82l347 718h90zM374 295l-33 319l-150 -319h183zM427 926h-55l-86 121h99zM531 898c-35 -74 -81 -116 -159 -116c-75 0 -106 42 -113 116h40l1 -7c18 -30 40 -52 87 -52c49 0 73 20 95 59h49z" />
    </font>
</defs>
</svg>
